<svg width="20" height="23" viewBox="0 0 20 23" fill="none" xmlns="http://www.w3.org/2000/svg">
<path d="M3.38516 9.38822V15.0425C3.38516 15.7945 2.79434 16.3951 2.04239 16.3951C1.29532 16.3951 0.572662 15.7896 0.572662 15.0425V9.38822C0.572662 8.65092 1.29532 8.04545 2.04239 8.04545C2.77969 8.04545 3.38516 8.65092 3.38516 9.38822ZM3.91251 17.0542C3.91251 17.855 4.55704 18.4996 5.35782 18.4996H6.3295L6.34415 21.4829C6.34415 23.2847 9.03946 23.2701 9.03946 21.4829V18.4996H10.8559V21.4829C10.8559 23.2749 13.5658 23.2798 13.5658 21.4829V18.4996H14.5522C15.3432 18.4996 15.9877 17.855 15.9877 17.0542V8.29447H3.91251V17.0542ZM16.0219 7.82084H3.8588C3.8588 5.731 5.10879 3.91459 6.96426 2.96732L6.03165 1.24369C5.89493 1.00443 6.24161 0.853066 6.3588 1.05814L7.30606 2.79643C9.01016 2.03959 10.9682 2.07865 12.5941 2.79643L13.5365 1.06303C13.6586 0.853066 14.0004 1.00932 13.8637 1.24857L12.9311 2.96732C14.7719 3.91459 16.0219 5.731 16.0219 7.82084ZM7.68692 5.11088C7.68692 4.83256 7.46231 4.59818 7.17422 4.59818C6.8959 4.59818 6.67618 4.83256 6.67618 5.11088C6.67618 5.3892 6.90079 5.62357 7.17422 5.62357C7.46231 5.62357 7.68692 5.3892 7.68692 5.11088ZM13.224 5.11088C13.224 4.83256 12.9994 4.59818 12.726 4.59818C12.4379 4.59818 12.2133 4.83256 12.2133 5.11088C12.2133 5.3892 12.4379 5.62357 12.726 5.62357C12.9994 5.62357 13.224 5.3892 13.224 5.11088ZM17.8529 8.04545C17.1156 8.04545 16.5102 8.63627 16.5102 9.38822V15.0425C16.5102 15.7945 17.1156 16.3951 17.8529 16.3951C18.6049 16.3951 19.3227 15.7896 19.3227 15.0425V9.38822C19.3227 8.63627 18.6 8.04545 17.8529 8.04545Z" fill="white"/>
</svg>
