<svg width="20" height="23" viewBox="0 0 20 23" fill="none" xmlns="http://www.w3.org/2000/svg">
<path d="M16.1342 12.5229C16.1244 10.731 16.935 9.37842 18.5756 8.38232C17.6576 7.06885 16.2709 6.34619 14.4398 6.20459C12.7065 6.06787 10.8119 7.21533 10.1186 7.21533C9.38614 7.21533 7.70645 6.25342 6.38809 6.25342C3.66348 6.29736 0.767975 8.42627 0.767975 12.7573C0.767975 14.0366 1.00235 15.3582 1.4711 16.7222C2.0961 18.5142 4.35196 22.9087 6.70547 22.8354C7.93594 22.8062 8.80508 21.9614 10.4066 21.9614C11.9594 21.9614 12.765 22.8354 14.1371 22.8354C16.5102 22.8013 18.5512 18.8071 19.1469 17.0103C15.9633 15.5112 16.1342 12.6157 16.1342 12.5229ZM13.3705 4.50537C14.7035 2.92334 14.5815 1.48291 14.5424 0.965332C13.3656 1.03369 12.0033 1.76611 11.227 2.66943C10.3725 3.63623 9.86954 4.83252 9.97696 6.18018C11.2514 6.27783 12.4135 5.62354 13.3705 4.50537Z" fill="white"/>
</svg>
