<svg id="Landing_Page" data-name="Landing Page" xmlns="http://www.w3.org/2000/svg" xmlns:xlink="http://www.w3.org/1999/xlink" viewBox="0 0 715.10619 586.99998">
  <defs>
    <style>
      .cls-1, .cls-34 {
        fill: none;
      }

      .cls-15, .cls-16, .cls-2, .cls-35, .cls-5 {
        fill: #e33376;
      }

      .cls-2 {
        opacity: 0.1;
      }

      .cls-3 {
        fill: url(#linear-gradient);
      }

      .cls-15, .cls-4 {
        opacity: 0.5;
      }

      .cls-6 {
        fill: url(#linear-gradient-2);
      }

      .cls-7 {
        fill: url(#linear-gradient-3);
      }

      .cls-8 {
        fill: url(#linear-gradient-4);
      }

      .cls-9 {
        fill: #3a3768;
      }

      .cls-10 {
        fill: url(#linear-gradient-5);
      }

      .cls-11 {
        fill: #2c2c56;
      }

      .cls-12 {
        fill: #3d3d72;
      }

      .cls-13 {
        fill: url(#linear-gradient-6);
      }

      .cls-14 {
        fill: url(#linear-gradient-7);
      }

      .cls-16 {
        opacity: 0.3;
      }

      .cls-17 {
        fill: url(#linear-gradient-8);
      }

      .cls-18 {
        fill: url(#linear-gradient-9);
      }

      .cls-19 {
        fill: url(#linear-gradient-10);
      }

      .cls-20 {
        clip-path: url(#clip-path);
      }

      .cls-21 {
        fill: url(#linear-gradient-11);
      }

      .cls-22 {
        fill: url(#linear-gradient-12);
      }

      .cls-23 {
        fill: #ddd;
      }

      .cls-24, .cls-37 {
        fill: #fff;
      }

      .cls-25 {
        fill: url(#linear-gradient-13);
      }

      .cls-26 {
        fill: #303d5c;
      }

      .cls-27 {
        fill: #fbbebe;
      }

      .cls-28 {
        fill: #111;
      }

      .cls-29 {
        fill: #4058df;
      }

      .cls-30 {
        fill: #fcfdff;
      }

      .cls-31 {
        fill: url(#linear-gradient-14);
      }

      .cls-32 {
        isolation: isolate;
        opacity: 0.61;
        fill: url(#linear-gradient-15);
      }

      .cls-33 {
        fill: #202371;
      }

      .cls-34 {
        stroke: #e33376;
        stroke-miterlimit: 10;
        stroke-width: 2px;
      }

      .cls-34, .cls-35 {
        opacity: 0.15;
      }

      .cls-36 {
        fill: url(#linear-gradient-16);
      }

      .cls-37 {
        fill-rule: evenodd;
      }

      .cls-38 {
        fill: url(#linear-gradient-17);
      }

      .cls-39 {
        fill: url(#linear-gradient-18);
      }

      .cls-40 {
        fill: url(#linear-gradient-19);
      }

      .cls-41 {
        fill: url(#linear-gradient-20);
      }

      .cls-42 {
        fill: url(#linear-gradient-21);
      }

      .cls-43 {
        fill: url(#linear-gradient-22);
      }

      .cls-44 {
        fill: url(#linear-gradient-23);
      }

      .cls-45 {
        fill: #a8114e;
      }

      .cls-46 {
        fill: #161c60;
      }

      .cls-47 {
        fill: #2a3554;
        opacity: 0.2;
      }

      .cls-48 {
        fill: url(#linear-gradient-24);
      }

      .cls-49 {
        fill: #0cf;
      }

      .cls-50 {
        fill: #ff56a9;
      }

      .cls-51 {
        fill: #e3eaff;
      }

      .cls-52 {
        fill: #33479e;
      }

      .cls-53 {
        fill: #f9fbfc;
      }
    </style>
    <linearGradient id="linear-gradient" x1="600.81506" y1="327.26949" x2="643.19211" y2="327.26949" gradientUnits="userSpaceOnUse">
      <stop offset="0" stop-color="#e96094"/>
      <stop offset="0.12748" stop-color="#ec76a2"/>
      <stop offset="0.3906" stop-color="#f19dbd"/>
      <stop offset="0.63255" stop-color="#f5b9cf"/>
      <stop offset="0.84349" stop-color="#f7cadb"/>
      <stop offset="1" stop-color="#f8d0df"/>
    </linearGradient>
    <linearGradient id="linear-gradient-2" x1="578.0623" y1="352.87659" x2="675.25102" y2="352.87659" xlink:href="#linear-gradient"/>
    <linearGradient id="linear-gradient-3" x1="211.9305" y1="252.59793" x2="254.30755" y2="252.59793" xlink:href="#linear-gradient"/>
    <linearGradient id="linear-gradient-4" x1="179.8717" y1="278.20495" x2="277.06044" y2="278.20495" xlink:href="#linear-gradient"/>
    <linearGradient id="linear-gradient-5" x1="622.84487" y1="-33.96891" x2="622.84487" y2="-20.01315" gradientTransform="matrix(1, 0, 0, -1, -192.66418, 444.60164)" gradientUnits="userSpaceOnUse">
      <stop offset="0" stop-color="gray" stop-opacity="0.25"/>
      <stop offset="0.54" stop-color="gray" stop-opacity="0.12"/>
      <stop offset="1" stop-color="gray" stop-opacity="0.1"/>
    </linearGradient>
    <linearGradient id="linear-gradient-6" x1="512.12965" y1="224.436" x2="578.30995" y2="224.436" xlink:href="#linear-gradient"/>
    <linearGradient id="linear-gradient-7" x1="512.12965" y1="228.71104" x2="545.215" y2="228.71104" xlink:href="#linear-gradient"/>
    <linearGradient id="linear-gradient-8" x1="376.65948" y1="224.44099" x2="492.3872" y2="224.44099" xlink:href="#linear-gradient"/>
    <linearGradient id="linear-gradient-9" x1="280.69855" y1="294.5872" x2="363.75071" y2="294.5872" xlink:href="#linear-gradient"/>
    <linearGradient id="linear-gradient-10" x1="504.69429" y1="295.0678" x2="578.60788" y2="295.0678" gradientTransform="translate(1083.30217 590.1356) rotate(-180)" xlink:href="#linear-gradient"/>
    <clipPath id="clip-path">
      <path class="cls-1" d="M287.84522,194.60311h68.75873a7.14676,7.14676,0,0,1,7.14676,7.14676V255.1121a7.14679,7.14679,0,0,1-7.14679,7.14679h-68.7587a7.14667,7.14667,0,0,1-7.14667-7.14667V201.74977A7.14667,7.14667,0,0,1,287.84522,194.60311Z"/>
    </clipPath>
    <linearGradient id="linear-gradient-11" x1="280.69855" y1="228.431" x2="363.75071" y2="228.431" xlink:href="#linear-gradient"/>
    <linearGradient id="linear-gradient-12" x1="390.9824" y1="292.7228" x2="478.06428" y2="292.7228" xlink:href="#linear-gradient"/>
    <linearGradient id="linear-gradient-13" x1="450.06398" y1="387.12475" x2="517.48288" y2="387.12475" gradientUnits="userSpaceOnUse">
      <stop offset="0" stop-color="#6eafff"/>
      <stop offset="1" stop-color="#3859e0"/>
    </linearGradient>
    <linearGradient id="linear-gradient-14" x1="468.07808" y1="163.15175" x2="483.10501" y2="168.88915" gradientTransform="translate(-0.01 66)" gradientUnits="userSpaceOnUse">
      <stop offset="0" stop-opacity="0"/>
      <stop offset="0.91" stop-opacity="0.8"/>
      <stop offset="1"/>
    </linearGradient>
    <linearGradient id="linear-gradient-15" x1="453.28397" y1="200.07415" x2="499.65074" y2="197.49322" gradientTransform="translate(-0.27 49.92999)" gradientUnits="userSpaceOnUse">
      <stop offset="0.36" stop-color="#00272e"/>
      <stop offset="0.85196" stop-color="#4058df" stop-opacity="0.04"/>
      <stop offset="1" stop-color="#4058df" stop-opacity="0.11"/>
      <stop offset="1" stop-color="#4058df" stop-opacity="0"/>
    </linearGradient>
    <linearGradient id="linear-gradient-16" x1="194.77559" y1="147.45935" x2="227.15836" y2="147.45935" xlink:href="#linear-gradient"/>
    <linearGradient id="linear-gradient-17" x1="189.0722" y1="416.77005" x2="225.34444" y2="416.77005" xlink:href="#linear-gradient"/>
    <linearGradient id="linear-gradient-18" x1="387.74121" y1="105.29577" x2="420.12398" y2="105.29577" xlink:href="#linear-gradient"/>
    <linearGradient id="linear-gradient-19" x1="576.67144" y1="431.26067" x2="609.05421" y2="431.26067" xlink:href="#linear-gradient"/>
    <linearGradient id="linear-gradient-20" x1="294.73042" y1="488.07795" x2="298.52045" y2="488.07795" xlink:href="#linear-gradient-13"/>
    <linearGradient id="linear-gradient-21" x1="349.55352" y1="488.07795" x2="353.34356" y2="488.07795" xlink:href="#linear-gradient-13"/>
    <linearGradient id="linear-gradient-22" x1="298.52045" y1="475.65159" x2="349.55352" y2="475.65159" xlink:href="#linear-gradient-13"/>
    <linearGradient id="linear-gradient-23" x1="289.2599" y1="450.63876" x2="358.81417" y2="450.63876" xlink:href="#linear-gradient-13"/>
    <linearGradient id="linear-gradient-24" x1="541.48288" y1="188.63009" x2="653.67159" y2="188.63009" xlink:href="#linear-gradient-13"/>
  </defs>
  <g id="Cloud_Background" data-name="Cloud Background">
    <path class="cls-2" d="M694.71331,0h-148.569c-23.73665,13.87231-51.92113,58.22284-59.5551,82.6485-13.02414,41.67156-41.66167,70.60668-56.19888,78.33734-37.99063,20.20263-80.81,15.32537-121.9521,24.72607-44.57514,10.18512-86.13006,36.37475-105.75158,75.12957-18.97509,37.47815-13.44254,68.89423-24.45542,107.468-11.18142,39.16363-51.3324,69.56579-89.4601,83.74328C48.36745,467.07665,9.29143,478.36626,1.9136,520.82549-1.88286,542.67436.11029,565.32841,6.64514,587H694.71331a20.39855,20.39855,0,0,0,20.39288-20.40429V20.4043A20.39859,20.39859,0,0,0,694.71331,0Z"/>
  </g>
  <g id="Elements">
    <g id="Base">
      <path class="cls-2" d="M532.77162,553.59464c0,3.33848-16.25064,6.04481-36.29674,6.04481s-36.29666-2.70633-36.29666-6.04481,16.25056-6.04491,36.29666-6.04491S532.77162,550.25616,532.77162,553.59464Z"/>
      <ellipse id="_Path_" data-name="&lt;Path&gt;" class="cls-2" cx="413.8821" cy="468.8325" rx="184.97614" ry="34.61148"/>
      <path class="cls-2" d="M368.56713,522.62115c0,3.33848-20.63272,6.04481-46.08437,6.04481s-46.08427-2.70633-46.08427-6.04481,20.63262-6.04491,46.08427-6.04491S368.56713,519.28267,368.56713,522.62115Z"/>
    </g>
    <g id="Leaf">
      <g>
        <g>
          <path class="cls-3" d="M600.81506,365.62407l2.54348.46768,1.34949.24742,3.82225.70136s48.38957-51.55326,30.81984-75.87248c-5.40852-7.48675-18.32619-5.19668-21.89026,22.815C614.1554,339.94893,600.81506,365.62407,600.81506,365.62407Z"/>
          <g class="cls-4">
            <path class="cls-5" d="M603.35854,366.09175l1.34949.24742c9.35348-13.02463,15.92139-27.79982,19.89718-38.31324a192.64988,192.64988,0,0,0,6.93347-21.91941.62.62,0,0,0-1.2076-.28156,191.45194,191.45194,0,0,1-6.89359,21.78162C619.44054,338.17122,612.81156,353.06535,603.35854,366.09175Z"/>
          </g>
        </g>
        <g>
          <path class="cls-6" d="M578.0623,391.19834l3.033,2.19551,1.60955,1.1636,4.55874,3.297S682.61273,360.612,674.79531,317.886c-2.40635-13.15322-20.71546-18.205-42.81853,16.18543C611.48713,365.95009,578.0623,391.19834,578.0623,391.19834Z"/>
          <g class="cls-4">
            <path class="cls-5" d="M581.09527,393.39385l1.60955,1.1636c20.33613-11.19759,38.12169-26.41773,49.86533-37.68249a278.86346,278.86346,0,0,0,22.71244-24.32975.89756.89756,0,0,0-1.40293-1.11993,277.14841,277.14841,0,0,1-22.57476,24.17423C619.50184,366.91815,601.56242,382.25568,581.09527,393.39385Z"/>
          </g>
        </g>
      </g>
      <g>
        <g>
          <path class="cls-7" d="M254.30755,290.95252l-2.54347.46757-1.3495.24753-3.82225.70135s-48.38957-51.55325-30.81983-75.87247c5.40852-7.48675,18.32629-5.19669,21.89025,22.81486C240.96721,265.27726,254.30755,290.95252,254.30755,290.95252Z"/>
          <g class="cls-4">
            <path class="cls-5" d="M251.76408,291.42009l-1.3495.24753c-9.35348-13.02475-15.92138-27.79993-19.89715-38.31335a192.63681,192.63681,0,0,1-6.9335-21.91941.62.62,0,0,1,1.20761-.28145,191.45891,191.45891,0,0,0,6.89358,21.78151C235.68207,263.49966,242.31106,278.39379,251.76408,291.42009Z"/>
          </g>
        </g>
        <g>
          <path class="cls-8" d="M277.06044,316.52668l-3.0331,2.19551-1.60955,1.1636-4.55874,3.297S172.51,285.9404,180.32741,243.2143c2.40624-13.15322,20.71535-18.20491,42.81844,16.18555C243.63551,291.27842,277.06044,316.52668,277.06044,316.52668Z"/>
          <g class="cls-4">
            <path class="cls-5" d="M274.02734,318.72219l-1.60955,1.1636c-20.33613-11.19748-38.12169-26.41773-49.86533-37.6825A278.86246,278.86246,0,0,1,199.84,257.87354a.89755.89755,0,0,1,1.40292-1.11992A277.13978,277.13978,0,0,0,223.81771,280.928C235.62077,292.24648,253.56019,307.58412,274.02734,318.72219Z"/>
          </g>
        </g>
      </g>
    </g>
    <g id="Desktop">
      <path class="cls-9" d="M478.38258,376.4624s9.64184,66.05288,66.05284,88.00052l-114.202.156-114.202.156c56.351-22.09763,65.82487-88.19849,65.82487-88.19849Z"/>
      <rect class="cls-10" x="314.90515" y="464.6148" width="230.55229" height="13.95578" transform="translate(-0.65805 0.60111) rotate(-0.08)"/>
      <rect class="cls-11" x="316.04891" y="464.61471" width="228.39829" height="10.76383" transform="translate(-0.65582 0.6012) rotate(-0.08)"/>
      <path class="cls-11" d="M615.5282,138.78849l-371.44164.51a7.62049,7.62049,0,0,0-7.43388,7.79986l.288,216.71029v7.19987c0,16.46372,12.79777,29.79548,28.5295,29.77149l329.35237-.456c15.73771,0,28.47552-13.38577,28.4515-29.84949v-7.19987l-.288-216.71029A7.62293,7.62293,0,0,0,615.5282,138.78849Z"/>
      <path class="cls-9" d="M247.63253,145.86837H611.73026a6.44989,6.44989,0,0,1,6.44989,6.44989h0V359.48271H241.17663V152.31826a6.44989,6.44989,0,0,1,6.44989-6.44989h.006Z"/>
      <path class="cls-12" d="M593.95259,393.92212l-327.59438.45a24.68956,24.68956,0,0,1-24.75552-24.62345l-.00006-.03014V359.1767l377.00352-.522v10.54783A24.68959,24.68959,0,0,1,593.95259,393.92212Z"/>
      <rect id="Background" class="cls-5" x="260.09098" y="162.5912" width="341.16648" height="172.4432" transform="translate(-0.34699 0.60158) rotate(-0.08)"/>
      <g>
        <g>
          <path class="cls-13" d="M578.31,224.44106a33.062,33.062,0,1,0-2.2384,11.98159A32.92341,32.92341,0,0,0,578.31,224.44106Zm-13.668,0a19.16312,19.16312,0,0,1-1.36067,7.13958A19.39971,19.39971,0,0,1,545.215,243.868c-.16769,0-.33537-.00986-.49318-.0196a19.42039,19.42039,0,1,1,17.30691-29.13093A19.19584,19.19584,0,0,1,564.64194,224.44106Z"/>
          <path class="cls-14" d="M545.215,257.52627V243.868c-.16769,0-.33537-.00986-.49318-.0196a19.41065,19.41065,0,0,1-12.59313-33.75581l-9.0922-10.19679A33.08124,33.08124,0,0,0,545.215,257.52627Z"/>
          <path class="cls-15" d="M578.30717,224.43979a32.97379,32.97379,0,0,0-4.53042-16.728l-11.75081,7.004a19.41736,19.41736,0,0,1,1.25938,16.86217l12.78636,4.84326A32.98533,32.98533,0,0,0,578.30717,224.43979Z"/>
          <path class="cls-16" d="M573.77675,207.7118a33.088,33.088,0,0,0-50.74291-7.81625l9.09788,10.19312a19.411,19.411,0,0,1,29.89422,4.62715Z"/>
        </g>
        <path class="cls-17" d="M380.6675,199.88227H488.37917a4.00794,4.00794,0,0,1,4.008,4.0079h0a4.00809,4.00809,0,0,1-4.00815,4.008H380.6675a4.00806,4.00806,0,0,1-4.008-4.008h0A4.00794,4.00794,0,0,1,380.6675,199.88227Zm0,21.71656H488.3793a4.00792,4.00792,0,0,0,4.0079-4.0079v-.00013a4.00805,4.00805,0,0,0-4.008-4.008H380.6675a4.008,4.008,0,0,0-4.008,4.008h0A4.00814,4.00814,0,0,0,380.6675,221.59883Zm-.00012,13.70038H488.3793a4.00792,4.00792,0,0,0,4.0079-4.0079h0a4.008,4.008,0,0,0-4.008-4.0079H380.6675a4.008,4.008,0,0,0-4.008,4.0079h0A4.00792,4.00792,0,0,0,380.66738,235.29921Zm.00012,13.70051H488.3793a4.00792,4.00792,0,0,0,4.0079-4.0079v-.00026a4.00789,4.00789,0,0,0-4.0079-4.00777H380.6675a4.00794,4.00794,0,0,0-4.008,4.0079h0A4.008,4.008,0,0,0,380.6675,248.99972Z"/>
        <path class="cls-18" d="M280.69855,274.09632v-.11963a3.9388,3.9388,0,0,1,3.93731-3.94808c13.98705-.00013,61.19046-.00013,75.17752-.00013a3.9386,3.9386,0,0,1,3.93733,3.94783v.12026a3.94788,3.94788,0,0,1-3.94821,3.94784H284.64673A3.94815,3.94815,0,0,1,280.69855,274.09632Zm79.104,9.63267-75.15577.00012a3.94818,3.94818,0,0,0-3.94818,3.94822v.1195a3.94815,3.94815,0,0,0,3.94818,3.94808H359.8025a3.94809,3.94809,0,0,0,3.94821-3.94808v-.11963A3.9482,3.9482,0,0,0,359.8025,283.729Zm-79.10395,17.64884v.11938a3.94817,3.94817,0,0,0,3.94818,3.94821H359.8025a3.94809,3.94809,0,0,0,3.94821-3.94809v-.1195a3.94812,3.94812,0,0,0-3.94821-3.94821H284.64673A3.94817,3.94817,0,0,0,280.69855,301.37783Zm4.008,17.7681h75.03626a4.00792,4.00792,0,0,0,4.0079-4.0079h0a4.00794,4.00794,0,0,0-4.0079-4.008H284.70655a4.008,4.008,0,0,0-4.008,4.008h0A4.00794,4.00794,0,0,0,284.70655,319.14593Z"/>
        <rect class="cls-19" x="504.69429" y="267.68854" width="73.91359" height="54.75853" rx="10.25205" transform="translate(1083.30217 590.1356) rotate(180)"/>
        <g class="cls-20">
          <path class="cls-21" d="M287.84522,194.60311h68.75873a7.14676,7.14676,0,0,1,7.14676,7.14676V255.1121a7.14679,7.14679,0,0,1-7.14679,7.14679h-68.7587a7.14667,7.14667,0,0,1-7.14667-7.14667V201.74977A7.14667,7.14667,0,0,1,287.84522,194.60311Z"/>
          <path class="cls-16" d="M303.59618,254.09729l40.02108-20.91306a6.92205,6.92205,0,0,1,6.96014.31943l37.21009,24.02261v6.86935H303.31241Z"/>
          <path class="cls-16" d="M276.936,246.99159,303.64234,225.427a6.92189,6.92189,0,0,1,8.37433-.24532l52.99064,37.88612H275.328Z"/>
          <circle class="cls-16" cx="332.37266" cy="212.25145" r="7.79033"/>
        </g>
        <path class="cls-22" d="M443.211,290.53448h7.4819a3.93277,3.93277,0,0,1,3.93279,3.93265v23.89641a3.93269,3.93269,0,0,1-3.93279,3.93266H443.211a3.93268,3.93268,0,0,1-3.93278-3.93266V294.46713A3.93276,3.93276,0,0,1,443.211,290.53448Zm23.23758-9.70943h7.884a3.73171,3.73171,0,0,1,3.73172,3.73172v34.00771a3.73171,3.73171,0,0,1-3.73172,3.73172h-7.884a3.7317,3.7317,0,0,1-3.73172-3.73172V284.55677A3.7317,3.7317,0,0,1,466.44853,280.825Zm-51.3182,2.73234v34.99786a3.741,3.741,0,0,0,3.74095,3.74095h7.86545a3.741,3.741,0,0,0,3.74107-3.74095l-.00012-34.99786a3.741,3.741,0,0,0-3.74095-3.74095h-7.86545A3.741,3.741,0,0,0,415.13033,283.55739Zm-12.54141-20.408h-7.86557a3.741,3.741,0,0,0-3.74095,3.74107l.00013,51.66478a3.741,3.741,0,0,0,3.74108,3.74095h7.86531a3.741,3.741,0,0,0,3.741-3.74095v-51.6649A3.74082,3.74082,0,0,0,402.58892,263.1494Z"/>
        <path class="cls-16" d="M533.54487,308.30763V281.82785a2.66716,2.66716,0,0,1,4.13132-2.22942l19.90571,13.07265a2.66718,2.66718,0,0,1,.02579,4.44164l-19.90558,13.40713A2.66721,2.66721,0,0,1,533.54487,308.30763Z"/>
        <polygon class="cls-23" points="601.137 162.353 601.378 182.704 259.971 182.704 259.971 162.829 259.971 162.829 601.137 162.353 601.137 162.353"/>
        <g>
          <path class="cls-5" d="M575.0509,173.97344a2.77435,2.77435,0,1,1-2.77423-2.77434A2.77434,2.77434,0,0,1,575.0509,173.97344Z"/>
          <path class="cls-5" d="M584.04285,173.97344a2.77451,2.77451,0,1,1-2.77457-2.77434A2.77469,2.77469,0,0,1,584.04285,173.97344Z"/>
          <path class="cls-5" d="M592.59984,173.97344a2.77435,2.77435,0,1,1-2.77424-2.77434A2.77462,2.77462,0,0,1,592.59984,173.97344Z"/>
        </g>
        <path class="cls-24" d="M337.82187,170.32245H518.91553a.831.831,0,0,1,.831.831v3.75486a.83094.83094,0,0,1-.83094.83094H337.822a.831.831,0,0,1-.831-.831v-3.75488A.83094.83094,0,0,1,337.82187,170.32245Z"/>
        <path class="cls-9" d="M293.35092,173.03082v2.00773a.7481.7481,0,0,1-1.12216.64788L290.49,174.68256l-1.73876-1.004a.748.748,0,0,1,0-1.29564l1.73876-1.00376,1.73876-1.004a.748.748,0,0,1,1.12216.64776Z"/>
        <path class="cls-9" d="M302.39861,173.03082v2.00773a.7481.7481,0,0,0,1.12217.64788l1.73876-1.00387,1.73875-1.004a.74808.74808,0,0,0,0-1.29564l-1.73875-1.00376-1.73876-1.004a.748.748,0,0,0-1.12217.64776Z"/>
      </g>
    </g>
    <g id="Working_Men" data-name="Working Men">
      <g id="v3.v1">
        <g id="build-pixels-copy">
          <path class="cls-25" d="M508.89479,553.59459h8.58809L491.01714,220.6549,483.76,222.60633l1.64566,21.75354-26.07906,1.64568-2.0054-25.35065-7.25718,1.95143,25.10788,330.98826H483.76l-2.99459-37.76967,25.17979-1.54676-.37771-5.9802-25.27869,1.55576-2.14929-26.97834,25.84524-1.63669-.36871-5.96222-25.94417,1.60072-2.14026-27.0323,25.34165-1.60971ZM459.80321,251.94078l26.07906-1.66367,2.05035,27.03229-25.96215,1.67267Zm2.6169,32.96753,25.94417-1.66367,2.05036,27.14921-25.81827,1.61869ZM465.055,317.9388l25.80929-1.65467,2.19424,28.85783-25.76431,1.56474Zm2.75179,34.71214,25.70135-1.53776,1.90646,25.17979-25.60241,1.60968Zm2.473,31.22293,25.58447-1.62769,2.05035,27.06827-25.48553,1.60972Zm4.77516,60.04478-2.15826-27.06827,25.47654-1.62769,2.05035,27.08625Z"/>
          <path class="cls-26" d="M496.43081,309.17084l-.6115,5.4856H483.14846s-1.03417-3.16544,1.277-3.95681a21.58228,21.58228,0,0,1,3.90287-.98021Z"/>
          <path class="cls-27" d="M478.76,195.55605a41.19613,41.19613,0,0,0,.89928,14.68521,6.4838,6.4838,0,0,0,6.0881,2.437v3.65107h6.06116l2.58992-18.28233S484.85708,185.87084,478.76,195.55605Z"/>
          <path class="cls-28" d="M483.03155,197.38158a18.07553,18.07553,0,0,1,1.79855,6.09711s1.214-2.437,1.79856-1.223-1.214,3.66007-1.214,3.66007l1.79855,3.03956h6.16006s3.04857-13.33629,1.33992-15.17082-2.8597-1.79855-2.8597-1.79855,0-1.79856-3.66007-1.79856-8.52516,0-10.3507,3.04855-2.437,1.79856-2.437,1.79856,1.03416,2.25718,2.6169,1.70862C478.40027,196.65317,482.42,195.55605,483.03155,197.38158Z"/>
          <path class="cls-29" d="M485.76536,216.32938h10.24279s4.32552.89927,4.928,11.268a204.60086,204.60086,0,0,1,0,21.26792V265.8616l-4.928-1.64568-18.28231,4.08271-1.79856-24.919a13.18337,13.18337,0,0,1-9.40644-5.82731,15.13489,15.13489,0,0,1-1.58274-13.705l12.72478,6.69962.67446-3.59711a15.28777,15.28777,0,0,1,6.0881-9.69422Z"/>
          <polygon class="cls-30" points="466.638 220.475 463.598 210.727 475.72 208.892 479.803 222.175 477.663 230.547 470.397 226.761 466.638 220.475"/>
          <path class="cls-27" d="M464.20066,225.92467a9.59528,9.59528,0,0,1,2.437-5.4766l.6115.60252h3.87591l.61151,2.38308-1.40288,2.00538A5.28772,5.28772,0,0,1,464.20066,225.92467Z"/>
          <polygon class="cls-31" points="470.397 226.761 473.283 234.423 477.663 230.547 470.397 226.761"/>
          <path class="cls-32" d="M475.72041,242.948s9.79315-3.66006,9.79315-9.74817l2.446,27.97654-10.36868,2.455Z"/>
          <polygon class="cls-33" points="477.546 263.604 475.72 293.946 478.157 309.782 485.469 309.782 486.683 283.649 490.945 272.678 487.906 309.782 496.431 310.394 500.63 261.167 495.819 259.342 477.546 263.604"/>
          <path class="cls-26" d="M485.0999,309.78234v6.07013l-12.85069-4.58632s0-3.35432,2.491-3.35432a20.76442,20.76442,0,0,1,4.01977.36871Z"/>
        </g>
      </g>
    </g>
    <g id="Icons">
      <path class="cls-34" d="M635.91644,414.01457a3.65514,3.65514,0,1,1-3.655-3.65526A3.65494,3.65494,0,0,1,635.91644,414.01457Z"/>
      <path class="cls-35" d="M658.46188,452.25506h-4.07746v-4.07815a1.19231,1.19231,0,0,0-2.38462,0v4.07815h-4.07745a1.19226,1.19226,0,1,0,0,2.38452h4.07745v4.07735a1.19231,1.19231,0,1,0,2.38462,0v-4.07735h4.07746a1.19226,1.19226,0,1,0,0-2.38452Z"/>
      <path class="cls-34" d="M199.10411,369.85536a3.65514,3.65514,0,1,1-3.655-3.65526A3.65494,3.65494,0,0,1,199.10411,369.85536Z"/>
      <path class="cls-35" d="M224.03416,330.26391H219.9567v-4.07815a1.19231,1.19231,0,0,0-2.38461,0v4.07815h-4.07746a1.19226,1.19226,0,1,0,0,2.38451h4.07746v4.07736a1.19231,1.19231,0,1,0,2.38461,0v-4.07736h4.07746a1.19226,1.19226,0,1,0,0-2.38451Z"/>
      <path class="cls-35" d="M337.27216,121.511H333.1947v-4.07814a1.19231,1.19231,0,0,0-2.38461,0V121.511h-4.07746a1.19226,1.19226,0,1,0,0,2.38452h4.07746v4.07736a1.19231,1.19231,0,1,0,2.38461,0v-4.07736h4.07746a1.19226,1.19226,0,1,0,0-2.38452Z"/>
      <g>
        <path class="cls-36" d="M227.15836,134.30867V160.61a3.03245,3.03245,0,0,1-3.03548,3.03562h-26.3118a3.03708,3.03708,0,0,1-2.67178-1.58022,2.02609,2.02609,0,0,1-.13512-.31189c-.052-.15588-.10391-.31175-.15587-.47808,0-.02089-.01045-.03134-.01045-.05209s-.01031-.052-.01031-.07272a3.05962,3.05962,0,0,1-.052-.54062V134.30867a3.04276,3.04276,0,0,1,2.71315-3.02517c.10405,0,.21842-.01045.32234-.01045h26.3118a2.82424,2.82424,0,0,1,.894.13512h.01043A3.0263,3.0263,0,0,1,227.15836,134.30867Z"/>
        <path class="cls-37" d="M205.64456,146.48265c1.21055-.0374,2.33232.48781,2.56685,1.23983.23286.75521-.59382,1.46977-1.90475,1.53046-1.31047.06234-2.51782-.57531-2.64782-1.351-.13178-.77531.77615-1.38067,1.98572-1.41928Zm15.32555-1.48662h0a14.61934,14.61934,0,0,0-5.91263-4.44031,18.015,18.015,0,0,0-7.005-1.53683c-2.91809-.0194-6.1603.95-3.65115,2.53952,1.3129.83224,2.177,1.26606,1.84992,2.18994-.32853.92522-1.54462.94321-3.0687.13785-3.1022-1.64131-4.59966.55635-3.564,3.64936,1.26606,3.78466,6.39993,9.17086,15.50347,8.40034,3.89059-.33038,6.40695-2.08624,7.2822-4.3936a6.99859,6.99859,0,0,0-1.434-6.54627Zm-10.15823,4.53457h0a3.25681,3.25681,0,0,1,3.09945,1.41284c.38482.88387-.43478,1.75516-1.9138,1.85292-1.479.09956-2.96034-.64231-3.22364-1.55853-.26523-.91513.67767-1.64016,2.038-1.70723Zm-.11347-7.77474h0c.25744.53287-.36969,1.01054-1.44844,1.02477-1.07762.01423-2.13353-.45182-2.32077-.99522-.18577-.54321.50989-.95106,1.51616-.9533a2.62578,2.62578,0,0,1,2.25305.92375Zm4.67535,4.27254h0c-.36076-.6464.13331-1.14839,1.05885-1.17053a3.03274,3.03274,0,0,1,2.40775,1.06491c.42693.6307.01486,1.21807-.97512,1.25553a2.99107,2.99107,0,0,1-2.49148-1.14991Zm.77237,2.31106h0a3.13863,3.13863,0,0,1,2.67718,1.22075c.44921.74711-.059,1.46077-1.1958,1.52778a3.0976,3.0976,0,0,1-2.77967-1.32637C214.48071,148.99377,215.08709,148.38592,216.14613,148.33946Z"/>
      </g>
      <g>
        <path class="cls-38" d="M225.34444,402.03989v29.46033a3.39675,3.39675,0,0,1-3.40015,3.40015H192.47235a3.40186,3.40186,0,0,1-2.99256-1.76994,2.25729,2.25729,0,0,1-.15134-.3494c-.05833-.17471-.11652-.34926-.17471-.53557,0-.02336-.0116-.035-.0116-.05833,0-.02322-.01176-.05819-.01176-.0814a3.456,3.456,0,0,1-.05818-.60551V402.03989a3.4085,3.4085,0,0,1,3.03914-3.38855c.11652,0,.24464-.01161.361-.01161h29.47194a3.16163,3.16163,0,0,1,1.00134.15134h.01176A3.38992,3.38992,0,0,1,225.34444,402.03989Z"/>
        <g>
          <path class="cls-24" d="M215.62165,418.17021c-2.66841-4.99177-5.5462-9.53837-7.87624-15.13072v8.09476a1.8528,1.8528,0,1,1-1.07723,0v-8.09476c-2.32684,5.59235-4.339,7.8092-7.87319,15.13072l5.61716,5.67868h5.51442Z"/>
          <rect class="cls-24" x="204.39257" y="425.64437" width="5.52124" height="3.02638"/>
        </g>
      </g>
      <path class="cls-39" d="M420.124,92.14509v26.30136a3.03246,3.03246,0,0,1-3.03548,3.03562H390.77669a3.03707,3.03707,0,0,1-2.67177-1.58022,2.02456,2.02456,0,0,1-.13512-.31189c-.052-.15588-.10392-.31175-.15588-.47808,0-.02089-.01044-.03134-.01044-.05209s-.01031-.052-.01031-.07272a3.05962,3.05962,0,0,1-.052-.54062V92.14509a3.04276,3.04276,0,0,1,2.71315-3.02517c.104,0,.21842-.01045.32233-.01045H417.0885a2.82424,2.82424,0,0,1,.894.13512h.01043A3.02631,3.02631,0,0,1,420.124,92.14509Z"/>
      <g>
        <path class="cls-24" d="M403.96222,93.58332q-.09713-.00042-.19327.00206a6.69149,6.69149,0,0,0-5.61653,10.05821c.92523,1.583,1.8051,3.19192,2.60373,4.84224l.72234,1.49224h4.90821l.4943-1.025c.87643-1.818,1.84015-3.59178,2.84951-5.33956a6.692,6.692,0,0,0-5.76829-10.03017Z"/>
        <path class="cls-24" d="M406.4017,111.84241h-4.93v1.64909a2.4648,2.4648,0,0,0,2.4649,2.46476h0a2.46493,2.46493,0,0,0,2.46505-2.46476Z"/>
      </g>
      <g>
        <path class="cls-40" d="M609.05421,418.11v26.30136a3.03245,3.03245,0,0,1-3.03548,3.03562h-26.3118a3.03707,3.03707,0,0,1-2.67177-1.58021,2.02571,2.02571,0,0,1-.13513-.3119c-.052-.15587-.10391-.31175-.15587-.47808,0-.02089-.01045-.03134-.01045-.05209s-.01031-.052-.01031-.07272a3.05962,3.05962,0,0,1-.052-.54062V418.11a3.04276,3.04276,0,0,1,2.71315-3.02517c.10405,0,.21842-.01045.32234-.01045h26.3118a2.82424,2.82424,0,0,1,.894.13512h.01043A3.0263,3.0263,0,0,1,609.05421,418.11Z"/>
        <path class="cls-37" d="M590.84873,428.1874A3.87434,3.87434,0,0,1,596.774,431.046a3.83469,3.83469,0,0,1-1.77222,3.67134,3.87449,3.87449,0,0,1-5.92444-2.85862,3.833,3.833,0,0,1,1.77137-3.67134Zm-9.14975,5.32637,1.15528,3.31126,3.4397-1.20122a7.80941,7.80941,0,0,0,1.73464,1.9416l-1.58363,3.28308,3.15888,1.52424,1.58346-3.28308a7.81671,7.81671,0,0,0,2.59847.1489L594.987,442.679l3.31125-1.15655-1.20011-3.43935a7.79884,7.79884,0,0,0,1.94049-1.73482l3.28317,1.58372,1.52441-3.15872-3.28461-1.58363a7.75645,7.75645,0,0,0,.15026-2.59871l3.44046-1.20122-1.15655-3.31109-3.43918,1.2013a7.77575,7.77575,0,0,0-1.735-1.94159l1.58473-3.28359-3.15862-1.52289-1.58483,3.28326a7.77735,7.77735,0,0,0-2.59863-.15l-1.20122-3.44045-3.31083,1.15638,1.20123,3.44045a7.73726,7.73726,0,0,0-1.94076,1.735l-3.28461-1.58482-1.5227,3.15872,3.28307,1.58363a7.77712,7.77712,0,0,0-.14975,2.59846Z"/>
      </g>
    </g>
    <g id="Women">
      <g>
        <g>
          <g>
            <rect class="cls-41" x="294.73042" y="455.65321" width="3.79003" height="64.84949"/>
            <rect class="cls-42" x="349.55352" y="455.65321" width="3.79004" height="64.84949"/>
            <rect class="cls-43" x="298.52045" y="473.82419" width="51.03307" height="3.6548"/>
          </g>
          <path class="cls-44" d="M358.81417,456.65229H289.2599c1.14927-6.97794,6.684-12.04722,13.13531-12.027l21.64168.06332,21.64177-.06332C352.13,444.60507,357.6647,449.67435,358.81417,456.65229Z"/>
        </g>
        <g>
          <path class="cls-27" d="M307.00834,369.35484s-11.61647,15.49162-13.162,29.00208c-1.09162,9.54218,13.162,23.80137,13.162,23.80137l4.90932-2.44366-4.89416-11.03582c-1.74156-5.37466-3.88572-7.49927-2.30169-12.92229l3.54476-7.643A82.49563,82.49563,0,0,0,307.00834,369.35484Z"/>
          <path class="cls-27" d="M343.61327,369.1212s11.46539,16.51874,12.415,30.08412c.81869,11.69562-13.21682,22.953-13.21682,22.953l-4.05378-2.0178,5.61387-11.14976c1.74156-5.37466,2.56933-8.61591.195-14.46372l-3.01317-6.4135Z"/>
          <g>
            <path class="cls-5" d="M345.20648,430.62957c-10.19211,2.75568-43.5338-1.49511-43.5338-1.49511l7.70027-24.4982-.97719-14.56016-.127-1.97393-1.26057-18.74254c8.06183-3.342,13.04541-4.64166,20.92158-4.07489a49.48639,49.48639,0,0,1,15.68393,3.84036l-3.5862,34.82713Z"/>
            <path class="cls-45" d="M317.7083,376.74c7.35474-.86237,14.19733-5.91338,14.50819-6.14536a.41057.41057,0,0,0-.49115-.65805c-.08051.05971-8.13249,6-15.87682,6.1053a.41061.41061,0,0,0,.01093.82114A17.93834,17.93834,0,0,0,317.7083,376.74Z"/>
            <path class="cls-45" d="M321.64913,401.85957c6.97724-2.48041,12.52153-8.92987,12.77277-9.22528a.41056.41056,0,1,0-.6255-.532c-.06518.07612-6.59,7.66206-14.11593,9.49137a.41063.41063,0,0,0,.19378.79807A17.91953,17.91953,0,0,0,321.64913,401.85957Z"/>
          </g>
          <g>
            <polygon class="cls-27" points="323.634 507.973 324.235 513.382 329.988 513.513 330.469 509.025 323.634 507.973"/>
            <g>
              <path class="cls-33" d="M322.73155,422.22425s-14.89543-.8183-19.94087,3.30975c-5.04524,4.12795-4.031,15.97357,1.10912,19.20768,5.14022,3.23412,13.90115,9.58948,13.90115,9.58948l5.57311,55.40513,7.36431.25025s6.78525-55.65538,3.34532-66.4342C330.64358,432.77362,322.73155,422.22425,322.73155,422.22425Z"/>
              <path class="cls-33" d="M331.41791,507.2378a6.15232,6.15232,0,0,1-.19,3.79424l-8.47353-.18791a9.74736,9.74736,0,0,1-.16446-3.71656Z"/>
            </g>
          </g>
          <g>
            <path class="cls-23" d="M343.81076,421.80552h-39.089l-3.61228-21.12464a2.99522,2.99522,0,0,1,2.95248-3.5002h40.40855a2.99545,2.99545,0,0,1,2.95258,3.5002Z"/>
            <path class="cls-11" d="M304.72181,421.80552h39.12784a0,0,0,0,1,0,0v1.05527a3.53861,3.53861,0,0,1-3.53861,3.53861H308.26032a3.53851,3.53851,0,0,1-3.53851-3.53851v-1.05537A0,0,0,0,1,304.72181,421.80552Z"/>
            <path class="cls-24" d="M327.749,410.36446a3.39511,3.39511,0,1,1-3.39515-3.39515A3.3951,3.3951,0,0,1,327.749,410.36446Z"/>
          </g>
          <g>
            <polygon class="cls-27" points="299.202 492.762 297.927 498.114 303.089 499.134 305.192 494.355 299.202 492.762"/>
            <g>
              <path class="cls-46" d="M330.29961,421.30676s-9.976-3.43991-15.82415,3.78418c-5.848,7.22389-15.64055,68.20546-15.64055,68.20546l6.71321,2.77044L327.128,441.909s17.57411,10.02882,19.70283-4.22811C348.51535,426.3994,330.29961,421.30676,330.29961,421.30676Z"/>
              <path class="cls-46" d="M307.06932,493.27158a6.35576,6.35576,0,0,1-1.41048,3.66075l-8.25141-2.9174a10.06318,10.06318,0,0,1,1.0373-3.69887Z"/>
            </g>
          </g>
          <g>
            <path class="cls-26" d="M301.866,497.2338a31.3851,31.3851,0,0,0-4.04968-1.76882c-.92091-.18136-8.52649,5.21469-10.6812,5.162-3.90779-.09567-5.159,5.64211-2.93793,6.42308,6.424,2.25849,18.31346,1.97872,18.31346,1.97872s2.64008-7.1378,2.68982-9.54707C305.25008,497.07266,303.56315,498.314,301.866,497.2338Z"/>
            <g>
              <path class="cls-24" d="M295.03315,502.3324a.47605.47605,0,0,0,.36791.01133.453.453,0,0,0,.25974-.59462,7.14555,7.14555,0,0,0-2.06823-2.80825,3.27741,3.27741,0,0,0-3.2991-.31779.45194.45194,0,0,0-.1843.62169.47455.47455,0,0,0,.63518.18606,2.33953,2.33953,0,0,1,2.31829.2615,6.3136,6.3136,0,0,1,1.73022,2.39187A.46782.46782,0,0,0,295.03315,502.3324Z"/>
              <path class="cls-24" d="M296.59265,501.25045a.47463.47463,0,0,0,.36773.01124.45286.45286,0,0,0,.25993-.59463,7.14813,7.14813,0,0,0-2.06785-2.80854,3.27486,3.27486,0,0,0-3.29939-.31779.45186.45186,0,0,0-.1843.6216.474.474,0,0,0,.63518.186,2.34011,2.34011,0,0,1,2.31819.26169,6.28621,6.28621,0,0,1,1.73012,2.39177A.46721.46721,0,0,0,296.59265,501.25045Z"/>
              <path class="cls-24" d="M293.01661,503.1035a.47375.47375,0,0,0,.36772.01133.45306.45306,0,0,0,.25984-.59491,7.15225,7.15225,0,0,0-2.068-2.80855,3.27491,3.27491,0,0,0-3.29939-.31778.45209.45209,0,0,0-.18429.62169.47469.47469,0,0,0,.63527.18606,2.34,2.34,0,0,1,2.31829.26169,6.28485,6.28485,0,0,1,1.73012,2.39167A.46658.46658,0,0,0,293.01661,503.1035Z"/>
            </g>
          </g>
          <g>
            <path class="cls-26" d="M326.454,513.15509a29.95561,29.95561,0,0,1,4.09725-.98941c.89511-.01739,7.143,6.31325,9.17554,6.62146,3.68626.55885,3.90906,6.15572,1.69338,6.5205-6.40853,1.05508-17.52926-1.18113-17.52926-1.18113s-1.29508-7.14239-.942-9.41348C323.30214,512.44213,324.68056,513.88789,326.454,513.15509Z"/>
            <g>
              <path class="cls-24" d="M332.02553,519.078a.45386.45386,0,0,1-.34748-.05033.432.432,0,0,1-.14522-.60165,6.81525,6.81525,0,0,1,2.40868-2.29426,3.126,3.126,0,0,1,3.15135.249.431.431,0,0,1,.07.61456.45249.45249,0,0,1-.62745.06928,2.23111,2.23111,0,0,0-2.22085-.139,6.02327,6.02327,0,0,0-2.02222,1.95936A.4454.4454,0,0,1,332.02553,519.078Z"/>
              <path class="cls-24" d="M330.74033,517.803a.45354.45354,0,0,1-.3474-.05053.43205.43205,0,0,1-.1453-.60165,6.81744,6.81744,0,0,1,2.40848-2.29474,3.1236,3.1236,0,0,1,3.15164.24918.43091.43091,0,0,1,.06987.61446.45213.45213,0,0,1-.62745.06918,2.2318,2.2318,0,0,0-2.22077-.13885,5.99477,5.99477,0,0,0-2.022,1.95917A.44507.44507,0,0,1,330.74033,517.803Z"/>
              <path class="cls-24" d="M333.79161,520.137a.453.453,0,0,1-.34739-.05033.43226.43226,0,0,1-.14521-.60195,6.81887,6.81887,0,0,1,2.40858-2.29464,3.123,3.123,0,0,1,3.15164.24909.4312.4312,0,0,1,.06987.61446.45256.45256,0,0,1-.62756.06928,2.23185,2.23185,0,0,0-2.22086-.139,5.99377,5.99377,0,0,0-2.02191,1.95927A.44571.44571,0,0,1,333.79161,520.137Z"/>
            </g>
          </g>
          <g>
            <path class="cls-28" d="M335.1502,336.93075s4.74045,6.55539,4.22088,13.38359c-.51946,6.82812.69879,14.71037-6.145,14.364-6.84357-.34644-19.05054,2.44947-22.93059-2.86858C306.41558,356.49172,335.1502,336.93075,335.1502,336.93075Z"/>
            <g>
              <path class="cls-27" d="M329.43851,359.38055v6.11712s-1.82422,3.11529-4.29124,3.32744c-2.46448.215-4.65456-2.6823-4.65456-2.6823v-6.3321Z"/>
              <path class="cls-47" d="M329.43851,359.38055v2.71424c-4.23832,3.61908-4.76547,1.9199-8.94528.48721l-.00052-2.77129Z"/>
              <path class="cls-27" d="M335.88788,343.67062a59.53239,59.53239,0,0,1-.79338,7.72715c-.11336.59276-.24117,1.15074-.38365,1.65057-1.28735,4.5072-4.5072,12.23718-13.5216,9.01733-3.98127-1.421-5.8265-5.85562-6.64891-10.36576a43.59758,43.59758,0,0,1-.60156-8.36925,6.386,6.386,0,0,1,3.24027-5.43427c5.32081-3.01639,10.93527-1.89174,14.63169-.47071A6.36573,6.36573,0,0,1,335.88788,343.67062Z"/>
            </g>
            <path class="cls-28" d="M337.05787,346.036a.98885.98885,0,0,1-.69947.60691,23.67827,23.67827,0,0,1-.10525,2.43637c-.35862,4.7575-1.418,5.59287-1.6577,4.41669a62.20238,62.20238,0,0,1-.07232-6.72289,12.20267,12.20267,0,0,1-1.53917-.2185l-.97407-4.61893-.341,4.56159c-1.46119.576-4.87081-.34645-4.87081-.34645l-1.14351-4.55285-.70729,4.38061a7.24093,7.24093,0,0,1-4.93111.404l-.62931-4.725-1.45347,4.725s-4.67577,1.90008-4.72639,0a39.71564,39.71564,0,0,1,1.28765-6.6318,9.86319,9.86319,0,0,1,4.24738-6.10636,13.87963,13.87963,0,0,1,14.03744-.22735C337.241,336.43384,337.05787,346.036,337.05787,346.036Z"/>
            <path class="cls-28" d="M315.78216,337.20782a23.52584,23.52584,0,0,0-5.1158,11.3877c-1.26654,7.30035-3.01991,12.694,1.90728,15.10451,5.33285,2.609,4.87121-2.74164,4.79441-4.196-.07682-1.45422-4.613-5.4292-1.58589-16.62461C316.75954,339.26489,315.78216,337.20782,315.78216,337.20782Z"/>
          </g>
        </g>
      </g>
      <path class="cls-45" d="M310.17425,385.923a37.16622,37.16622,0,0,0-1.77849,4.15307l-.127-1.97393c.61563-1.4951,1.114-2.443,1.17263-2.56024a.413.413,0,0,1,.7329.3811Z"/>
      <path class="cls-45" d="M339.64352,385.923a37.15449,37.15449,0,0,1,1.80791,4.20046l.18812-1.82666c-.61563-1.4951-1.2045-2.63764-1.26313-2.7549a.413.413,0,1,0-.7329.3811Z"/>
    </g>
    <g id="Code">
      <path class="cls-48" d="M547.38759,116.087H647.76721a5.90438,5.90438,0,0,1,5.90438,5.90438V255.26846a5.9047,5.9047,0,0,1-5.9047,5.9047H547.38759a5.9047,5.9047,0,0,1-5.9047-5.9047V121.99171A5.9047,5.9047,0,0,1,547.38759,116.087Z"/>
      <g>
        <path class="cls-49" d="M566.54753,135.535h-7.47485c-.39733,0-.7195-.64726-.7195-1.44551h0c0-.79825.32217-1.44518.7195-1.44518h7.47485c.39733,0,.71949.64693.71949,1.44518h0C567.267,134.88769,566.94486,135.535,566.54753,135.535Z"/>
        <path class="cls-49" d="M612.82484,135.535H570.06659c-.39733,0-.71982-.64726-.71982-1.44551h0c0-.79825.32249-1.44518.71982-1.44518h42.75825c.39734,0,.71983.64693.71983,1.44518h0C613.54467,134.88769,613.22218,135.535,612.82484,135.535Z"/>
        <path class="cls-50" d="M583.70647,141.509H570.06659c-.39733,0-.71982-.64725-.71982-1.4455h0c0-.79825.32249-1.44518.71982-1.44518h13.63988c.39734,0,.7195.64693.7195,1.44518h0C584.426,140.86171,584.10381,141.509,583.70647,141.509Z"/>
        <path class="cls-51" d="M606.13946,141.509H586.48261c-.39733,0-.7195-.64725-.7195-1.4455h0c0-.79825.32217-1.44518.7195-1.44518h19.65685c.39738,0,.71983.64693.71983,1.44518h0C606.85929,140.86171,606.53684,141.509,606.13946,141.509Z"/>
        <path class="cls-51" d="M612.82484,170.59544H570.06659c-.39733,0-.71982-.64693-.71982-1.44518h0c0-.79825.32249-1.4455.71982-1.4455h42.75825c.39734,0,.71983.64725.71983,1.4455h0C613.54467,169.94851,613.22218,170.59544,612.82484,170.59544Z"/>
        <path class="cls-49" d="M566.54753,176.56946h-7.47485c-.39733,0-.7195-.64693-.7195-1.44518h0c0-.79825.32217-1.4455.7195-1.4455h7.47485c.39733,0,.71949.64725.71949,1.4455h0C567.267,175.92253,566.94486,176.56946,566.54753,176.56946Z"/>
        <path class="cls-51" d="M583.70647,176.56946H570.06659c-.39733,0-.71982-.64693-.71982-1.44518h0c0-.79825.32249-1.4455.71982-1.4455h13.63988c.39734,0,.7195.64725.7195,1.4455h0C584.426,175.92253,584.10381,176.56946,583.70647,176.56946Z"/>
        <path class="cls-50" d="M606.13946,176.56946H586.48261c-.39733,0-.7195-.64693-.7195-1.44518h0c0-.79825.32217-1.4455.7195-1.4455h19.65685c.39738,0,.71983.64725.71983,1.4455h0C606.85929,175.92253,606.53684,176.56946,606.13946,176.56946Z"/>
        <path class="cls-50" d="M623.42858,147.48265h-53.362c-.39733,0-.71982-.64693-.71982-1.44517h0c0-.79825.32249-1.44551.71982-1.44551h53.362c.39733,0,.71949.64726.71949,1.44551h0C624.14807,146.83572,623.82591,147.48265,623.42858,147.48265Z"/>
        <path class="cls-49" d="M599.82083,150.566H612.245a.76115.76115,0,0,1,.76115.76115v1.36806a.76148.76148,0,0,1-.76148.76148H599.82115a.76148.76148,0,0,1-.76148-.76148v-1.36806A.76115.76115,0,0,1,599.82083,150.566Z"/>
        <path class="cls-51" d="M587.79209,153.45667h-17.7255c-.39733,0-.71982-.64693-.71982-1.44518h0c0-.79825.32249-1.4455.71982-1.4455h17.7255c.39734,0,.7195.64725.7195,1.4455h0C588.51159,152.80974,588.18943,153.45667,587.79209,153.45667Z"/>
        <path class="cls-49" d="M597.22562,153.45667h-7.02869c-.39766,0-.71983-.64693-.71983-1.44518h0c0-.79825.32217-1.4455.71983-1.4455h7.02869c.39766,0,.71983.64725.71983,1.4455h0C597.94545,152.80974,597.62328,153.45667,597.22562,153.45667Z"/>
        <path class="cls-51" d="M566.54753,159.23186h-7.47485c-.39733,0-.7195-.64693-.7195-1.44518h0c0-.79858.32217-1.44551.7195-1.44551h7.47485c.39733,0,.71949.64693.71949,1.44551h0C567.267,158.58493,566.94486,159.23186,566.54753,159.23186Z"/>
        <path class="cls-51" d="M623.42858,159.23186h-53.362c-.39733,0-.71982-.64693-.71982-1.44518h0c0-.79858.32249-1.44551.71982-1.44551h53.362c.39733,0,.71949.64693.71949,1.44551h0C624.14807,158.58493,623.82591,159.23186,623.42858,159.23186Z"/>
        <path class="cls-51" d="M566.54753,182.10221h-7.47485c-.39733,0-.7195-.64693-.7195-1.44518h0c0-.79825.32217-1.4455.7195-1.4455h7.47485c.39733,0,.71949.64725.71949,1.4455h0C567.267,181.45528,566.94486,182.10221,566.54753,182.10221Z"/>
        <path class="cls-51" d="M599.9549,179.21153h17.50421a.89522.89522,0,0,1,.89522.89522v1.09991a.89555.89555,0,0,1-.89555.89555H599.95523a.89555.89555,0,0,1-.89555-.89555v-1.09991A.89522.89522,0,0,1,599.9549,179.21153Z"/>
        <path class="cls-51" d="M587.79209,182.10221h-17.7255c-.39733,0-.71982-.64693-.71982-1.44518h0c0-.79825.32249-1.4455.71982-1.4455h17.7255c.39734,0,.7195.64725.7195,1.4455h0C588.51159,181.45528,588.18943,182.10221,587.79209,182.10221Z"/>
        <path class="cls-51" d="M597.22562,182.10221h-7.02869c-.39766,0-.71983-.64693-.71983-1.44518h0c0-.79825.32217-1.4455.71983-1.4455h7.02869c.39766,0,.71983.64725.71983,1.4455h0C597.94545,181.45528,597.62328,182.10221,597.22562,182.10221Z"/>
        <path class="cls-52" d="M566.54753,187.8774h-7.47485c-.39733,0-.7195-.64693-.7195-1.44551h0c0-.79825.32217-1.44518.7195-1.44518h7.47485c.39733,0,.71949.64693.71949,1.44518h0C567.267,187.23047,566.94486,187.8774,566.54753,187.8774Z"/>
        <path class="cls-49" d="M579.3052,187.8774h-9.23861c-.39733,0-.71982-.64693-.71982-1.44551h0c0-.79825.32249-1.44518.71982-1.44518h9.23861c.3977,0,.71987.64693.71987,1.44518h0C580.02507,187.23047,579.7029,187.8774,579.3052,187.8774Z"/>
        <path class="cls-49" d="M559.07268,165.20588c-.39733,0-.7195-.64693-.7195-1.44518h0c0-.79825.32217-1.44551.7195-1.44551h7.47485c.39733,0,.71949.64726.71949,1.44551h0c0,.79825-.32216,1.44518-.71949,1.44518"/>
        <rect class="cls-51" x="599.05968" y="162.31519" width="21.80168" height="2.89068" rx="0.95185"/>
        <path class="cls-52" d="M587.79209,165.20588h-17.7255c-.39733,0-.71982-.64693-.71982-1.44518h0c0-.79825.32249-1.44551.71982-1.44551h17.7255c.39734,0,.7195.64726.7195,1.44551h0C588.51159,164.559,588.18943,165.20588,587.79209,165.20588Z"/>
        <path class="cls-52" d="M597.22562,165.20588h-7.02869c-.39766,0-.71983-.64693-.71983-1.44518h0c0-.79825.32217-1.44551.71983-1.44551h7.02869c.39766,0,.71983.64726.71983,1.44551h0C597.94545,164.559,597.62328,165.20588,597.22562,165.20588Z"/>
        <path class="cls-51" d="M612.82484,194.01933H570.06659c-.39733,0-.71982-.64726-.71982-1.4455h0c0-.79825.32249-1.44518.71982-1.44518h42.75825c.39734,0,.71983.64693.71983,1.44518h0C613.54467,193.37207,613.22218,194.01933,612.82484,194.01933Z"/>
        <path class="cls-51" d="M583.70647,199.99335H570.06659c-.39733,0-.71982-.64726-.71982-1.44551h0c0-.79825.32249-1.44518.71982-1.44518h13.63988c.39734,0,.7195.64693.7195,1.44518h0C584.426,199.34609,584.10381,199.99335,583.70647,199.99335Z"/>
        <path class="cls-51" d="M606.13946,199.99335H586.48261c-.39733,0-.7195-.64726-.7195-1.44551h0c0-.79825.32217-1.44518.7195-1.44518h19.65685c.39738,0,.71983.64693.71983,1.44518h0C606.85929,199.34609,606.53684,199.99335,606.13946,199.99335Z"/>
        <path class="cls-51" d="M612.82484,229.08015H570.06659c-.39733,0-.71982-.64725-.71982-1.4455h0c0-.79825.32249-1.44518.71982-1.44518h42.75825c.39734,0,.71983.64693.71983,1.44518h0C613.54467,228.4329,613.22218,229.08015,612.82484,229.08015Z"/>
        <path class="cls-50" d="M566.54753,235.05417h-7.47485c-.39733,0-.7195-.64726-.7195-1.44551h0c0-.79824.32217-1.44517.7195-1.44517h7.47485c.39733,0,.71949.64693.71949,1.44517h0C567.267,234.40691,566.94486,235.05417,566.54753,235.05417Z"/>
        <path class="cls-49" d="M583.70647,235.05417H570.06659c-.39733,0-.71982-.64726-.71982-1.44551h0c0-.79824.32249-1.44517.71982-1.44517h13.63988c.39734,0,.7195.64693.7195,1.44517h0C584.426,234.40691,584.10381,235.05417,583.70647,235.05417Z"/>
        <path class="cls-51" d="M606.13946,235.05417H586.48261c-.39733,0-.7195-.64726-.7195-1.44551h0c0-.79824.32217-1.44517.7195-1.44517h19.65685c.39738,0,.71983.64693.71983,1.44517h0C606.85929,234.40691,606.53684,235.05417,606.13946,235.05417Z"/>
        <path class="cls-50" d="M566.54753,205.96736h-7.47485c-.39733,0-.7195-.64725-.7195-1.4455h0c0-.79825.32217-1.44518.7195-1.44518h7.47485c.39733,0,.71949.64693.71949,1.44518h0C567.267,205.32011,566.94486,205.96736,566.54753,205.96736Z"/>
        <path class="cls-50" d="M570.21563,203.07668h38.0218a.86887.86887,0,0,1,.86887.86887v1.15328a.86854.86854,0,0,1-.86854.86854H570.21563a.86887.86887,0,0,1-.86887-.86887v-1.153A.86887.86887,0,0,1,570.21563,203.07668Z"/>
        <path class="cls-51" d="M566.54753,211.94138h-7.47485c-.39733,0-.7195-.64725-.7195-1.4455h0c0-.79825.32217-1.44518.7195-1.44518h7.47485c.39733,0,.71949.64693.71949,1.44518h0C567.267,211.29413,566.94486,211.94138,566.54753,211.94138Z"/>
        <path class="cls-51" d="M587.79209,211.94138h-17.7255c-.39733,0-.71982-.64725-.71982-1.4455h0c0-.79825.32249-1.44518.71982-1.44518h17.7255c.39734,0,.7195.64693.7195,1.44518h0C588.51159,211.29413,588.18943,211.94138,587.79209,211.94138Z"/>
        <path class="cls-51" d="M597.22562,211.94138h-7.02869c-.39766,0-.71983-.64725-.71983-1.4455h0c0-.79825.32217-1.44518.71983-1.44518h7.02869c.39766,0,.71983.64693.71983,1.44518h0C597.94545,211.29413,597.62328,211.94138,597.22562,211.94138Z"/>
        <path class="cls-51" d="M566.54753,217.71624h-7.47485c-.39733,0-.7195-.64693-.7195-1.44518h0c0-.79825.32217-1.4455.7195-1.4455h7.47485c.39733,0,.71949.64725.71949,1.4455h0C567.267,217.06931,566.94486,217.71624,566.54753,217.71624Z"/>
        <path class="cls-51" d="M570.32139,214.82556H618.438a.97463.97463,0,0,1,.97463.97463v.94111a.975.975,0,0,1-.975.975H570.32139a.97463.97463,0,0,1-.97463-.97463v-.94143a.97463.97463,0,0,1,.97463-.97463Z"/>
        <path class="cls-51" d="M566.54753,240.5866h-7.47485c-.39733,0-.7195-.64726-.7195-1.44518h0c0-.79825.32217-1.44551.7195-1.44551h7.47485c.39733,0,.71949.64726.71949,1.44551h0C567.267,239.93934,566.94486,240.5866,566.54753,240.5866Z"/>
        <path class="cls-51" d="M623.37293,240.5866H599.77917c-.39733,0-.71949-.64726-.71949-1.44518h0c0-.79825.32216-1.44551.71949-1.44551h23.59376c.39733,0,.7195.64726.7195,1.44551h0C624.09243,239.93934,623.77026,240.5866,623.37293,240.5866Z"/>
        <path class="cls-51" d="M587.79209,240.5866h-17.7255c-.39733,0-.71982-.64726-.71982-1.44518h0c0-.79825.32249-1.44551.71982-1.44551h17.7255c.39734,0,.7195.64726.7195,1.44551h0C588.51159,239.93934,588.18943,240.5866,587.79209,240.5866Z"/>
        <path class="cls-51" d="M597.22562,240.5866h-7.02869c-.39766,0-.71983-.64726-.71983-1.44518h0c0-.79825.32217-1.44551.71983-1.44551h7.02869c.39766,0,.71983.64726.71983,1.44551h0C597.94545,239.93934,597.62328,240.5866,597.22562,240.5866Z"/>
        <path class="cls-52" d="M570.13916,243.4711h31.48936a.79239.79239,0,0,1,.79239.79239v1.30623a.79207.79207,0,0,1-.79207.79207H570.13916a.79239.79239,0,0,1-.79239-.79239v-1.3059A.79239.79239,0,0,1,570.13916,243.4711Z"/>
        <path class="cls-50" d="M600.03886,220.79958h21.12449a.97918.97918,0,0,1,.97918.97918v.932a.97951.97951,0,0,1-.97951.97951H600.03886a.97918.97918,0,0,1-.97918-.97918v-.93232A.97918.97918,0,0,1,600.03886,220.79958Z"/>
        <path class="cls-52" d="M587.79209,223.69026h-17.7255c-.39733,0-.71982-.64693-.71982-1.44518h0c0-.79825.32249-1.4455.71982-1.4455h17.7255c.39734,0,.7195.64725.7195,1.4455h0C588.51159,223.04333,588.18943,223.69026,587.79209,223.69026Z"/>
        <path class="cls-52" d="M597.22562,223.69026h-7.02869c-.39766,0-.71983-.64693-.71983-1.44518h0c0-.79825.32217-1.4455.71983-1.4455h7.02869c.39766,0,.71983.64725.71983,1.4455h0C597.94545,223.04333,597.62328,223.69026,597.22562,223.69026Z"/>
      </g>
      <g>
        <circle class="cls-5" cx="644.62555" cy="119.08313" r="23.61877"/>
        <g>
          <path class="cls-53" d="M642.91393,116.86736l-9.38081,3.43706,9.38081,3.40875v3.522l-13.40948-5.0993V118.4733l13.40948-5.09832Z"/>
          <path class="cls-53" d="M645.97807,113.375l13.40915,5.09832v3.66257l-13.40915,5.0993v-3.522l9.38048-3.40875-9.38048-3.43706Z"/>
        </g>
      </g>
    </g>
  </g>
</svg>
