<svg id="Layer_1" data-name="Layer 1" xmlns="http://www.w3.org/2000/svg" xmlns:xlink="http://www.w3.org/1999/xlink" viewBox="0 0 1104.14655 909.82526">
  <defs>
    <style>
      .cls-1 {
        fill: #231f20;
        opacity: 0.15;
      }

      .cls-2 {
        fill: #bfc5ff;
      }

      .cls-3 {
        fill: #8f98f8;
      }

      .cls-4 {
        fill: #474bca;
      }

      .cls-5 {
        fill: #fff;
      }

      .cls-6 {
        fill: #6974e0;
      }

      .cls-7 {
        fill: #e3ecff;
      }

      .cls-8 {
        fill: #ff5e85;
      }

      .cls-9 {
        fill: #edefff;
      }

      .cls-10 {
        fill: #ffa3be;
      }

      .cls-11 {
        fill: #e9e6e6;
      }

      .cls-12 {
        fill: #dab3ff;
      }

      .cls-13 {
        fill: #fff2f6;
      }

      .cls-14 {
        fill: #ff85a3;
      }

      .cls-15 {
        fill: #ffd4e0;
      }

      .cls-16 {
        fill: #fef6f7;
      }

      .cls-17 {
        fill: #4c4fd6;
      }

      .cls-18 {
        fill: #7579ff;
      }

      .cls-19 {
        fill: url(#New_Gradient_Swatch_copy_4);
      }

      .cls-20 {
        fill: #ff7ea4;
      }

      .cls-21 {
        fill: #ffadc8;
      }

      .cls-22 {
        fill: url(#linear-gradient);
      }

      .cls-23 {
        fill: url(#linear-gradient-2);
      }

      .cls-24 {
        fill: #121674;
      }

      .cls-25 {
        fill: #4491ff;
      }

      .cls-26 {
        fill: #ccf;
      }
    </style>
    <linearGradient id="New_Gradient_Swatch_copy_4" data-name="New Gradient Swatch copy 4" x1="348.15308" y1="844.70122" x2="409.30474" y2="844.70122" gradientUnits="userSpaceOnUse">
      <stop offset="0" stop-color="#4600a3"/>
      <stop offset="1" stop-color="#6400c4"/>
    </linearGradient>
    <linearGradient id="linear-gradient" x1="342.32769" y1="842.91477" x2="393.19709" y2="842.91477" gradientUnits="userSpaceOnUse">
      <stop offset="0" stop-color="#4b32cc"/>
      <stop offset="1" stop-color="#4e63cd"/>
    </linearGradient>
    <linearGradient id="linear-gradient-2" x1="343.74075" y1="534.04719" x2="395.5226" y2="534.04719" gradientUnits="userSpaceOnUse">
      <stop offset="0" stop-color="#0a193d"/>
      <stop offset="1" stop-color="#3b4764"/>
    </linearGradient>
  </defs>
  <g>
    <path class="cls-1" d="M1105.85959,919.77483c-153.4566-8.1508-592.747-26.3804-744.5317,9.7634-28.0575,2.2857-61.4305,5.837-62.5201,25.6865-1.2474,22.7248,33.6767,24.7912,59.4917,23.1134,11.7705-.7651,28.3203-1.0494,43.2405-3.2203,93.3174,6.7193,239.8758,5.206,344.779-2.6124,44.1906-3.2934,102.6377-4.7308,165.4148-5.4711-29.2678,4.1003-51.1976,11.9869-56.5449,25.8684-7.8504,20.3797,84.1068,23.2461,139.731,14.4618,55.6244-8.7841,181.3039,1.7578,186.6425-15.4801,5.3384-17.2379-13.3464-14.0804-70.7352-20.5393-13.6888-1.5405-34.4412-3.6074-58.3254-5.2697,138.6795-.7391,263.5581-2.1853,272.7758-16.2321C1341.83729,924.60783,1283.878,929.23023,1105.85959,919.77483Z" transform="translate(-223.83149 -102.23023)"/>
    <g>
      <path class="cls-2" d="M1222.07789,945.84023h74.3652V460.64433h-74.3652Zm37.1826-437.1468a12.36585,12.36585,0,1,1,12.3658-12.3658A12.36588,12.36588,0,0,1,1259.26049,508.69343Z" transform="translate(-223.83149 -102.23023)"/>
      <rect class="cls-3" x="998.2463" y="358.414" width="14.9863" height="485.1959"/>
      <g>
        <path class="cls-4" d="M1249.93349,539.07573h0a2.96234,2.96234,0,0,0-2.9623-2.9623h-24.8933v5.9246h24.8933A2.96234,2.96234,0,0,0,1249.93349,539.07573Z" transform="translate(-223.83149 -102.23023)"/>
        <path class="cls-4" d="M1249.93349,640.30623h0a2.96236,2.96236,0,0,0-2.9623-2.9624h-24.8933v5.9247h24.8933A2.96234,2.96234,0,0,0,1249.93349,640.30623Z" transform="translate(-223.83149 -102.23023)"/>
        <path class="cls-4" d="M1240.60659,564.38333h0a2.96234,2.96234,0,0,0-2.9623-2.9623h-15.5664v5.9246h15.5664A2.96234,2.96234,0,0,0,1240.60659,564.38333Z" transform="translate(-223.83149 -102.23023)"/>
        <path class="cls-4" d="M1240.60659,589.69093h0a2.96234,2.96234,0,0,0-2.9623-2.9623h-15.5664v5.9246h15.5664A2.96228,2.96228,0,0,0,1240.60659,589.69093Z" transform="translate(-223.83149 -102.23023)"/>
        <path class="cls-4" d="M1240.60659,614.99853h0a2.96234,2.96234,0,0,0-2.9623-2.9623h-15.5664v5.9247h15.5664A2.96236,2.96236,0,0,0,1240.60659,614.99853Z" transform="translate(-223.83149 -102.23023)"/>
        <path class="cls-4" d="M1249.93349,741.53653h0a2.96228,2.96228,0,0,0-2.9623-2.9623h-24.8933v5.9247h24.8933A2.96236,2.96236,0,0,0,1249.93349,741.53653Z" transform="translate(-223.83149 -102.23023)"/>
        <path class="cls-4" d="M1240.60659,665.61373h0a2.96234,2.96234,0,0,0-2.9623-2.9623h-15.5664v5.9247h15.5664A2.96236,2.96236,0,0,0,1240.60659,665.61373Z" transform="translate(-223.83149 -102.23023)"/>
        <path class="cls-4" d="M1240.60659,690.92133h0a2.96234,2.96234,0,0,0-2.9623-2.9623h-15.5664v5.9247h15.5664A2.96236,2.96236,0,0,0,1240.60659,690.92133Z" transform="translate(-223.83149 -102.23023)"/>
        <path class="cls-4" d="M1240.60659,716.22893h0a2.96234,2.96234,0,0,0-2.9623-2.9623h-15.5664v5.9246h15.5664A2.96228,2.96228,0,0,0,1240.60659,716.22893Z" transform="translate(-223.83149 -102.23023)"/>
        <path class="cls-4" d="M1234.27844,828.83918h3.4545a1.2351,1.2351,0,0,1,1.2351,1.2351v26.6205a0,0,0,0,1,0,0h-5.9247a0,0,0,0,1,0,0v-26.6205A1.2351,1.2351,0,0,1,1234.27844,828.83918Z" transform="translate(1854.94117 -495.46894) rotate(90)"/>
        <path class="cls-4" d="M1240.60659,766.84423h0a2.96228,2.96228,0,0,0-2.9623-2.9623h-15.5664v5.9246h15.5664A2.96234,2.96234,0,0,0,1240.60659,766.84423Z" transform="translate(-223.83149 -102.23023)"/>
        <path class="cls-4" d="M1240.60659,792.15183h0a2.96228,2.96228,0,0,0-2.9623-2.9623h-15.5664v5.9246h15.5664A2.96234,2.96234,0,0,0,1240.60659,792.15183Z" transform="translate(-223.83149 -102.23023)"/>
        <path class="cls-4" d="M1240.60659,817.45943h0a2.96236,2.96236,0,0,0-2.9623-2.9624h-15.5664v5.9247h15.5664A2.96234,2.96234,0,0,0,1240.60659,817.45943Z" transform="translate(-223.83149 -102.23023)"/>
        <path class="cls-4" d="M1240.60659,868.07463h0a2.96228,2.96228,0,0,0-2.9623-2.9623h-15.5664v5.9246h15.5664A2.96228,2.96228,0,0,0,1240.60659,868.07463Z" transform="translate(-223.83149 -102.23023)"/>
        <path class="cls-4" d="M1240.60659,893.38223h0a2.96234,2.96234,0,0,0-2.9623-2.9623h-15.5664v5.9246h15.5664A2.96228,2.96228,0,0,0,1240.60659,893.38223Z" transform="translate(-223.83149 -102.23023)"/>
        <path class="cls-4" d="M1240.60659,918.68983h0a2.96234,2.96234,0,0,0-2.9623-2.9623h-15.5664v5.9246h15.5664A2.96234,2.96234,0,0,0,1240.60659,918.68983Z" transform="translate(-223.83149 -102.23023)"/>
      </g>
    </g>
    <g>
      <path class="cls-4" d="M205.3388,193.1239h749.517a12.6233,12.6233,0,0,1,12.6233,12.6233v442.53a0,0,0,0,1,0,0H192.7155a0,0,0,0,1,0,0v-442.53A12.6233,12.6233,0,0,1,205.3388,193.1239Z"/>
      <rect class="cls-5" x="613.47924" y="172.67598" width="380.8991" height="700.5094" transform="translate(1103.02797 -383.22834) rotate(90)"/>
      <path class="cls-3" d="M192.7155,648.2772H967.4791a0,0,0,0,1,0,0v79.7764a12.6233,12.6233,0,0,1-12.6233,12.6233H205.3387a12.6232,12.6232,0,0,1-12.6232-12.6232V648.2772A0,0,0,0,1,192.7155,648.2772Z"/>
      <path class="cls-3" d="M930.46609,920.33723H677.39149a12.75151,12.75151,0,0,0-12.7515,12.7515h0a12.75158,12.75158,0,0,0,12.7515,12.7515h253.0746a12.75149,12.75149,0,0,0,12.7514-12.7515h0A12.75143,12.75143,0,0,0,930.46609,920.33723Z" transform="translate(-223.83149 -102.23023)"/>
      <polygon class="cls-6" points="657.459 740.677 502.735 740.677 489.135 818.107 671.06 818.107 657.459 740.677"/>
      <circle class="cls-6" cx="580.0973" cy="696.0512" r="20.5633"/>
      <rect class="cls-7" x="535.54124" y="182.57988" width="536.7751" height="524.8256" transform="translate(1025.08997 -461.16634) rotate(90)"/>
      <path class="cls-8" d="M792.38994-104.57612h30.3073a0,0,0,0,1,0,0v524.8256a0,0,0,0,1,0,0h-30.3073a7.2296,7.2296,0,0,1-7.2296-7.2296V-97.34652A7.2296,7.2296,0,0,1,792.38994-104.57612Z" transform="translate(737.93397 -748.32234) rotate(90)"/>
      <rect class="cls-5" x="535.54124" y="212.28148" width="536.7751" height="465.4224" transform="translate(135.10462 1146.69124) rotate(-90)"/>
      <rect class="cls-5" x="687.41964" y="60.40308" width="233.0183" height="465.4224" transform="translate(286.98302 994.81284) rotate(-90)"/>
      <rect class="cls-9" x="716.08914" y="264.75188" width="175.6793" height="465.4224" transform="translate(82.63422 1199.16164) rotate(-90)"/>
      <circle class="cls-10" cx="582.42326" cy="157.4611" r="11.20567" transform="translate(-244.42824 35.796) rotate(-13.28258)"/>
      <path class="cls-10" d="M768.139,163.06393H614.06039a5.60279,5.60279,0,0,1-5.6028-5.6028h0a5.60279,5.60279,0,0,1,5.6028-5.6028H768.139a5.60272,5.60272,0,0,1,5.6028,5.6028h0A5.60272,5.60272,0,0,1,768.139,163.06393Z" transform="translate(-223.83149 -102.23023)"/>
      <path class="cls-2" d="M691.77879,542.122h-80.3872a5.60279,5.60279,0,0,1-5.6028-5.6028h0a5.60279,5.60279,0,0,1,5.6028-5.6028h80.3872a5.60287,5.60287,0,0,1,5.6029,5.6028h0A5.60287,5.60287,0,0,1,691.77879,542.122Z" transform="translate(-223.83149 -102.23023)"/>
      <path class="cls-2" d="M691.77879,565.38593h-80.3872a5.60287,5.60287,0,0,1-5.6028-5.6029h0a5.60279,5.60279,0,0,1,5.6028-5.6028h80.3872a5.60287,5.60287,0,0,1,5.6029,5.6028h0A5.603,5.603,0,0,1,691.77879,565.38593Z" transform="translate(-223.83149 -102.23023)"/>
      <path class="cls-2" d="M971.91639,263.92643h-113.771a5.60281,5.60281,0,0,1-5.6029-5.6028h0a5.6029,5.6029,0,0,1,5.6029-5.6029h113.771a5.60281,5.60281,0,0,1,5.6028,5.6029h0A5.60272,5.60272,0,0,1,971.91639,263.92643Z" transform="translate(-223.83149 -102.23023)"/>
      <path class="cls-2" d="M938.53259,286.89813h-80.3872a5.6029,5.6029,0,0,1-5.6029-5.6029h0a5.60281,5.60281,0,0,1,5.6029-5.6028h80.3872a5.60279,5.60279,0,0,1,5.6028,5.6028h0A5.60287,5.60287,0,0,1,938.53259,286.89813Z" transform="translate(-223.83149 -102.23023)"/>
      <path class="cls-2" d="M950.69229,309.86973h-92.5469a5.60287,5.60287,0,0,1-5.6029-5.6028h0a5.6029,5.6029,0,0,1,5.6029-5.6029h92.5469a5.6029,5.6029,0,0,1,5.6029,5.6029h0A5.60287,5.60287,0,0,1,950.69229,309.86973Z" transform="translate(-223.83149 -102.23023)"/>
      <path class="cls-10" d="M946.12429,347.22h-83.4109a10.17088,10.17088,0,0,1-10.1709-10.1709h0a10.17094,10.17094,0,0,1,10.1709-10.1709h83.4109a10.17088,10.17088,0,0,1,10.1709,10.1709h0A10.17081,10.17081,0,0,1,946.12429,347.22Z" transform="translate(-223.83149 -102.23023)"/>
      <path class="cls-10" d="M956.73639,694.02593h-83.4109a10.17088,10.17088,0,0,1-10.1709-10.1709h0a10.17081,10.17081,0,0,1,10.1709-10.1709h83.4109a10.17079,10.17079,0,0,1,10.1708,10.1709h0A10.17086,10.17086,0,0,1,956.73639,694.02593Z" transform="translate(-223.83149 -102.23023)"/>
      <path class="cls-11" d="M837.98519,694.02593h-186.706a10.17094,10.17094,0,0,1-10.1709-10.1709h0a10.17088,10.17088,0,0,1,10.1709-10.1709h186.706a10.17088,10.17088,0,0,1,10.1709,10.1709h0A10.17094,10.17094,0,0,1,837.98519,694.02593Z" transform="translate(-223.83149 -102.23023)"/>
      <path class="cls-2" d="M844.12239,542.122h-80.3872a5.60272,5.60272,0,0,1-5.6028-5.6028h0a5.60272,5.60272,0,0,1,5.6028-5.6028h80.3872a5.60272,5.60272,0,0,1,5.6028,5.6028h0A5.60272,5.60272,0,0,1,844.12239,542.122Z" transform="translate(-223.83149 -102.23023)"/>
      <path class="cls-2" d="M844.12239,565.38593h-80.3872a5.60281,5.60281,0,0,1-5.6028-5.6029h0a5.60272,5.60272,0,0,1,5.6028-5.6028h80.3872a5.60272,5.60272,0,0,1,5.6028,5.6028h0A5.60281,5.60281,0,0,1,844.12239,565.38593Z" transform="translate(-223.83149 -102.23023)"/>
      <path class="cls-2" d="M862.01919,628.08563H745.83829a5.60281,5.60281,0,0,1-5.6028-5.6029h0a5.60279,5.60279,0,0,1,5.6028-5.6028h116.1809a5.60287,5.60287,0,0,1,5.6029,5.6028h0A5.6029,5.6029,0,0,1,862.01919,628.08563Z" transform="translate(-223.83149 -102.23023)"/>
      <path class="cls-2" d="M844.12239,651.34943h-80.3872a5.60281,5.60281,0,0,1-5.6028-5.6029h0a5.60279,5.60279,0,0,1,5.6028-5.6028h80.3872a5.60279,5.60279,0,0,1,5.6028,5.6028h0A5.60281,5.60281,0,0,1,844.12239,651.34943Z" transform="translate(-223.83149 -102.23023)"/>
      <path class="cls-2" d="M996.48879,542.122h-80.3872a5.60281,5.60281,0,0,1-5.6029-5.6028h0a5.60281,5.60281,0,0,1,5.6029-5.6028h80.3872a5.60272,5.60272,0,0,1,5.6028,5.6028h0A5.60272,5.60272,0,0,1,996.48879,542.122Z" transform="translate(-223.83149 -102.23023)"/>
      <path class="cls-2" d="M996.48879,565.38593h-80.3872a5.6029,5.6029,0,0,1-5.6029-5.6029h0a5.60281,5.60281,0,0,1,5.6029-5.6028h80.3872a5.60272,5.60272,0,0,1,5.6028,5.6028h0A5.60281,5.60281,0,0,1,996.48879,565.38593Z" transform="translate(-223.83149 -102.23023)"/>
      <path class="cls-10" d="M1031.03719,163.06393h-33.5715a5.60281,5.60281,0,0,1-5.6029-5.6028h0a5.60281,5.60281,0,0,1,5.6029-5.6028h33.5715a5.60279,5.60279,0,0,1,5.6028,5.6028h0A5.60279,5.60279,0,0,1,1031.03719,163.06393Z" transform="translate(-223.83149 -102.23023)"/>
      <rect class="cls-10" x="369.7974" y="334.275" width="115.9125" height="77.4176" rx="2.0285"/>
      <path class="cls-2" d="M524.1696,334.275H636.0251a2.0284,2.0284,0,0,1,2.0284,2.0284v73.3607a2.0285,2.0285,0,0,1-2.0285,2.0285H524.1696a2.0285,2.0285,0,0,1-2.0285-2.0285V336.3035A2.0285,2.0285,0,0,1,524.1696,334.275Z"/>
      <rect class="cls-10" x="674.5075" y="334.275" width="115.9125" height="77.4176" rx="2.0285"/>
      <g>
        <circle class="cls-12" cx="531.4106" cy="289.8262" r="4.4594"/>
        <path class="cls-12" d="M784.04489,392.05643a4.45945,4.45945,0,1,1-4.4595-4.4594A4.45943,4.45943,0,0,1,784.04489,392.05643Z" transform="translate(-223.83149 -102.23023)"/>
        <circle class="cls-12" cx="580.0973" cy="289.8262" r="4.4594"/>
        <path class="cls-12" d="M832.73159,392.05643a4.45945,4.45945,0,1,1-4.4594-4.4594A4.45941,4.45941,0,0,1,832.73159,392.05643Z" transform="translate(-223.83149 -102.23023)"/>
        <circle class="cls-12" cx="628.784" cy="289.8262" r="4.4594"/>
      </g>
      <path class="cls-13" d="M571.21759,409.62333h390.2155a62.43413,62.43413,0,0,0-14.647-19.8667c-14.8399-13.1097-35.5198-16.6525-54.8789-20.8138a511.4822,511.4822,0,0,1-68.7689-19.9088c-11.4456-4.2022-23.308-9.2339-30.6891-18.9385-6.937-9.1207-8.8657-21.0177-9.9586-32.4244-1.8846-19.6682-1.9444-39.5208-4.9354-59.0513s-9.1943-39.1261-21.812-54.3307a70.60751,70.60751,0,0,0-7.4475-7.684H571.21759Z" transform="translate(-223.83149 -102.23023)"/>
      <g>
        <circle class="cls-3" cx="692.98466" cy="305.4853" r="62.25742" transform="translate(12.62457 807.51548) rotate(-76.71747)"/>
        <circle class="cls-8" cx="536.00307" cy="155.8904" r="39.63484"/>
      </g>
    </g>
    <g>
      <path class="cls-5" d="M1127.103,816.39993a17.47085,17.47085,0,0,1-17.6672-17.2266V627.58713a17.47078,17.47078,0,0,1,17.6672-17.2266h183.2078a17.47082,17.47082,0,0,1,17.6672,17.2271v171.5862a17.47023,17.47023,0,0,1-17.6666,17.2261Z" transform="translate(-223.83149 -102.23023)"/>
      <path class="cls-14" d="M1131.39629,625.406a6.42257,6.42257,0,0,0-6.6223,6.2022v163.5441a6.42282,6.42282,0,0,0,6.6226,6.2025h174.621a6.42257,6.42257,0,0,0,6.6223-6.2022v-163.544a6.423,6.423,0,0,0-6.6227-6.2026Z" transform="translate(-223.83149 -102.23023)"/>
      <path class="cls-15" d="M1124.774,761.08693v34.0653a6.42277,6.42277,0,0,0,6.6226,6.2026h122.2866l-76.8663-124.6908Z" transform="translate(-223.83149 -102.23023)"/>
      <path class="cls-10" d="M1311.19589,799.01233,1260.597,716.932l-52.0429,84.4228h97.4635A6.77918,6.77918,0,0,0,1311.19589,799.01233Z" transform="translate(-223.83149 -102.23023)"/>
      <circle class="cls-16" cx="1272.53866" cy="665.5073" r="17.58847" transform="translate(-342.69224 207.94302) rotate(-13.28256)"/>
    </g>
    <g>
      <path class="cls-10" d="M1266.93409,220.40983a74.06165,74.06165,0,0,0-148.1233-.0001,72.92739,72.92739,0,0,0,10.1603,36.7263,85.39113,85.39113,0,0,0,11.776,15.3527c4.2572,4.5124,9.9529,7.4434,13.9985,12.1064,3.494,4.0272,3.9122,8.8881,5.6,13.7067a14.71142,14.71142,0,0,0,13.8843,9.8481h37.3378a14.71126,14.71126,0,0,0,13.8602-9.7799c1.436-4.036,2.4212-9.182,4.6578-12.8021,2.7856-4.5086,9.0149-6.8212,12.8428-10.4766a78.097,78.097,0,0,0,12.8302-15.557A75.20228,75.20228,0,0,0,1266.93409,220.40983Z" transform="translate(-223.83149 -102.23023)"/>
      <path class="cls-5" d="M1215.17049,174.17883a5.79643,5.79643,0,0,1-2.294-.4743,50.57926,50.57926,0,0,0-5.2102-1.9086,5.81309,5.81309,0,1,1,3.3902-11.1209,62.26686,62.26686,0,0,1,6.4137,2.3491,5.81407,5.81407,0,0,1-2.2997,11.1547Z" transform="translate(-223.83149 -102.23023)"/>
      <path class="cls-5" d="M1249.495,226.223a5.81321,5.81321,0,0,1-5.8131-5.8131,50.34447,50.34447,0,0,0-15.9088-36.8901,5.81288,5.81288,0,1,1,7.9919-8.4432,62.69556,62.69556,0,0,1,19.5431,45.3333A5.81315,5.81315,0,0,1,1249.495,226.223Z" transform="translate(-223.83149 -102.23023)"/>
      <path class="cls-3" d="M1223.55349,228.56873a3.141,3.141,0,0,0-3.6274,2.5582l-.3023,1.7484-6.0717,4.027a7.16219,7.16219,0,0,1-8.1167-.1644l-4.5881-3.3175a13.40278,13.40278,0,0,0-15.5934-.084l-4.9202,3.4779a7.17162,7.17162,0,0,1-8.0722.1082l-5.5118-3.6799-.387-2.3079a3.13879,3.13879,0,0,0-6.1912,1.0378l13.2819,79.2284a3.13879,3.13879,0,1,0,6.1912-1.0378l-11.4702-68.4214.6019.4017a13.48473,13.48473,0,0,0,15.1809-.2029l4.9204-3.478a7.1263,7.1263,0,0,1,8.291.0446l4.5881,3.3179a13.47186,13.47186,0,0,0,15.2651.3091l1.1312-.7503-11.8866,68.7635a3.13892,3.13892,0,0,0,2.558,3.6277,3.17117,3.17117,0,0,0,.5388.0463,3.1395,3.1395,0,0,0,3.0887-2.6046l13.6596-79.0203A3.1388,3.1388,0,0,0,1223.55349,228.56873Z" transform="translate(-223.83149 -102.23023)"/>
      <path class="cls-3" d="M1213.89759,308.14993h-42.0503a5.69312,5.69312,0,0,0-5.6931,5.6931v20.3611a5.69312,5.69312,0,0,0,5.6931,5.6931h5.1308a16.46676,16.46676,0,0,0,31.7889,0h5.1306a5.69312,5.69312,0,0,0,5.6931-5.6931V313.843A5.69312,5.69312,0,0,0,1213.89759,308.14993Z" transform="translate(-223.83149 -102.23023)"/>
      <path class="cls-10" d="M1193.18239,131.51993a3.38933,3.38933,0,0,1-3.3893-3.3894v-22.5109a3.3892,3.3892,0,1,1,6.7784,0v22.5109A3.38929,3.38929,0,0,1,1193.18239,131.51993Z" transform="translate(-223.83149 -102.23023)"/>
      <path class="cls-10" d="M1242.48289,146.55933a3.38936,3.38936,0,0,1-3.5313-5.172l12.3186-18.8413a3.38936,3.38936,0,0,1,5.6738,3.7093l-12.3186,18.8412A3.37887,3.37887,0,0,1,1242.48289,146.55933Z" transform="translate(-223.83149 -102.23023)"/>
      <path class="cls-10" d="M1290.29789,170.78263l-19.7826,10.7422a3.38938,3.38938,0,0,1-3.2347-5.9572l19.7826-10.7421a3.38933,3.38933,0,0,1,3.2347,5.9571Z" transform="translate(-223.83149 -102.23023)"/>
      <path class="cls-10" d="M1145.06089,146.55933a3.38932,3.38932,0,0,0,3.5313-5.172l-12.3186-18.8413a3.38936,3.38936,0,0,0-5.6738,3.7093l12.3186,18.8412A3.37887,3.37887,0,0,0,1145.06089,146.55933Z" transform="translate(-223.83149 -102.23023)"/>
      <path class="cls-10" d="M1097.24589,170.78263l19.7826,10.7422a3.3894,3.3894,0,0,0,3.2348-5.9572l-19.7827-10.7421a3.38933,3.38933,0,0,0-3.2347,5.9571Z" transform="translate(-223.83149 -102.23023)"/>
    </g>
    <g>
      <g>
        <path class="cls-16" d="M561.59719,536.16333l57.3945-52.5841a2.63468,2.63468,0,0,0-2.2822-4.529l-76.4126,14.8436Z" transform="translate(-223.83149 -102.23023)"/>
        <rect class="cls-8" x="385.64442" y="427.9053" width="47.33298" height="316.98751" transform="translate(-153.9945 1113.57865) rotate(-116.74435)"/>
        <rect class="cls-10" x="410.65274" y="443.30728" width="12.83898" height="316.98749" transform="translate(-156.49343 1142.84347) rotate(-116.74447)"/>
        <rect class="cls-10" x="395.1301" y="412.5033" width="12.83892" height="316.98751" transform="translate(-151.49498 1084.3141) rotate(-116.74427)"/>
        <path class="cls-3" d="M226.36836,678.587v.0001a23.66642,23.66642,0,0,0,31.78493,10.4845l20.2692-10.214-21.3004-42.2695-20.2691,10.2141A23.66638,23.66638,0,0,0,226.36836,678.587Z" transform="translate(-223.83149 -102.23023)"/>
        <rect class="cls-6" x="254.95081" y="640.11369" width="47.33305" height="24.28838" transform="translate(-402.3145 1092.36263) rotate(-116.7444)"/>
        <path class="cls-8" d="M616.70949,479.05023l-27.2161,5.2869c2.898,5.5921,6.311,12.2227,9.1586,17.877l20.3397-18.6349A2.63468,2.63468,0,0,0,616.70949,479.05023Z" transform="translate(-223.83149 -102.23023)"/>
      </g>
      <path class="cls-4" d="M369.50289,955.22493h0a11.20285,11.20285,0,0,0,11.1794-11.9264l-3.7702-58.2554h-14.8185l-3.7702,58.2554A11.20287,11.20287,0,0,0,369.50289,955.22493Z" transform="translate(-223.83149 -102.23023)"/>
      <path class="cls-4" d="M418.04759,960.43493h0a10.409,10.409,0,0,0,9.3713-14.9394l-28.6318-59.2265h-14.8185l24.2883,67.2908A10.409,10.409,0,0,0,418.04759,960.43493Z" transform="translate(-223.83149 -102.23023)"/>
      <path class="cls-4" d="M317.50559,960.43493h0a10.409,10.409,0,0,1-9.3713-14.9394L336.766,886.269h14.8185l-24.2883,67.2908A10.40876,10.40876,0,0,1,317.50559,960.43493Z" transform="translate(-223.83149 -102.23023)"/>
      <path class="cls-17" d="M313.58309,860.12593v18.8479c0,6.7761,25.1823,12.2691,56.2464,12.2691,31.064,0,56.2464-5.493,56.2464-12.2691v-18.8479Z" transform="translate(-223.83149 -102.23023)"/>
      <ellipse class="cls-18" cx="145.99797" cy="757.8957" rx="56.24633" ry="12.2691"/>
      <path class="cls-19" d="M350.68249,832.41563s-4.5093,15.8577-1.4863,21.1478c3.0229,5.2901,30.3803,2.8717,44.8903,2.8717,14.5099,0,18.2886-2.4183,12.8473-7.7084-5.4412-5.2901-25.1061-6.3227-35.6028-16.3111Z" transform="translate(-223.83149 -102.23023)"/>
      <path class="cls-8" d="M326.24839,683.05793s0,16.1747,8.6035,37.8556c8.6036,21.681,10.3243,38.1998,10.3243,38.1998s.3441,28.908,1.7208,46.4592c1.3765,17.5514,3.7855,26.8431,3.7855,26.8431H371.331s10.6684-58.5041,11.0126-88.1004c.3441-29.5962-18.0276-71.2375-18.0276-71.2375Z" transform="translate(-223.83149 -102.23023)"/>
      <path class="cls-20" d="M349.30589,678.24083s-4.4739,19.2711,6.5387,32.0043c11.0126,12.7333,23.4017,45.0826,23.4017,45.0826s-11.5674,5.5063-15.4197,24.7783-8.3261,34.4143-8.3261,34.4143,12.7332,2.0648,15.8305,8.9477c0,0,33.0377-42.6737,38.8881-66.0753,5.8504-23.4018-7.5711-74.3348-7.5711-74.3348Z" transform="translate(-223.83149 -102.23023)"/>
      <path class="cls-21" d="M314.06319,624.98653s-5.904,14.9336-3.1257,18.7538c2.7784,3.8201,17.9689,10.766,17.9689,10.766v-27.7834Z" transform="translate(-223.83149 -102.23023)"/>
      <path class="cls-4" d="M346.87529,576.80373s-20.5792,3.0614-31.0757,33.5965a160.306,160.306,0,0,0-4.8621,15.9754s9.7242,4.8166,20.143,5.534C341.49919,632.627,346.87529,576.80373,346.87529,576.80373Z" transform="translate(-223.83149 -102.23023)"/>
      <path class="cls-21" d="M371.29379,510.87733c21.6921-1.7709,24.6674,16.7101,24.1369,33.4203s-3.3925,25.4632-12.0407,25.7284c-8.648.2653-37.2941-12.2011-36.4984-33.4204S358.297,511.93823,371.29379,510.87733Z" transform="translate(-223.83149 -102.23023)"/>
      <path class="cls-21" d="M379.18429,565.10453s-2.4536,11.1355-1.1325,15.665c1.3212,4.5297-12.4566,4.9072-20.761,2.0761-8.3044-2.831-5.1575-2.9346-2.6423-13.9664s1.8873-15.2877,1.8873-15.2877Z" transform="translate(-223.83149 -102.23023)"/>
      <path class="cls-21" d="M427.16589,611.02833l17.5644,9.2444,12.4799-30.2753,12.0176,5.7778s3.2613,40.9833-20.1065,45.9907c-6.471,1.3866-37.6708-14.3288-37.6708-14.3288Z" transform="translate(-223.83149 -102.23023)"/>
      <path class="cls-4" d="M381.00849,577.49283c27.8654,11.3753,52.1759,32.9074,52.1759,32.9074s-.8084,14.2508-10.766,25.0051l-37.5076-14.9336Z" transform="translate(-223.83149 -102.23023)"/>
      <path class="cls-4" d="M365.54709,573.16953c-34.2297-1.9829-36.1365,30.2654-40.5559,72.2499-2.6873,25.5287-4.0309,40.3084-2.6873,42.0999,1.3436,1.7916,17.467-4.4787,38.0692-3.5829,20.602.8957,40.7563,7.6138,45.235,6.7181,4.4787-.8958-4.4787-64.0457-5.3745-76.1383C399.33789,602.42373,394.01059,574.81823,365.54709,573.16953Z" transform="translate(-223.83149 -102.23023)"/>
      <path class="cls-21" d="M457.21019,589.99743s-3.4397-4.6454-3.5668-8.2038-1.9062-9.1502-3.6855-10.1669,2.6688-5.2105,6.8626,0c4.1939,5.2105,2.6689,8.3139,5.9732,7.906,3.3042-.4079,16.1824-6.9495,21.1388-9.8725s10.6754-2.2343,6.8628,7.1435c-3.8126,9.3777-17.2938,17.8297-21.5675,18.9715Z" transform="translate(-223.83149 -102.23023)"/>
      <path class="cls-22" d="M369.14109,828.41253s-1.351-10.2261-13.3606-11.8274c-3.2854-.438-16.2079,14.2367-12.9225,21.4645,3.2854,7.2279,21.4645,17.303,27.1591,21.2455,5.6947,3.9425,17.9601,12.9225,21.6836,8.98,3.7234-3.9424,0-12.0464-5.6946-17.741C380.31139,844.83943,369.14109,828.41253,369.14109,828.41253Z" transform="translate(-223.83149 -102.23023)"/>
      <path class="cls-23" d="M395.48559,522.00523c.6888,6.3208-8.4298-1.9009-11.252,17.0371-2.8221,18.9381-15.863,23.8848-26.6556,22.9853-10.7926-.8993-13.7156-15.964-13.7156-25.8571,0-9.8933-2.2487-25.5293,12.5913-25.4113C371.29379,510.87733,392.47139,494.34933,395.48559,522.00523Z" transform="translate(-223.83149 -102.23023)"/>
      <path class="cls-3" d="M381.00849,527.32233s-13.6183,27.7351-40.6717,21.4395c-27.0533-6.2956.1529-24.0109.1529-24.0109Z" transform="translate(-223.83149 -102.23023)"/>
      <path class="cls-3" d="M397.15069,520.65623s-11.692,9.2186-34.4013,8.0943c-22.7094-1.1241-22.2597-3.9996-22.2597-3.9996s-3.8223-30.6265,26.7566-30.6265C397.82529,494.12443,397.15069,520.65623,397.15069,520.65623Z" transform="translate(-223.83149 -102.23023)"/>
      <path class="cls-21" d="M386.71219,539.04233s-5.2695-8.4897-7.9042-2.0492c-2.6347,6.4404,1.4081,14.1049,7.0882,14.4599Z" transform="translate(-223.83149 -102.23023)"/>
    </g>
    <g>
      <path class="cls-21" d="M950.485,766.26223s-3.1445,5.6176-9.742,5.6176c-6.5974,0-8.2999,5.7901-9.5769,2.7886-1.2769-3.0014,1.9154-7.6393,5.5333-8.4062,3.618-.767,8.843-8.5763,13.7856-8.1832S950.485,766.26223,950.485,766.26223Z" transform="translate(-223.83149 -102.23023)"/>
      <path class="cls-21" d="M950.485,754.93193s-14.9974-1.4121-19.6056,0c-4.6081,1.412-11.2056,13.8549-9.7158,15.9335,1.4897,2.0785,6.5257,3.4389,9.7538,1.801,3.2282-1.6379,4.0553-8.8721,6.8461-8.8176,2.7909.0545,14.6444-1.7713,14.6444-1.7713Z" transform="translate(-223.83149 -102.23023)"/>
      <path class="cls-21" d="M1032.83619,722.61433c-3.8027,3.211-26.2246,27.2007-33.0895,32.3176-6.8647,5.1169-49.2617,0-49.2617,0v11.3303s33.9907,8.4062,44.9554,8.4062c10.9648,0,31.0668-14.2541,31.0668-14.2541Z" transform="translate(-223.83149 -102.23023)"/>
      <path class="cls-21" d="M1147.31849,932.33683s14.5275-8.2503,18.19,4.0687c3.6624,12.3192,1.9977,21.6515,4.9942,31.3021,2.9965,9.6505,2.0658,22.5707-6.326,12.9801-4.6613-5.3272-15.5089-30.4874-23.736-37.0518Z" transform="translate(-223.83149 -102.23023)"/>
      <path class="cls-21" d="M1065.27789,874.85943s0,30.4582,20.633,44.7047c20.633,14.2466,54.5298,24.0718,54.5298,24.0718l6.8778-11.2991s-35.3708-27.5105-43.231-34.3881c-7.8601-6.8777-8.3513-35.3707-8.3513-35.3707Z" transform="translate(-223.83149 -102.23023)"/>
      <path class="cls-21" d="M1026.95969,865.52553s-24.563,36.8445-33.897,98.2521l14.2466,3.93s14.2465-23.5805,17.6854-41.7571c3.4387-18.1766,37.3357-50.5998,37.3357-50.5998Z" transform="translate(-223.83149 -102.23023)"/>
      <path class="cls-21" d="M1007.30929,967.70763s6.4677,17.3084-7.5626,18.6402c-14.0301,1.3318-40,2.9965-46.326,0s27.6347-11.9862,31.963-14.9827a37.34261,37.34261,0,0,0,7.679-7.5875Z" transform="translate(-223.83149 -102.23023)"/>
      <path class="cls-24" d="M1012.075,666.92693s-3.6775,29.9452-5.5162,55.6874a74.28422,74.28422,0,0,1,32.8345-7.8802l-4.7281-54.6367Z" transform="translate(-223.83149 -102.23023)"/>
      <path class="cls-21" d="M1039.68969,650.79643c-24.7871,2.0098-22.6481,27.0889-21.7599,43.0757.8882,15.9869,14.6546,19.5395,29.7534,10.2138,15.0986-9.3256,18.2072-20.8716,17.3191-30.6414C1064.11409,663.67483,1056.12059,649.46413,1039.68969,650.79643Z" transform="translate(-223.83149 -102.23023)"/>
      <path class="cls-25" d="M1041.30089,719.36673s-11.5042,1.5745-13.3317,8.8843c-1.8275,7.3099-14.0067,32.8942-4.9931,46.4174,9.0135,13.5232,13.7649,15.3507,13.7649,23.3915s-33.9898,32.5201-36.9147,63.23c-1.4619,15.3506,17.5437,11.6958,30.3358,14.2542,12.7922,2.5584,19.7365,18.2745,46.7829,9.8682s59.2096-11.3302,65.423-27.4119c6.2133-16.0816-13.1577-25.2189-25.9499-35.0871-12.7922-9.8683-36.9147-27.0463-36.9147-37.2801s15.1276-59.4572-2.5584-63.0189A189.29292,189.29292,0,0,0,1041.30089,719.36673Z" transform="translate(-223.83149 -102.23023)"/>
      <path class="cls-21" d="M1035.38389,705.77663s4.6143,8.9368,4.0094,14.2564c-.6048,5.3194-4.6477,2.7661-5.9244,6.3834-1.2766,3.6172-2.1278,19.7886,13.1924,17.8736,15.3202-1.9151,20.8068-11.7052,20.6397-18.0864-.2106-8.046-8.5112-4.894-10.0006-9.1496-1.4895-4.2556-3.1918-22.7675-3.1918-22.7675Z" transform="translate(-223.83149 -102.23023)"/>
      <path class="cls-21" d="M1079.50339,727.88553c18.0193,12.2066-17.931,50.4378-29.433,58.4786s-50.3237-4.0203-50.3237-4.0203-1.0169-7.3099,4.4655-9.8683c0,0,30.7013-.731,39.1077-3.2895C1051.72609,766.62763,1068.17319,720.21023,1079.50339,727.88553Z" transform="translate(-223.83149 -102.23023)"/>
      <g>
        <path class="cls-5" d="M849.08191,777.51991h261.73374a4.79192,4.79192,0,0,1,4.79192,4.79192v83.39682a4.7919,4.7919,0,0,1-4.7919,4.7919H849.082a4.792,4.792,0,0,1-4.792-4.792V782.31183a4.79192,4.79192,0,0,1,4.79192-4.79192Z" transform="matrix(0.96808, 0.25062, -0.25062, 0.96808, 13.96143, -321.53067)"/>
        <path class="cls-20" d="M864.1016,768.1543h69.97626a3.16062,3.16062,0,0,1,3.16062,3.16062v63.52383a3.16065,3.16065,0,0,1-3.16065,3.16065H864.10161a3.16062,3.16062,0,0,1-3.16062-3.16062V771.31491a3.16061,3.16061,0,0,1,3.16061-3.16061Z" transform="matrix(0.96808, 0.25063, -0.25063, 0.96808, 6.13518, -301.93406)"/>
        <path class="cls-26" d="M1074.58489,830.99253a4.829,4.829,0,0,1-1.2081-.154l-114.9219-29.7519a4.80612,4.80612,0,1,1,2.4085-9.3056l114.922,29.7519a4.80652,4.80652,0,0,1-1.2005,9.4596Z" transform="translate(-223.83149 -102.23023)"/>
        <path class="cls-26" d="M1008.38,836.35493a4.834,4.834,0,0,1-1.2081-.1539l-54.1762-14.0252a4.80613,4.80613,0,0,1,2.4086-9.3056l54.1762,14.0252a4.80645,4.80645,0,0,1-1.2005,9.4595Z" transform="translate(-223.83149 -102.23023)"/>
        <path class="cls-26" d="M1003.73649,854.29323a4.83381,4.83381,0,0,1-1.208-.1539l-54.1771-14.0261a4.80612,4.80612,0,1,1,2.4085-9.3056l54.1771,14.026a4.80651,4.80651,0,0,1-1.2005,9.4596Z" transform="translate(-223.83149 -102.23023)"/>
      </g>
      <path class="cls-21" d="M1004.21219,772.47553s-18.777-4.8081-25.5872,2.1929c-6.8102,7.0011-8.3,11.0446-3.6179,13.3857,4.682,2.3411,9.68,4.2764,13.2465,1.0741,3.5662-3.2023,8.4352-7.6769,11.4931-6.7844C1002.80469,783.23613,1004.21219,772.47553,1004.21219,772.47553Z" transform="translate(-223.83149 -102.23023)"/>
      <path class="cls-21" d="M1002.99639,778.16763s1.9163,4.2701-5.856,10.0994c-3.4052,2.5538-6.9862-.0969-1.3649-5.0497C1001.39679,778.26443,1002.99639,778.16763,1002.99639,778.16763Z" transform="translate(-223.83149 -102.23023)"/>
      <path class="cls-24" d="M1043.59609,671.39253s-28.8943,3.9401-37.0373-2.1015c0,0,5.5162-34.4105,38.3507-34.4105,16.5486,0,26.2676,13.3965,31.2584,24.6915,4.991,11.2951,7.8803,49.6,7.8803,49.6s-24.4288,14.7557-35.4613,14.7557C1048.58689,723.92773,1052.52709,686.62773,1043.59609,671.39253Z" transform="translate(-223.83149 -102.23023)"/>
      <path class="cls-8" d="M969.46849,977.19753c2.3967,8.5283,31.3731-1.5339,38.6061-6.8705,0,0,3.4191,6.9134,0,16.5003-3.4193,9.5869-57.4788,6.1278-57.745,1.1998C950.06319,983.09913,969.46849,977.19753,969.46849,977.19753Z" transform="translate(-223.83149 -102.23023)"/>
      <path class="cls-8" d="M1147.31849,932.33683s13.6911-10.3653,18.93,2.5776c5.2387,12.9428,9.6185,48.844,5.8108,49.9226-3.8078,1.0786-8.3895-4.2082-10.9302-8.6993,0,0,4.0407-.8538,2.4999-10.0987C1162.08819,956.794,1157.35589,932.07063,1147.31849,932.33683Z" transform="translate(-223.83149 -102.23023)"/>
    </g>
  </g>
</svg>
