<svg xmlns="http://www.w3.org/2000/svg" viewBox="0 0 1200.0034 1200">
  <defs>
    <style>
      .cls-1 {
        isolation: isolate;
      }

      .cls-2 {
        fill: #6e99d6;
      }

      .cls-3 {
        fill: #95b5e8;
      }

      .cls-4 {
        fill: #b7cfe2;
      }

      .cls-5 {
        fill: #492c1e;
      }

      .cls-6 {
        fill: #ffd6d2;
      }

      .cls-7 {
        fill: #f49d98;
      }

      .cls-8 {
        fill: #fff;
      }

      .cls-9 {
        fill: #5a3c2a;
      }

      .cls-10 {
        fill: #ce4d69;
      }

      .cls-11 {
        mix-blend-mode: overlay;
        opacity: 0.3;
      }

      .cls-12 {
        fill: #96173e;
      }

      .cls-13 {
        fill: #d67636;
      }

      .cls-14 {
        fill: #2b160e;
      }

      .cls-15 {
        fill: #e8f1f9;
      }

      .cls-16, .cls-18 {
        fill: none;
        stroke-linecap: round;
        stroke-linejoin: round;
      }

      .cls-16 {
        stroke: #2b160e;
      }

      .cls-17 {
        fill: #d7e8f7;
      }

      .cls-18 {
        stroke: #b7cfe2;
        stroke-width: 3px;
      }
    </style>
  </defs>
  <g class="cls-1">
    <g id="Layer_2" data-name="Layer 2">
      <g>
        <g>
          <g>
            <polygon class="cls-2" points="488.778 638.23 287.869 659.316 247.13 645.216 247.13 626.782 488.778 626.782 488.778 638.23"/>
            <polygon class="cls-3" points="220.095 1200 249.536 1200 283.718 644.132 254.277 627.865 220.095 1200"/>
            <polygon class="cls-3" points="502.278 1200 472.837 1200 337.071 643.471 366.513 627.204 502.278 1200"/>
          </g>
          <g>
            <polygon class="cls-2" points="946.802 579.65 996.147 579.65 951.918 841.707 902.574 841.707 946.802 579.65"/>
            <path class="cls-3" d="M1303.2594,1008.5105h277.3878a2.3997,2.3997,0,0,1,2.3997,2.3997v21.5926a2.3998,2.3998,0,0,1-2.3998,2.3998H1303.2593a2.3997,2.3997,0,0,1-2.3997-2.3997v-21.5926A2.3998,2.3998,0,0,1,1303.2594,1008.5105Z" transform="translate(2313.9082 1863.4138) rotate(180)"/>
            <path class="cls-4" d="M1297.4296,964.8055h289.0472a11.9987,11.9987,0,0,1,11.9987,11.9987v19.7076a11.9987,11.9987,0,0,1-11.9987,11.9987H1297.4297a11.9988,11.9988,0,0,1-11.9988-11.9988V976.8042A11.9987,11.9987,0,0,1,1297.4296,964.8055Z" transform="translate(2313.9081 1793.3167) rotate(180)"/>
            <rect class="cls-2" x="1418.117" y="1034.9026" width="47.6725" height="313.9931" transform="translate(2313.9082 2203.799) rotate(180)"/>
            <path class="cls-4" d="M1421.5575,794.0733a1044.76268,1044.76268,0,0,0,213.2289.1086,15.21489,15.21489,0,0,0,12.8786-12.0552l27.5386-149.1382c1.3525-7.3242-3.9314-13.004-11.234-12.0034q-106.5216,14.5959-207.6335-.1057c-6.9317-1.0079-14.312,4.6654-15.6644,11.9896l-27.5386,149.1382C1411.9875,788.2112,1415.6162,793.4507,1421.5575,794.0733Z" transform="translate(-569.9983 -179.9993)"/>
            <path class="cls-3" d="M1667.4044,621.0306l14.675.0075c6.5632.0033,10.8822,5.4296,9.6468,12.1199l-27.4036,148.4067c-1.2354,6.6903-7.5573,12.1111-14.1205,12.1078l-15.3202-.0078Z" transform="translate(-569.9983 -179.9993)"/>
            <polygon class="cls-2" points="743.976 1199.747 999.934 1199.747 895.791 1168.896 848.119 1168.896 743.976 1199.747"/>
            <path class="cls-4" d="M1341.4632,1236.8086h200.9801a8.48387,8.48387,0,0,1,8.4839,8.4839h0a8.48389,8.48389,0,0,1-8.4839,8.484H1341.4632a8.484,8.484,0,0,1-8.484-8.484h0A8.484,8.484,0,0,1,1341.4632,1236.8086Z" transform="translate(-569.9983 -179.9993)"/>
          </g>
          <g>
            <g>
              <path class="cls-5" d="M1385.1445,432l-9.6933-4.4747a23.84858,23.84858,0,0,1-12.8316-28.5577h.0001a32.17806,32.17806,0,0,1,22.5568-21.815,240.41288,240.41288,0,0,1,47.2246-7.6452,4.81989,4.81989,0,0,1,5.0337,5.6203l-.5868,3.3864s40.5501-6.1714,45.2092,22.1144c0,0,41.9134,40.8105-6.5424,90.6054Z" transform="translate(-569.9983 -179.9993)"/>
              <path class="cls-6" d="M1471.2,479.7931l4.3148,52.8429h-.0001a34.33855,34.33855,0,0,1-36.1794,26.7831l-.0032-.0003a34.34045,34.34045,0,0,1-30.6519-25.873l-.9664-3.8495,2.5506-32.8735Z" transform="translate(-569.9983 -179.9993)"/>
              <polygon class="cls-7" points="875.365 334.392 837.716 349.697 840.266 316.824 875.365 334.392"/>
              <path class="cls-6" d="M1380.5984,423.5448a550.706,550.706,0,0,0,8.5921,63.7466c5.3267,27.2345,34.3626,42.9778,59.7351,31.728,13.5202-5.9946,25.5831-17.1411,29.1971-37.5215,0,0,13.9676,2.123,14.9389-20.0498.9712-22.1728-18.0059-18.4798-21.2807-12.7235l-.691,6.4076a4.38486,4.38486,0,0,1-2.8964,3.6634h0a4.386,4.386,0,0,1-5.8447-3.9137l-2.0208-36.0534C1435.0326,428.0483,1408.3647,429.0747,1380.5984,423.5448Z" transform="translate(-569.9983 -179.9993)"/>
              <path class="cls-7" d="M1426.9166,482.2984a1.389,1.389,0,0,1-.2856-.0192l-13.6869-2.4217a1.35,1.35,0,0,1-1.1111-1.3861l1.224-28.9669a1.39477,1.39477,0,0,1,1.4038-1.2921,1.3485,1.3485,0,0,1,1.2912,1.4049l-1.1724,27.7874,12.5242,2.2152a1.35007,1.35007,0,0,1-.1872,2.6785Z" transform="translate(-569.9983 -179.9993)"/>
              <path class="cls-5" d="M1437.4362,459.0527h.0007a3.06508,3.06508,0,0,0,2.9576-3.169l-.1103-3.1957a3.0651,3.0651,0,0,0-3.1689-2.9575l-.0006.0001a3.065,3.065,0,0,0-2.9576,3.169l.1103,3.1956A3.065,3.065,0,0,0,1437.4362,459.0527Z" transform="translate(-569.9983 -179.9993)"/>
              <path class="cls-5" d="M1399.7673,462.3344l.0007-.0001a3.065,3.065,0,0,0,2.9576-3.169l-.1103-3.1957a3.065,3.065,0,0,0-3.1689-2.9574h-.0006a3.06508,3.06508,0,0,0-2.9576,3.169l.1103,3.1957A3.06508,3.06508,0,0,0,1399.7673,462.3344Z" transform="translate(-569.9983 -179.9993)"/>
              <path class="cls-8" d="M1420.4969,493.4074a10.25223,10.25223,0,0,0,19.0216-7.6558Z" transform="translate(-569.9983 -179.9993)"/>
              <path class="cls-5" d="M1426.5056,443.8998a1.3498,1.3498,0,0,1-.8954-2.3986,21.69906,21.69906,0,0,1,24.0155-2.7892,1.34969,1.34969,0,0,1-1.3735,2.3238c-.4227-.2466-10.4257-5.9304-20.9443,2.5646A1.34151,1.34151,0,0,1,1426.5056,443.8998Z" transform="translate(-569.9983 -179.9993)"/>
              <path class="cls-5" d="M1386.5412,448.4984a1.34972,1.34972,0,0,1-.8954-2.3985,21.71587,21.71587,0,0,1,24.0129-2.7892,1.34969,1.34969,0,0,1-1.3735,2.3238c-.4228-.2479-10.4231-5.9291-20.9417,2.5645A1.34087,1.34087,0,0,1,1386.5412,448.4984Z" transform="translate(-569.9983 -179.9993)"/>
              <path class="cls-7" d="M1473.9094,468.6876c.0159.0039.0341.0084.0526.0117a1.19971,1.19971,0,0,0,1.3686-.7922c.3358-.9889,1.6705-3.9531,3.3299-4.5729a1.85344,1.85344,0,0,1,1.7004.2297,1.19928,1.19928,0,1,0,1.2105-2.0707,4.27776,4.27776,0,0,0-3.754-.4056,5.21949,5.21949,0,0,0-1.5061.9008c.7891-3.0516,2.1363-6.0368,4.2635-6.1817,4.4744-.3012,5.6905,4.7829,5.7389,4.9998a1.20065,1.20065,0,0,0,2.3385-.5456c-.5896-2.5236-3.0707-7.2003-8.2403-6.8483-6.3848.4375-7.3292,12.6452-7.4158,14.0364A1.19854,1.19854,0,0,0,1473.9094,468.6876Z" transform="translate(-569.9983 -179.9993)"/>
            </g>
            <g>
              <g>
                <polygon class="cls-6" points="591.989 1101.823 577.333 1149.725 553.04 1168.375 524.408 1149.725 533.825 1097.94 591.989 1101.823"/>
                <polygon class="cls-7" points="533.825 1097.94 531.609 1110.127 586.318 1120.357 591.989 1101.823 533.825 1097.94"/>
                <path class="cls-9" d="M1165.5322,1366.0213a18.77,18.77,0,0,1-2.5201,5.6147.72781.72781,0,0,1-.1201.168,17.97591,17.97591,0,0,1-15.0721,7.9423H1031.5156a7.8116,7.8116,0,0,1-7.872-8.1103,7.56035,7.56035,0,0,1,4.2-6.6945l66.5521-35.2245s29.9523,10.8456,52.9443,0l15.264,20.9715A17.903,17.903,0,0,1,1165.5322,1366.0213Z" transform="translate(-569.9983 -179.9993)"/>
                <path class="cls-5" d="M1163.0121,1371.636a.72781.72781,0,0,1-.1201.168,17.97591,17.97591,0,0,1-15.0721,7.9423H1031.5156a7.8116,7.8116,0,0,1-7.872-8.1103Z" transform="translate(-569.9983 -179.9993)"/>
              </g>
              <g>
                <polygon class="cls-6" points="716.674 1101.823 712.076 1149.725 687.783 1168.375 659.152 1149.725 658.51 1097.94 716.674 1101.823"/>
                <polygon class="cls-7" points="658.51 1097.94 658.759 1118.061 714.473 1124.757 716.674 1101.823 658.51 1097.94"/>
                <path class="cls-9" d="M1300.2755,1366.0213a18.77278,18.77278,0,0,1-2.5202,5.6147.72481.72481,0,0,1-.1201.168,17.97578,17.97578,0,0,1-15.0721,7.9423H1166.2589a7.81162,7.81162,0,0,1-7.8721-8.1103,7.56035,7.56035,0,0,1,4.2-6.6945l66.5521-35.2245s29.9524,10.8456,52.9443,0l15.264,20.9715A17.90336,17.90336,0,0,1,1300.2755,1366.0213Z" transform="translate(-569.9983 -179.9993)"/>
                <path class="cls-5" d="M1297.7553,1371.636a.72481.72481,0,0,1-.1201.168,17.97578,17.97578,0,0,1-15.0721,7.9423H1166.2589a7.81162,7.81162,0,0,1-7.8721-8.1103Z" transform="translate(-569.9983 -179.9993)"/>
              </g>
              <path class="cls-10" d="M1100.0709,1281.8971l61.4253,8.8498a4.80012,4.80012,0,0,0,5.2216-3.1829l96.4194-279.0432,29.4961-4.799,132.1926-21.4515a58.84669,58.84669,0,0,0,47.6638-72.4645l-9.0475-36.0164-125.9283-14.3491-142.4406,84.3662a73.4877,73.4877,0,0,0-36.0241,62.1948l-62.9683,270.0563A4.799,4.799,0,0,0,1100.0709,1281.8971Z" transform="translate(-569.9983 -179.9993)"/>
              <path class="cls-11" d="M1146.3802,1287.91l15.0013,2.6805a4.80006,4.80006,0,0,0,5.3814-3.1571l96.3743-278.9126,29.4961-4.799,3.0721-13.4611-10.8-25.4586-49.9299,35.8224a38.43884,38.43884,0,0,0-14.6302,20.9463Z" transform="translate(-569.9983 -179.9993)"/>
              <path class="cls-10" d="M1547.3495,935.8162a58.817,58.817,0,0,1-48.2884,46.4541l-186.2264,23.7556-15.6267,278.847c.1921,2.7594-.7566,6.4691-3.0293,8.5498l-63.4554-.9001c-3.1353.1214-9.2051-1.1488-9.6805-7.5162l-6.8799-280.1808a77.36576,77.36576,0,0,1,36.7679-80.047l146.9702-57.156s.1439,0,.4319.0241l139.3445,6.1427,9.0481,36.0164A58.94778,58.94778,0,0,1,1547.3495,935.8162Z" transform="translate(-569.9983 -179.9993)"/>
              <path class="cls-11" d="M1547.3495,935.8162c-15.2162-55.9802-140.6887-67.4497-149.0166-68.1695l139.3445,6.1427,9.0481,36.0164A58.94778,58.94778,0,0,1,1547.3495,935.8162Z" transform="translate(-569.9983 -179.9993)"/>
              <path class="cls-12" d="M1217.6784,1150.0186a1.14854,1.14854,0,0,0,.2649-.0304,1.19647,1.19647,0,0,0,.9047-1.4344c-.2661-1.1767-4.0172-146.333-4.2248-147.4836-5.5604-30.8106,9.4092-52.2762,23.2592-65.0101a68.79329,68.79329,0,0,1,21.7852-13.3922l75.1104-29.2103a1.19994,1.19994,0,1,0-.8719-2.2359l-75.1104,29.2102a71.20949,71.20949,0,0,0-22.5375,13.861c-14.2534,13.1048-29.6536,35.1791-24.054,66.8781.2279,1.2906,4.0056,146.5899,4.3047,147.9125A1.19812,1.19812,0,0,0,1217.6784,1150.0186Z" transform="translate(-569.9983 -179.9993)"/>
            </g>
            <g>
              <path class="cls-9" d="M1356.612,538.5088l-8.2325,106.2003-3,38.6163-3.7195,47.8079a5.24965,5.24965,0,0,1-8.2079,3.912l-30.6727-21.1198-35.304-24.3602a5.22941,5.22941,0,0,1-1.9436-6.1201l8.6637-23.64,12.0481-32.856,14.4241-39.3124a77.18776,77.18776,0,0,1,49.5118-47.1118Z" transform="translate(-569.9983 -179.9993)"/>
              <path class="cls-13" d="M1348.3795,644.7091l-3,38.6163a17.79671,17.79671,0,0,1-1.6793-2.1364l-27.8884-42.1917-41.6163,20.8079,12.0481-32.856,22.6565-11.3282a19.24641,19.24641,0,0,1,24.6001,6.6Z" transform="translate(-569.9983 -179.9993)"/>
              <path class="cls-6" d="M1327.9506,731.2585h0a46.4093,46.4093,0,0,1-52.9872,23.6085l-2.3574-.6169c-21.0976-5.5209-28.2944-22.349-33.8203-46.7765l-17.9073-158.6159,25.6048,2.1712,45.1454,155.1957Z" transform="translate(-569.9983 -179.9993)"/>
              <path class="cls-5" d="M1221.7128,556.2479l-1.4808-9.9807a2.39418,2.39418,0,0,1,2.1744-2.7452,91.675,91.675,0,0,1,25.5803,1.7417,2.39461,2.39461,0,0,1,1.8263,2.8694l-1.8116,8.1148Z" transform="translate(-569.9983 -179.9993)"/>
              <path class="cls-7" d="M1291.6286,706.2246l1.6716,11.9762s18.7568-8.49,17.607,31.3694a51.94119,51.94119,0,0,0,17.0434-18.3117Z" transform="translate(-569.9983 -179.9993)"/>
              <path class="cls-9" d="M1341.6673,731.1444s-8.7229,33.1284-45.7516,33.1284-53.4115-15.4719-65.2773-60.7292c-11.8658-45.2572-15.7569-128.9909-8.9256-147.2957,0,0,9.7458-8.4369,26.2886,0,0,0,21.6432,24.7805,53.2931,153.924Z" transform="translate(-569.9983 -179.9993)"/>
              <path class="cls-14" d="M1301.2946,711.3731a1.1976,1.1976,0,0,1-1.1648-.9141c-29.8501-121.8003-51.0142-150.8512-52.8986-153.2582a31.85229,31.85229,0,0,0-10.8774-3.368,1.19724,1.19724,0,0,1-1.0664-1.3195,1.17481,1.17481,0,0,1,1.3195-1.0664,34.35669,34.35669,0,0,1,11.9391,3.7312,1.16813,1.16813,0,0,1,.361.2789c.8906,1.0219,22.193,26.4728,53.5525,154.4302a1.19654,1.19654,0,0,1-.8789,1.4508A1.21025,1.21025,0,0,1,1301.2946,711.3731Z" transform="translate(-569.9983 -179.9993)"/>
              <path class="cls-11" d="M1353.1214,583.5168l-11.4541,147.6276c-.312,4.0209-10.5229,27.4279-34.7729,32.0426l-4.1147-49.2706Z" transform="translate(-569.9983 -179.9993)"/>
            </g>
            <g>
              <path class="cls-9" d="M1562.5801,878.374a23.92579,23.92579,0,0,1-9.5039,19.0559l-5.4961,4.176s-151.0563-48.1203-220.8721-35.7602l-4.5364-7.2958a31.59588,31.59588,0,0,1-4.0799-10.0322,32.07207,32.07207,0,0,1,4.176-24.0481l13.8721-21.9601-.3838-133.3442-.1441-43.7284v-3.4078l21.0001-83.5203,46.728-9.1439,27.0481,11.376,51.6723-6.5282,52.0079,22.0321s5.4961,44.6401,11.6883,102.3844c1.176,11.064,2.376,22.6079,3.576,34.416.2637,2.616.5279,5.2322.7916,7.8721C1556.6281,765.8373,1562.6047,836.9739,1562.5801,878.374Z" transform="translate(-569.9983 -179.9993)"/>
              <path class="cls-5" d="M1482.0572,534.223l-3.2996-14.0176a4.67655,4.67655,0,0,0-4.5522-3.6052h0s-37.6924,31.4662-65.9481,6.0902h0a4.36735,4.36735,0,0,0-4.28,3.4986l-.6448,3.1773s-5.3308,33.0055,27.0473,35.3193C1459.6202,566.7752,1474.8267,550.6244,1482.0572,534.223Z" transform="translate(-569.9983 -179.9993)"/>
              <path class="cls-13" d="M1549.3326,693.0452a16.71357,16.71357,0,0,1-1.6564-1.2477l-38.4001-32.7124-36.0236,35.2562a19.28315,19.28315,0,0,1-13.4403,5.4718h-.5519a19.36882,19.36882,0,0,1-13.6559-6.2877l-33.9124-37.4163-40.5839,29.928a19.20519,19.20519,0,0,1-27.4079-4.8481l-7.9442-12.0237-.1441-43.7284,25.3202,38.2803L1400.94,634.221a19.16176,19.16176,0,0,1,25.6319,2.5679l33.456,36.9124,35.5923-34.8481a19.13727,19.13727,0,0,1,25.8961-.888l24.2403,20.664C1546.9326,669.6932,1548.1326,681.2371,1549.3326,693.0452Z" transform="translate(-569.9983 -179.9993)"/>
              <path class="cls-11" d="M1553.0772,897.4416l-5.4991,4.1702s-151.0498-48.1331-220.8799-35.7655l-4.5363-7.3073a31.76543,31.76543,0,0,1-4.0616-10.0142c36.9614-7.9621,104.2731,1.5146,142.9061,8.2522a23.98437,23.98437,0,0,0,28.0604-24.6756l-7.0032-162.6934,20.2976-5.6452,47.7649,37.159c6.4946,64.9074,12.4809,136.0567,12.4467,177.4494A23.94156,23.94156,0,0,1,1553.0772,897.4416Z" transform="translate(-569.9983 -179.9993)"/>
              <path class="cls-14" d="M1335.7516,706.2209c.0374.0029.0726.0033.1078.0037a1.20031,1.20031,0,0,0,1.1872-1.2126l-.8223-74.6312,1.1273-32.4664a1.20157,1.20157,0,0,0-1.1075-1.2379l-.0514-.0039a1.20344,1.20344,0,0,0-1.2419,1.1589l-1.1268,32.5206.8228,74.6853A1.19961,1.19961,0,0,0,1335.7516,706.2209Z" transform="translate(-569.9983 -179.9993)"/>
            </g>
            <g>
              <path class="cls-7" d="M1234.025,512.6152l11.003-10.3376,9.6641-12.0964a3.50573,3.50573,0,0,1,6.1009,3.182l-4.5672,15.4495-10.8194,23.342-5.1264,8.3956Z" transform="translate(-569.9983 -179.9993)"/>
              <g>
                <path class="cls-4" d="M687.0031,281.8349H792.393a5.1707,5.1707,0,0,1,5.1707,5.1707v92.5092a5.1707,5.1707,0,0,1-5.1707,5.1707H687.0031a5.1706,5.1706,0,0,1-5.1706-5.1706V287.0055A5.1706,5.1706,0,0,1,687.0031,281.8349Z"/>
                <path class="cls-15" d="M1301.2945,538.1112,1321.71,507.888a4.8,4.8,0,0,1,7.7665-.2601l23.709,30.4833Z" transform="translate(-569.9983 -179.9993)"/>
                <path class="cls-8" d="M1265.2944,538.1112l22.0885-48.3014a2.4,2.4,0,0,1,4.3062-.1201l25.4963,48.4215Z" transform="translate(-569.9983 -179.9993)"/>
              </g>
              <path class="cls-6" d="M1267.5715,497.0846a3.40114,3.40114,0,0,1-2.4,2.328l-6.6715,1.7522-6.6727,1.752-.5039.1198-11.8799,8.2321,12.3838-4.9438,1.2-.4802,4.248-.552,3.7682-.5042a2.919,2.919,0,0,1,3.1682,3.7202,2.95472,2.95472,0,0,1-2.1844,2.0162l-7.3436,1.5838-1.2961.2883,1.0559.2396,5.1604,1.2a2.75356,2.75356,0,0,1,2.0156,3.4322,2.78175,2.78175,0,0,1-2.376,1.9678l-7.4162.6961-.7916.0721-.2643.024.0481.4319,1.0078,10.6802v.024l.4324,4.512-.4324,1.464-2.6156,8.8321a2.12832,2.12832,0,0,0-1.2241-.7201,91.73453,91.73453,0,0,0-25.5838-1.7279,2.403,2.403,0,0,0-1.1766.4318l3.1682-43.3442,18.8883-21.8398,8.5436-2.8561,11.1363-3.7198a3.63614,3.63614,0,0,1,2.7364,6.7198l-13.8727,6.7198-1.8481.8883-12,14.8799,12.1682-6.0961.5279-.0961,1.152-.2156,9-1.7042,2.8565-.5279A3.39691,3.39691,0,0,1,1267.5715,497.0846Z" transform="translate(-569.9983 -179.9993)"/>
              <path class="cls-7" d="M1234.8608,525.6966a1.03082,1.03082,0,0,1-1.8316.2994c-7.182-10.2158-6.6642-18.7977-6.6384-19.1585a1.03076,1.03076,0,0,1,2.0565.1439h0c-.0052.0814-.4645,8.2523,6.2686,17.8294A1.02959,1.02959,0,0,1,1234.8608,525.6966Z" transform="translate(-569.9983 -179.9993)"/>
              <path class="cls-7" d="M1250.7775,520.035l-9.6419,4.1752,3.4018-.0679a6.05119,6.05119,0,0,1,5.5794,3.4384l1.714,3.5827Z" transform="translate(-569.9983 -179.9993)"/>
            </g>
            <g>
              <path class="cls-9" d="M1587.7087,747.3574l-84.2165-6.552a5.21153,5.21153,0,0,1-4.6798-3.9601l-13.4884-54.3121-3.2636-13.128a119.07428,119.07428,0,0,1-.6241-16.6559c.552-25.2241,7.9682-72.6482,52.656-96.5045a58.303,58.303,0,0,1,32.856,42.3122l9.3844,50.7842,5.7357,31.1761,11.2079,60.6482A5.25945,5.25945,0,0,1,1587.7087,747.3574Z" transform="translate(-569.9983 -179.9993)"/>
              <path class="cls-13" d="M1582.0684,680.5173l-6.9597,8.688a19.18764,19.18764,0,0,1-27.4325,2.5922l-38.4001-32.7124-23.9521,23.4481-3.2636-13.128a119.07428,119.07428,0,0,1-.6241-16.6559l14.1839-13.8961a19.13727,19.13727,0,0,1,25.8961-.888l37.9683,32.352,16.8481-20.976Z" transform="translate(-569.9983 -179.9993)"/>
              <path class="cls-6" d="M1554.3227,744.3315l-84.7089-132.2391-22.6198,20.2308,54.2893,130.8656a64.94072,64.94072,0,0,0,44.7248,38.2383h.0001a30.83774,30.83774,0,0,0,37.6933-34.8648l-3.1756-19.7713Z" transform="translate(-569.9983 -179.9993)"/>
              <g>
                <path class="cls-6" d="M1412.198,579.8413c-2.8517,3.8379-5.1342,7.2749-6.9232,10.183a13.62963,13.62963,0,0,0,2.5106,17.2936l25.131,22.5409a22.12826,22.12826,0,0,0,10.9303,5.3188l4.1572.7334,5.0352,4.5167,20.6131-22.0308-60.0966-77.9828a3.06434,3.06434,0,0,0-4.6048-.295h0a3.06433,3.06433,0,0,0-.37,3.8691l13.7188,23.5092c-1.0696,1.1807.353-.3946,0,0-3.6275,4.0449-6.7325,7.8695-9.3794,11.3753Q1412.54325,579.35255,1412.198,579.8413Z" transform="translate(-569.9983 -179.9993)"/>
                <path class="cls-6" d="M1469.0927,612.4535l-3.2369-20.5016a15.91737,15.91737,0,0,0-4.7326-9.032l-2.8361-2.707a15.91754,15.91754,0,0,0-9.1231-4.2931l-8.9036-1.0516,3.7801,4.9277,4.9424,6.4428-2.49,26.6965Z" transform="translate(-569.9983 -179.9993)"/>
                <path class="cls-7" d="M1405.6754,596.0881a1.1072,1.1072,0,0,0,1.1982-.4175c9.164-12.6934,24.8108-21.823,24.9677-21.9134a1.10641,1.10641,0,1,0-1.1065-1.9163c-.6574.3795-16.2085,9.4485-25.6552,22.5342a1.10771,1.10771,0,0,0,.5958,1.713Z" transform="translate(-569.9983 -179.9993)"/>
                <polygon class="cls-7" points="878.985 406.239 883.509 412.138 884.391 407.062 873.343 398.885 878.985 406.239"/>
              </g>
              <polygon class="cls-7" points="984.324 564.332 1013.336 584.274 1010.528 566.792 984.324 564.332"/>
              <path class="cls-5" d="M1468.43,608.2562l5.2222,10.1407-26.6582,24.718-6.6574-8.861S1449.1151,622.512,1468.43,608.2562Z" transform="translate(-569.9983 -179.9993)"/>
              <path class="cls-9" d="M1446.994,643.1149s38.2272,144.3082,71.3748,159.1972,54.3575,5.5844,65.7357-4.6539c11.3781-10.2383,11.0143-46.4694,9.1662-56.482-1.8481-10.0125-38.948-2.6611-38.948-2.6611s-58.7629-117.8362-80.6705-120.1182C1473.6522,618.3969,1451.5004,631.0291,1446.994,643.1149Z" transform="translate(-569.9983 -179.9993)"/>
              <path class="cls-14" d="M1518.3687,803.5132a1.18485,1.18485,0,0,1-.4922-.1055c-33.2861-14.9531-70.4744-154.0691-72.0424-159.9848a1.20251,1.20251,0,0,1,.0351-.7265c1.5024-4.029,4.9758-8.4844,10.3243-13.2423a1.20031,1.20031,0,1,1,1.5937,1.7953c-4.889,4.3501-8.0953,8.3626-9.532,11.9345,2.2008,8.182,39.1688,143.9136,70.6056,158.0348a1.2,1.2,0,0,1-.4921,2.2945Z" transform="translate(-569.9983 -179.9993)"/>
              <path class="cls-16" d="M1593.2707,741.1762" transform="translate(-569.9983 -179.9993)"/>
              <path class="cls-14" d="M1554.3219,739.7162a1.19608,1.19608,0,0,1-1.0735-.6657c-20.2242-40.5516-62.9111-117.7081-79.7205-119.4612a1.19945,1.19945,0,0,1,.2484-2.386c22.3056,2.3227,79.2073,115.941,81.619,120.7785a1.19684,1.19684,0,0,1-.539,1.6078A1.17783,1.17783,0,0,1,1554.3219,739.7162Z" transform="translate(-569.9983 -179.9993)"/>
            </g>
          </g>
          <g>
            <g>
              <rect class="cls-4" x="1249.1366" y="764.2728" width="168.9433" height="15.5967" rx="2.3998" transform="translate(2097.2182 1364.143) rotate(180)"/>
              <path class="cls-17" d="M1046.2996,779.8695h222.6027a4.799,4.799,0,0,0,4.2339-7.06l-69.9581-130.9429a4.80011,4.80011,0,0,0-4.2339-2.538H976.3415a4.799,4.799,0,0,0-4.2338,7.06l69.9581,130.9429A4.80015,4.80015,0,0,0,1046.2996,779.8695Z" transform="translate(-569.9983 -179.9993)"/>
              <circle class="cls-8" cx="1122.62192" cy="709.59903" r="14.40004" transform="translate(-742.95223 821.65102) rotate(-45)"/>
            </g>
            <g>
              <path class="cls-3" d="M906.2849,770.2313l1.3076,8.4553,5.637-6.4363,24.9569-85.8438a3.61614,3.61614,0,0,0-2.4629-4.4818h0a3.61608,3.61608,0,0,0-4.4818,2.4628Z" transform="translate(-569.9983 -179.9993)"/>
              <path class="cls-3" d="M891.8701,682.7096l-3.8489-7.6412-3.3799,7.8599,2.7038,89.3571a3.61611,3.61611,0,0,0,3.7238,3.5051h0a3.616,3.616,0,0,0,3.505-3.7238Z" transform="translate(-569.9983 -179.9993)"/>
              <g>
                <path class="cls-17" d="M900.8375,646.046h11.35721a3,3,0,0,1,3,3V775.475a3,3,0,0,1-3,3H900.83756a3,3,0,0,1-3-3V649.046a2.99993,2.99993,0,0,1,2.99993-2.99993Z" transform="translate(1279.34406 1195.71079) rotate(176.97621)"/>
                <g>
                  <line class="cls-3" x1="330.3902" y1="471.1063" x2="336.7491" y2="591.4745"/>
                  <path class="cls-3" d="M906.8059,772.5975a1.12529,1.12529,0,0,0,1.0641-1.1828l-6.3589-120.3686a1.125,1.125,0,0,0-2.2469.1187l6.3589,120.3686A1.12542,1.12542,0,0,0,906.8059,772.5975Z" transform="translate(-569.9983 -179.9993)"/>
                </g>
              </g>
              <g>
                <path class="cls-3" d="M886.8224,721.6114h44.3767a7.0068,7.0068,0,0,1,7.0068,7.0068v51.3835a0,0,0,0,1,0,0H879.8156a0,0,0,0,1,0,0V728.6182A7.0068,7.0068,0,0,1,886.8224,721.6114Z" transform="translate(1248.0232 1321.6138) rotate(180)"/>
                <path class="cls-4" d="M879.6904,721.6114h58.6407a4.29589,4.29589,0,0,0,4.2958-4.2959h0a4.29589,4.29589,0,0,0-4.2958-4.2959H879.6904a4.29589,4.29589,0,0,0-4.2958,4.2959h0A4.29589,4.29589,0,0,0,879.6904,721.6114Z" transform="translate(-569.9983 -179.9993)"/>
                <path class="cls-2" d="M938.3311,721.6114v3.2116H895.8054a9,9,0,0,0-9.0001,9v30.1719a9.0001,9.0001,0,0,0,9.0001,9h42.4005a6.87456,6.87456,0,0,1-6.8745,6.8746H886.8356a7.02,7.02,0,0,1-7.02-7.0201v-51.238Z" transform="translate(-569.9983 -179.9993)"/>
              </g>
            </g>
            <g>
              <rect class="cls-4" x="802.8669" y="779.8728" width="824.3527" height="26.9083" rx="5.2331" transform="translate(1860.0882 1406.6546) rotate(180)"/>
              <rect class="cls-3" x="1359.0598" y="779.8728" width="269.6359" height="26.9083" rx="5.4585" transform="translate(2417.7572 1406.6546) rotate(180)"/>
              <g>
                <polygon class="cls-3" points="776.514 1200 805.955 1200 839.081 657.514 809.64 641.247 776.514 1200"/>
                <polygon class="cls-3" points="1058.697 1200 1029.256 1200 894.932 649.38 924.373 633.113 1058.697 1200"/>
                <polygon class="cls-2" points="1045.197 638.23 844.288 659.316 803.549 645.216 803.549 626.782 1045.197 626.782 1045.197 638.23"/>
              </g>
              <rect class="cls-3" x="817.1285" y="806.7811" width="556.4191" height="18.434" transform="translate(1620.6778 1451.9969) rotate(180)"/>
            </g>
          </g>
        </g>
        <g>
          <g>
            <path class="cls-4" d="M11.2284,0H605.9285a11.2284,11.2284,0,0,1,11.2284,11.2284V352.5695a11.2283,11.2283,0,0,1-11.2283,11.2283H11.2283A11.2283,11.2283,0,0,1,0,352.5695V11.2284A11.2284,11.2284,0,0,1,11.2284,0Z"/>
            <rect class="cls-3" x="493.9661" y="31.2789" width="95.2804" height="23.0983" rx="4.8"/>
            <rect class="cls-15" x="26.2262" y="31.2789" width="95.2803" height="23.0983" rx="4.8"/>
            <rect class="cls-8" x="48.5977" y="162.2818" width="154.2029" height="38.4343" rx="4.8"/>
            <rect class="cls-15" x="48.5977" y="219.1402" width="67.0312" height="20.1227" rx="10.0613"/>
            <g>
              <path class="cls-3" d="M266.3216,100.2185H552.2234a12,12,0,0,1,12,12V287.441a12.0001,12.0001,0,0,1-12.0001,12.0001H266.3217a12.0001,12.0001,0,0,1-12.0001-12.0001V112.2185A12,12,0,0,1,266.3216,100.2185Z"/>
              <path class="cls-15" d="M960.7729,437.6863l47.5295-70.3627a11.175,11.175,0,0,1,18.0812-.6055l55.1971,70.9682Z" transform="translate(-569.9983 -179.9993)"/>
              <path class="cls-8" d="M876.9609,437.6863l51.4244-112.4507a5.58746,5.58746,0,0,1,10.0253-.2795l59.358,112.7302Z" transform="translate(-569.9983 -179.9993)"/>
              <path class="cls-15" d="M1147.3282,500.5813H811.2147a7.42294,7.42294,0,0,1-7.4156-7.4156V266.494a7.423,7.423,0,0,1,7.4156-7.4157h336.1135a7.423,7.423,0,0,1,7.4156,7.4157V493.1657A7.42294,7.42294,0,0,1,1147.3282,500.5813ZM811.2147,263.8783a2.61974,2.61974,0,0,0-2.6156,2.6157V493.1657a2.61965,2.61965,0,0,0,2.6156,2.6156h336.1135a2.61965,2.61965,0,0,0,2.6156-2.6156V266.494a2.61974,2.61974,0,0,0-2.6156-2.6157Z" transform="translate(-569.9983 -179.9993)"/>
              <rect class="cls-8" x="401.8518" y="73.5863" width="14.8427" height="14.8426" rx="2.4"/>
              <rect class="cls-8" x="229.0513" y="73.5863" width="14.8427" height="14.8426" rx="2.4"/>
              <rect class="cls-8" x="574.4038" y="73.5863" width="14.8427" height="14.8426" rx="2.4"/>
              <rect class="cls-8" x="229.0513" y="192.4084" width="14.8427" height="14.8427" rx="2.4"/>
              <rect class="cls-8" x="574.4038" y="192.4084" width="14.8427" height="14.8427" rx="2.4"/>
              <rect class="cls-8" x="401.8518" y="311.2306" width="14.8427" height="14.8427" rx="2.4"/>
              <rect class="cls-8" x="229.0513" y="311.2306" width="14.8427" height="14.8427" rx="2.4"/>
              <rect class="cls-8" x="574.4038" y="311.2306" width="14.8427" height="14.8427" rx="2.4"/>
            </g>
            <path class="cls-8" d="M1082.0305,445.63l-.0814,60.2892a2.4,2.4,0,0,0,4.0763,1.7208l9.5727-9.3421a2.4,2.4,0,0,1,3.8358.6704l12.2571,25.2775a2.4,2.4,0,0,0,3.2067,1.1124l6.6322-3.216,6.6323-3.216a2.39994,2.39994,0,0,0,1.1123-3.2067l-12.2571-25.2775a2.4,2.4,0,0,1,1.8489-3.4269l13.2634-1.7312a2.4,2.4,0,0,0,1.1731-4.2662l-47.3886-37.2709A2.4,2.4,0,0,0,1082.0305,445.63Z" transform="translate(-569.9983 -179.9993)"/>
          </g>
          <g>
            <path class="cls-4" d="M942.2587,0h247.2885a10.4562,10.4562,0,0,1,10.4562,10.4562V171.033a10.4562,10.4562,0,0,1-10.4562,10.4562H942.2588a10.4562,10.4562,0,0,1-10.4562-10.4562V10.4561A10.4561,10.4561,0,0,1,942.2587,0Z"/>
            <circle class="cls-3" cx="1065.903" cy="90.7446" r="64.1573"/>
            <path class="cls-8" d="M1657.4474,245.6453l-25.5936,31.997a2.37021,2.37021,0,0,1-3.527.1955l-14.3558-14.3557a7.95453,7.95453,0,0,0-11.2495,0l-.2056.2056a7.95453,7.95453,0,0,0,0,11.2495l21.5614,21.5614a7.95455,7.95455,0,0,0,11.7049-.4957l33.9599-40.2572a7.9546,7.9546,0,0,0-.4554-10.7538l-.0027-.0027A7.95466,7.95466,0,0,0,1657.4474,245.6453Z" transform="translate(-569.9983 -179.9993)"/>
          </g>
          <line class="cls-18" x1="639.3963" y1="90.7446" x2="905.5165" y2="90.7446"/>
        </g>
      </g>
    </g>
  </g>
</svg>
