<svg width="99" height="98" viewBox="0 0 99 98" fill="none" xmlns="http://www.w3.org/2000/svg">
<path d="M34.7635 74.2716L62.8857 62.9989C70.6485 59.8872 74.3041 50.7698 71.0468 42.6439L75.7338 40.7651C86.0746 36.62 90.9542 24.4494 86.6153 13.625C82.2764 2.80068 70.3414 -2.6298 60.0006 1.51527L2.58454 24.5304C0.636494 25.3112 -0.273132 27.58 0.544257 29.6191L14.8025 65.1893C18.0597 73.3152 27.0006 77.3833 34.7635 74.2716ZM63.9339 11.3277C69.1043 9.25519 75.0718 11.9704 77.2413 17.3826C79.4107 22.7948 76.9709 28.8801 71.8005 30.9526L67.1135 32.8314L59.2469 13.2065L63.9339 11.3277ZM94.5203 67.4019L19.6158 97.4272C12.6438 100.222 6.74783 91.1962 10.4096 89.7284L95.8453 55.4817C99.507 54.0139 101.507 64.6013 94.5203 67.4019Z" fill="white"/>
</svg>
