<svg width="52" height="52" viewBox="0 0 52 52" fill="none" xmlns="http://www.w3.org/2000/svg">
<rect width="52" height="52" rx="26" fill="url(#paint0_linear_102_4)"/>
<path d="M21.16 23.56C22.06 23.7 22.9 24.14 23.5 24.8C24.12 25.48 24.46 26.36 24.46 27.26C24.46 29.32 22.72 31 20.6 31H10.96C9.96 31 9 30.62 8.26 29.94C7.52 29.22 7.12 28.28 7.12 27.26H10.18C10.18 27.48 10.3 27.62 10.38 27.7C10.54 27.86 10.74 27.94 10.96 27.94H20.6C21.04 27.94 21.38 27.64 21.38 27.26C21.38 26.94 21.1 26.66 20.72 26.6L10.4 25.12C9.5 25 8.68 24.56 8.06 23.9C7.46 23.2 7.12 22.34 7.12 21.42C7.12 19.36 8.84 17.68 10.96 17.68H20.6C21.62 17.68 22.58 18.06 23.3 18.74C24.04 19.46 24.46 20.4 24.46 21.42H21.38C21.38 21.22 21.28 21.06 21.18 20.98C21.04 20.84 20.82 20.76 20.6 20.76H10.96C10.54 20.76 10.18 21.06 10.18 21.42C10.18 21.74 10.46 22.02 10.84 22.08L21.16 23.56ZM44.3164 17.66L37.1364 21.84L44.2764 31.02H40.3764L34.4764 23.4L29.9764 26.02V31.02H26.9164V17.68H29.9764V22.46L38.2164 17.66H44.3164Z" fill="white"/>
<defs>
<linearGradient id="paint0_linear_102_4" x1="0" y1="0" x2="54.7413" y2="3.06663" gradientUnits="userSpaceOnUse">
<stop stop-color="#B10A1D"/>
<stop offset="1" stop-color="#A506D0"/>
</linearGradient>
</defs>
</svg>
