<svg width="26" height="26" viewBox="0 0 26 26" fill="none" xmlns="http://www.w3.org/2000/svg">
<path d="M17.269 8.21533C16.5609 3.85498 14.891 0.793457 12.9477 0.793457C11.0043 0.793457 9.33438 3.85498 8.62637 8.21533H17.269ZM8.26016 12.9028C8.26016 13.9868 8.31876 15.0269 8.4213 16.0278H17.4691C17.5717 15.0269 17.6303 13.9868 17.6303 12.9028C17.6303 11.8188 17.5717 10.7788 17.4691 9.77783H8.4213C8.31876 10.7788 8.26016 11.8188 8.26016 12.9028ZM24.1147 8.21533C22.7182 4.8999 19.891 2.33643 16.3998 1.30127C17.5912 2.95166 18.4115 5.43701 18.8412 8.21533H24.1147ZM9.49063 1.30127C6.0043 2.33643 3.17227 4.8999 1.78067 8.21533H7.05411C7.47891 5.43701 8.29922 2.95166 9.49063 1.30127ZM24.6371 9.77783H19.0365C19.1391 10.8032 19.1977 11.853 19.1977 12.9028C19.1977 13.9526 19.1391 15.0024 19.0365 16.0278H24.6322C24.9008 15.0269 25.0522 13.9868 25.0522 12.9028C25.0522 11.8188 24.9008 10.7788 24.6371 9.77783ZM6.69766 12.9028C6.69766 11.853 6.75626 10.8032 6.8588 9.77783H1.25821C0.994537 10.7788 0.838287 11.8188 0.838287 12.9028C0.838287 13.9868 0.994537 15.0269 1.25821 16.0278H6.85391C6.75626 15.0024 6.69766 13.9526 6.69766 12.9028ZM8.62637 17.5903C9.33438 21.9507 11.0043 25.0122 12.9477 25.0122C14.891 25.0122 16.5609 21.9507 17.269 17.5903H8.62637ZM16.4047 24.5044C19.891 23.4692 22.7231 20.9058 24.1195 17.5903H18.8461C18.4164 20.3687 17.5961 22.854 16.4047 24.5044ZM1.78067 17.5903C3.17715 20.9058 6.0043 23.4692 9.49551 24.5044C8.30411 22.854 7.4838 20.3687 7.05411 17.5903H1.78067Z" fill="white"/>
</svg>
