<svg width="668" height="145" viewBox="0 0 668 145" fill="none" xmlns="http://www.w3.org/2000/svg">
<path d="M546.602 29.4536C554.494 29.4536 560.891 23.0561 560.891 15.1643C560.891 7.2725 554.494 0.875 546.602 0.875C538.71 0.875 532.312 7.2725 532.312 15.1643C532.312 23.0561 538.71 29.4536 546.602 29.4536ZM511.164 64.8911C519.056 64.8911 525.454 58.4936 525.454 50.6018C525.454 42.71 519.056 36.3125 511.164 36.3125C503.273 36.3125 496.875 42.71 496.875 50.6018C496.875 58.4936 503.273 64.8911 511.164 64.8911ZM546.602 64.8911C554.494 64.8911 560.891 58.4936 560.891 50.6018C560.891 42.71 554.494 36.3125 546.602 36.3125C538.71 36.3125 532.312 42.71 532.312 50.6018C532.312 58.4936 538.71 64.8911 546.602 64.8911ZM546.602 100.329C554.494 100.329 560.891 93.9311 560.891 86.0393C560.891 78.1475 554.494 71.75 546.602 71.75C538.71 71.75 532.312 78.1475 532.312 86.0393C532.312 93.9311 538.71 100.329 546.602 100.329ZM582.039 100.329C589.931 100.329 596.329 93.9311 596.329 86.0393C596.329 78.1475 589.931 71.75 582.039 71.75C574.148 71.75 567.75 78.1475 567.75 86.0393C567.75 93.9311 574.148 100.329 582.039 100.329ZM617.477 100.329C625.369 100.329 631.766 93.9311 631.766 86.0393C631.766 78.1475 625.369 71.75 617.477 71.75C609.585 71.75 603.188 78.1475 603.188 86.0393C603.188 93.9311 609.585 100.329 617.477 100.329ZM652.914 100.329C660.806 100.329 667.204 93.9311 667.204 86.0393C667.204 78.1475 660.806 71.75 652.914 71.75C645.023 71.75 638.625 78.1475 638.625 86.0393C638.625 93.9311 645.023 100.329 652.914 100.329ZM582.039 135.766C589.931 135.766 596.329 129.369 596.329 121.477C596.329 113.585 589.931 107.188 582.039 107.188C574.148 107.188 567.75 113.585 567.75 121.477C567.75 129.369 574.148 135.766 582.039 135.766ZM617.477 135.766C625.369 135.766 631.766 129.369 631.766 121.477C631.766 113.585 625.369 107.188 617.477 107.188C609.585 107.188 603.188 113.585 603.188 121.477C603.188 129.369 609.585 135.766 617.477 135.766ZM652.914 135.766C660.806 135.766 667.204 129.369 667.204 121.477C667.204 113.585 660.806 107.188 652.914 107.188C645.023 107.188 638.625 113.585 638.625 121.477C638.625 129.369 645.023 135.766 652.914 135.766ZM85.9143 64.8911C93.8061 64.8911 100.204 58.4936 100.204 50.6018C100.204 42.71 93.8061 36.3125 85.9143 36.3125C78.0225 36.3125 71.625 42.71 71.625 50.6018C71.625 58.4936 78.0225 64.8911 85.9143 64.8911ZM121.352 64.8911C129.244 64.8911 135.641 58.4936 135.641 50.6018C135.641 42.71 129.244 36.3125 121.352 36.3125C113.46 36.3125 107.062 42.71 107.062 50.6018C107.062 58.4936 113.46 64.8911 121.352 64.8911ZM156.789 64.8911C164.681 64.8911 171.079 58.4936 171.079 50.6018C171.079 42.71 164.681 36.3125 156.789 36.3125C148.898 36.3125 142.5 42.71 142.5 50.6018C142.5 58.4936 148.898 64.8911 156.789 64.8911ZM192.227 64.8911C200.119 64.8911 206.516 58.4936 206.516 50.6018C206.516 42.71 200.119 36.3125 192.227 36.3125C184.335 36.3125 177.938 42.71 177.938 50.6018C177.938 58.4936 184.335 64.8911 192.227 64.8911ZM227.664 64.8911C235.556 64.8911 241.954 58.4936 241.954 50.6018C241.954 42.71 235.556 36.3125 227.664 36.3125C219.773 36.3125 213.375 42.71 213.375 50.6018C213.375 58.4936 219.773 64.8911 227.664 64.8911ZM263.102 64.8911C270.994 64.8911 277.391 58.4936 277.391 50.6018C277.391 42.71 270.994 36.3125 263.102 36.3125C255.21 36.3125 248.812 42.71 248.812 50.6018C248.812 58.4936 255.21 64.8911 263.102 64.8911ZM298.539 64.8911C306.431 64.8911 312.829 58.4936 312.829 50.6018C312.829 42.71 306.431 36.3125 298.539 36.3125C290.648 36.3125 284.25 42.71 284.25 50.6018C284.25 58.4936 290.648 64.8911 298.539 64.8911ZM156.789 100.329C164.681 100.329 171.079 93.9311 171.079 86.0393C171.079 78.1475 164.681 71.75 156.789 71.75C148.898 71.75 142.5 78.1475 142.5 86.0393C142.5 93.9311 148.898 100.329 156.789 100.329ZM227.664 100.329C235.556 100.329 241.954 93.9311 241.954 86.0393C241.954 78.1475 235.556 71.75 227.664 71.75C219.773 71.75 213.375 78.1475 213.375 86.0393C213.375 93.9311 219.773 100.329 227.664 100.329ZM263.102 100.329C270.994 100.329 277.391 93.9311 277.391 86.0393C277.391 78.1475 270.994 71.75 263.102 71.75C255.21 71.75 248.812 78.1475 248.812 86.0393C248.812 93.9311 255.21 100.329 263.102 100.329ZM15.0393 135.766C22.9311 135.766 29.3286 129.369 29.3286 121.477C29.3286 113.585 22.9311 107.188 15.0393 107.188C7.1475 107.188 0.75 113.585 0.75 121.477C0.75 129.369 7.1475 135.766 15.0393 135.766ZM298.539 135.766C306.431 135.766 312.829 129.369 312.829 121.477C312.829 113.585 306.431 107.188 298.539 107.188C290.648 107.188 284.25 113.585 284.25 121.477C284.25 129.369 290.648 135.766 298.539 135.766Z" fill="#AD009F" fill-opacity="0.25"/>
</svg>
