<svg width="322" height="404" viewBox="0 0 322 404" fill="none" xmlns="http://www.w3.org/2000/svg">
<path d="M309.557 167.86L310.51 167.974C311.037 168.036 311.413 168.517 311.35 169.048L303.892 231.853C303.829 232.384 303.351 232.764 302.824 232.701L301.871 232.588L309.557 167.86ZM35.1738 214.568L34.2202 214.455C33.6936 214.392 33.3178 213.911 33.3808 213.38L37.8706 175.569C37.9337 175.038 38.4117 174.658 38.9384 174.721L39.8919 174.834L35.1738 214.568Z" fill="#1C3343"/>
<path d="M41.4141 162.017L40.4605 161.903C39.9338 161.841 39.558 161.36 39.621 160.829L44.1108 123.018C44.1739 122.487 44.6519 122.107 45.1786 122.169L46.1322 122.283L41.4141 162.017ZM48.416 103.057L47.4624 102.943C46.9358 102.881 46.5599 102.4 46.623 101.869L48.8298 83.284C48.8929 82.753 49.3709 82.373 49.8976 82.436L50.8512 82.549L48.416 103.057Z" fill="#7C7C7C"/>
<path d="M54.2742 53.7099C56.1156 38.203 57.036 30.4496 59.804 24.4149C65.397 12.2185 76.441 3.44685 89.51 0.820053C95.977 -0.479647 103.668 0.433652 119.05 2.26025L268.446 19.9999C283.828 21.8265 291.519 22.7398 297.502 25.5177C309.593 31.1321 318.275 42.2459 320.857 55.4131C322.134 61.928 321.213 69.6815 319.372 85.188L267.929 518.415C266.088 533.922 265.167 541.675 262.4 547.71C256.806 559.907 245.763 568.678 232.693 571.305C226.227 572.605 218.536 571.691 203.153 569.865L53.7577 552.125C38.3753 550.298 30.684 549.385 24.7017 546.607C12.6109 540.993 3.9286 529.879 1.347 516.712C0.069599 510.197 0.990299 502.444 2.8316 486.937L54.2742 53.7099Z" fill="#7C7C7C"/>
<path fill-rule="evenodd" clip-rule="evenodd" d="M268.549 21.3117L118.645 3.51164C103.449 1.70734 96.002 0.830937 89.759 2.08564C77.092 4.63154 66.388 13.1332 60.967 24.9543C58.295 30.7799 57.396 38.2861 55.5771 53.6042L4.07357 487.344C2.25457 502.662 1.37107 510.17 2.60417 516.459C5.10637 529.221 13.5215 539.993 25.2402 545.435C31.0153 548.117 38.4613 549.009 53.6565 550.813L203.561 568.613C218.756 570.417 226.204 571.294 232.446 570.039C245.113 567.493 255.817 558.992 261.238 547.17C263.91 541.345 264.809 533.839 266.628 518.52L318.132 84.7808C319.951 69.4626 320.834 61.9546 319.601 55.6653C317.099 42.9033 308.684 32.1314 296.965 26.6898C291.19 24.0082 283.744 23.116 268.549 21.3117ZM60.386 24.6845C57.661 30.6263 56.7543 38.2605 54.9413 53.5288L3.43777 487.268C1.62477 502.537 0.718275 510.171 1.97597 516.586C4.51787 529.55 13.0667 540.493 24.9714 546.021C30.8617 548.756 38.4346 549.656 53.5804 551.454L203.485 569.254C218.63 571.052 226.203 571.952 232.57 570.672C245.439 568.086 256.312 559.449 261.82 547.44C264.545 541.498 265.451 533.864 267.264 518.596L318.768 84.8558C320.581 69.588 321.487 61.9538 320.229 55.5391C317.687 42.5745 309.139 31.6316 297.234 26.1037C291.344 23.3685 283.771 22.4692 268.625 20.6708L118.721 2.87074C103.575 1.07234 96.002 0.173037 89.635 1.45274C76.767 4.03914 65.893 12.6757 60.386 24.6845Z" fill="#5F0067"/>
<path d="M57.606 52.8053C59.305 38.4912 60.155 31.3342 62.71 25.7638C67.873 14.5055 78.067 6.40872 90.131 3.98402C96.1 2.78432 103.2 3.62732 117.399 5.31332L269.337 23.355C283.537 25.041 290.636 25.884 296.158 28.4483C307.319 33.6308 315.334 43.8897 317.717 56.044C318.896 62.0578 318.046 69.2148 316.346 83.5287L264.599 519.319C262.899 533.633 262.05 540.79 259.495 546.361C254.332 557.619 244.138 565.716 232.074 568.141C226.105 569.34 219.005 568.497 204.806 566.811L52.8674 548.77C38.6683 547.084 31.5687 546.241 26.0465 543.676C14.8858 538.494 6.87141 528.235 4.48831 516.081C3.30921 510.067 4.15911 502.91 5.85881 488.596L57.606 52.8053Z" fill="#121515"/>
<path d="M269.717 20.1509L273.531 20.6039L273.151 23.8082L269.336 23.3552L269.717 20.1509ZM316.574 81.607L319.753 81.9844L319.296 85.8296L316.117 85.4522L316.574 81.607ZM54.6543 50.5055L57.833 50.8829L57.3764 54.7281L54.1977 54.3507L54.6543 50.5055Z" fill="#36454C"/>
<mask id="mask0_9_241" style="mask-type:alpha" maskUnits="userSpaceOnUse" x="12" y="12" width="298" height="548">
<path d="M126.381 21.9777L126.724 19.0938C126.955 17.1471 125.577 15.3831 123.646 15.1538L115.457 14.1815C102.657 12.6615 96.256 11.9015 90.921 13.2398C82.534 15.3434 75.443 20.9761 71.45 28.7044C68.911 33.6213 68.144 40.0735 66.612 52.9779L14.655 490.537C13.1227 503.441 12.3566 509.894 13.6744 515.269C15.7458 523.717 21.3212 530.854 28.9816 534.863C33.8554 537.413 40.2558 538.173 53.0566 539.693L206.75 557.943C219.551 559.463 225.951 560.223 231.286 558.885C239.673 556.782 246.764 551.149 250.757 543.42C253.297 538.504 254.063 532.051 255.595 519.147L307.552 81.5879C309.084 68.6834 309.851 62.2312 308.533 56.8563C306.461 48.408 300.886 41.2711 293.226 37.2621C288.352 34.7115 281.951 33.9515 269.151 32.4315L260.962 31.4592C259.031 31.2299 257.278 32.6221 257.047 34.5688L256.705 37.4527L256.659 37.4458L256.667 37.7731C255.763 45.3829 248.911 50.8251 241.363 49.9288L138.375 37.6997C130.826 36.8034 125.439 29.9078 126.343 22.2981L126.427 21.9817L126.381 21.9777Z" fill="#C4C4C4"/>
</mask>
<g mask="url(#mask0_9_241)">
<path d="M71.834 9.00146L312.774 37.6115L250.374 563.124L9.43323 534.514L71.834 9.00146Z" fill="#161616"/>
</g>
<path fill-rule="evenodd" clip-rule="evenodd" d="M217.724 39.973C220.533 40.3065 223.082 38.2815 223.418 35.4499C223.755 32.6184 221.75 30.0526 218.941 29.7191C216.132 29.3855 213.583 31.4106 213.247 34.2421C212.91 37.0736 214.915 39.6394 217.724 39.973Z" fill="#262C2D"/>
<path fill-rule="evenodd" clip-rule="evenodd" d="M217.953 38.0503C219.708 38.2587 221.302 36.9931 221.512 35.2234C221.722 33.4537 220.469 31.85 218.714 31.6416C216.958 31.4331 215.365 32.6988 215.155 34.4685C214.945 36.2382 216.197 37.8418 217.953 38.0503Z" fill="#121515"/>
<path opacity="0.4" fill-rule="evenodd" clip-rule="evenodd" d="M218.409 34.2051C218.76 34.2468 219.079 33.9937 219.121 33.6398C219.163 33.2858 218.913 32.9651 218.562 32.9234C218.21 32.8817 217.892 33.1348 217.85 33.4888C217.808 33.8427 218.058 34.1635 218.409 34.2051Z" fill="#636F73"/>
<path fill-rule="evenodd" clip-rule="evenodd" d="M175.739 29.7886C175.865 28.7268 176.828 27.9682 177.889 28.0943L205.195 31.3366C206.257 31.4627 207.015 32.4257 206.889 33.4875C206.763 34.5494 205.8 35.3079 204.738 35.1818L177.433 31.9395C176.371 31.8134 175.612 30.8504 175.739 29.7886Z" fill="#262C2D"/>
<path d="M215.711 378.541L216.744 370.124L218.316 370.317L221.173 376.987L220.538 376.909L225.018 371.14L226.447 371.315L225.414 379.732L224.032 379.563L224.855 372.861L225.092 373.035L221.005 378.224L220.338 378.142L217.625 372.005L217.935 371.979L217.108 378.712L215.711 378.541ZM211.52 378.026L211.739 376.248L211.7 375.904L212.073 372.871C212.152 372.225 212.022 371.704 211.684 371.308C211.358 370.903 210.819 370.654 210.067 370.562C209.569 370.501 209.064 370.526 208.575 370.636C208.079 370.737 207.65 370.904 207.288 371.139L206.793 369.918C207.27 369.622 207.821 369.421 208.447 369.315C209.084 369.2 209.737 369.183 210.404 369.265C211.558 369.407 212.412 369.796 212.968 370.434C213.524 371.072 213.731 371.968 213.589 373.122L212.965 378.204L211.52 378.026ZM208.745 377.782C208.121 377.706 207.583 377.532 207.133 377.262C206.693 376.993 206.369 376.658 206.16 376.256C205.953 375.844 205.878 375.399 205.937 374.923C205.993 374.468 206.149 374.068 206.406 373.723C206.674 373.38 207.065 373.127 207.58 372.964C208.105 372.803 208.785 372.774 209.622 372.877L212.29 373.204L212.155 374.3L209.551 373.98C208.788 373.887 208.259 373.951 207.963 374.172C207.667 374.394 207.497 374.685 207.453 375.044C207.403 375.457 207.526 375.811 207.823 376.105C208.121 376.389 208.561 376.567 209.144 376.638C209.715 376.709 210.229 376.643 210.683 376.441C211.148 376.24 211.506 375.908 211.757 375.444L211.93 376.529C211.667 377.002 211.264 377.355 210.719 377.59C210.176 377.813 209.518 377.877 208.745 377.782ZM200.942 376.824C200.085 376.719 199.34 376.44 198.708 375.986C198.087 375.533 197.625 374.961 197.323 374.268C197.021 373.576 196.922 372.811 197.024 371.975C197.127 371.138 197.409 370.421 197.869 369.822C198.329 369.223 198.915 368.784 199.626 368.506C200.35 368.219 201.14 368.128 201.997 368.233C202.76 368.327 203.418 368.563 203.974 368.943C204.541 369.314 204.952 369.815 205.207 370.449L203.956 371.053C203.732 370.606 203.43 370.263 203.051 370.023C202.684 369.773 202.273 369.621 201.818 369.565C201.267 369.497 200.76 369.559 200.296 369.749C199.832 369.939 199.446 370.241 199.137 370.654C198.83 371.057 198.639 371.56 198.565 372.164C198.491 372.767 198.553 373.307 198.753 373.783C198.952 374.259 199.254 374.645 199.658 374.942C200.063 375.239 200.54 375.421 201.09 375.488C201.546 375.544 201.981 375.501 202.396 375.359C202.823 375.207 203.199 374.941 203.525 374.562L204.595 375.435C204.195 375.977 203.674 376.37 203.032 376.613C202.401 376.848 201.705 376.918 200.942 376.824ZM190.705 375.567C189.858 375.463 189.129 375.186 188.518 374.735C187.907 374.284 187.451 373.712 187.149 373.019C186.849 372.316 186.749 371.551 186.85 370.726C186.953 369.889 187.235 369.171 187.695 368.572C188.156 367.973 188.736 367.534 189.437 367.255C190.139 366.965 190.913 366.872 191.76 366.976C192.596 367.079 193.32 367.356 193.931 367.807C194.554 368.249 195.011 368.815 195.302 369.506C195.605 370.189 195.705 370.953 195.601 371.8C195.498 372.636 195.217 373.354 194.756 373.953C194.306 374.553 193.725 374.998 193.013 375.287C192.311 375.577 191.542 375.67 190.705 375.567ZM190.869 374.233C191.409 374.3 191.906 374.237 192.359 374.046C192.823 373.855 193.204 373.553 193.502 373.138C193.801 372.713 193.988 372.204 194.06 371.611C194.134 371.007 194.076 370.474 193.886 370.01C193.697 369.535 193.401 369.149 192.997 368.853C192.603 368.557 192.136 368.376 191.596 368.31C191.056 368.244 190.56 368.306 190.106 368.498C189.653 368.689 189.272 368.992 188.963 369.405C188.656 369.808 188.465 370.311 188.391 370.915C188.318 371.508 188.381 372.047 188.579 372.534C188.779 373.01 189.075 373.395 189.469 373.691C189.862 373.986 190.329 374.167 190.869 374.233ZM180.63 374.33C179.931 374.244 179.31 374.007 178.767 373.618C178.236 373.219 177.834 372.681 177.563 372.003C177.302 371.326 177.23 370.511 177.347 369.559C177.464 368.606 177.726 367.832 178.132 367.237C178.549 366.643 179.063 366.223 179.673 365.975C180.295 365.729 180.965 365.65 181.685 365.739C182.511 365.84 183.219 366.11 183.81 366.548C184.401 366.986 184.843 367.55 185.134 368.242C185.426 368.922 185.52 369.692 185.415 370.549C185.309 371.407 185.032 372.136 184.582 372.736C184.132 373.336 183.568 373.777 182.888 374.059C182.209 374.341 181.456 374.432 180.63 374.33ZM175.801 376.768L177.213 365.27L178.674 365.45L178.395 367.721L178.06 369.662L177.979 371.635L177.326 376.955L175.801 376.768ZM180.667 372.981C181.207 373.047 181.704 372.984 182.157 372.793C182.621 372.603 183.002 372.3 183.3 371.885C183.61 371.461 183.801 370.953 183.874 370.36C183.948 369.757 183.885 369.222 183.684 368.757C183.495 368.282 183.199 367.897 182.795 367.6C182.401 367.304 181.934 367.123 181.394 367.057C180.865 366.992 180.368 367.055 179.904 367.245C179.451 367.436 179.07 367.739 178.761 368.152C178.464 368.557 178.279 369.06 178.205 369.664C178.132 370.257 178.189 370.796 178.377 371.281C178.577 371.757 178.873 372.142 179.267 372.438C179.671 372.735 180.138 372.916 180.667 372.981ZM165.431 372.367L166.465 363.951L174.262 364.908L173.229 373.325L171.704 373.138L172.621 365.674L172.939 366.1L167.46 365.427L167.872 365.091L166.956 372.555L165.431 372.367ZM158.852 371.656C158.005 371.552 157.276 371.275 156.665 370.823C156.054 370.372 155.598 369.8 155.296 369.108C154.995 368.405 154.896 367.64 154.997 366.814C155.1 365.978 155.381 365.26 155.842 364.661C156.302 364.062 156.883 363.623 157.583 363.344C158.285 363.054 159.06 362.961 159.907 363.065C160.743 363.167 161.467 363.444 162.077 363.895C162.7 364.337 163.157 364.904 163.449 365.595C163.752 366.277 163.851 367.042 163.747 367.889C163.645 368.725 163.363 369.443 162.903 370.042C162.453 370.642 161.872 371.087 161.159 371.375C160.457 371.665 159.688 371.759 158.852 371.656ZM159.015 370.322C159.555 370.389 160.052 370.326 160.505 370.134C160.969 369.944 161.35 369.642 161.649 369.227C161.948 368.802 162.134 368.292 162.207 367.7C162.281 367.096 162.223 366.562 162.033 366.098C161.844 365.624 161.547 365.238 161.143 364.941C160.749 364.646 160.283 364.465 159.743 364.399C159.203 364.332 158.706 364.395 158.253 364.587C157.799 364.778 157.418 365.081 157.11 365.494C156.802 365.897 156.611 366.4 156.537 367.003C156.465 367.596 156.527 368.136 156.725 368.622C156.925 369.098 157.222 369.484 157.615 369.78C158.009 370.075 158.475 370.256 159.015 370.322ZM145.504 369.921L146.537 361.504L150.444 361.983C151.428 362.104 152.178 362.39 152.692 362.84C153.218 363.281 153.439 363.845 153.355 364.533C153.27 365.221 152.935 365.723 152.348 366.038C151.773 366.343 151.046 366.442 150.167 366.334L150.456 365.951C151.462 366.074 152.186 366.351 152.627 366.781C153.069 367.212 153.245 367.787 153.157 368.507C153.067 369.237 152.722 369.775 152.121 370.12C151.531 370.456 150.675 370.556 149.553 370.418L145.504 369.921ZM147.141 368.929L149.586 369.229C150.222 369.307 150.71 369.27 151.051 369.119C151.393 368.956 151.591 368.658 151.644 368.224C151.699 367.78 151.59 367.438 151.318 367.201C151.059 366.954 150.616 366.792 149.992 366.716L147.451 366.404L147.141 368.929ZM147.585 365.308L149.872 365.589C150.454 365.66 150.907 365.608 151.229 365.433C151.564 365.248 151.755 364.96 151.803 364.568C151.852 364.166 151.736 363.845 151.453 363.607C151.182 363.369 150.755 363.214 150.172 363.143L147.886 362.862L147.585 365.308ZM128.568 367.841L129.602 359.424L131.174 359.617L134.03 366.287L133.395 366.209L137.875 360.44L139.305 360.616L138.271 369.033L136.89 368.863L137.712 362.161L137.949 362.335L133.862 367.524L133.195 367.442L130.483 361.306L130.792 361.279L129.966 368.013L128.568 367.841ZM122.332 367.172C121.433 367.062 120.661 366.779 120.019 366.324C119.386 365.87 118.92 365.297 118.618 364.604C118.326 363.913 118.232 363.149 118.335 362.313C118.438 361.476 118.709 360.757 119.148 360.156C119.598 359.555 120.162 359.114 120.842 358.832C121.533 358.541 122.281 358.445 123.086 358.544C123.901 358.644 124.599 358.912 125.179 359.349C125.76 359.785 126.184 360.353 126.453 361.053C126.734 361.743 126.821 362.522 126.714 363.39C126.706 363.453 126.692 363.527 126.671 363.61C126.66 363.695 126.645 363.774 126.626 363.847L119.464 362.967L119.598 361.871L125.966 362.653L125.3 362.958C125.377 362.42 125.325 361.924 125.144 361.472C124.963 361.02 124.681 360.652 124.296 360.369C123.924 360.076 123.468 359.896 122.928 359.83C122.398 359.765 121.912 359.829 121.469 360.022C121.028 360.204 120.664 360.498 120.378 360.903C120.093 361.298 119.917 361.771 119.849 362.321L119.818 362.575C119.749 363.137 119.814 363.655 120.014 364.131C120.225 364.598 120.549 364.981 120.985 365.282C121.421 365.583 121.94 365.77 122.544 365.844C123.041 365.905 123.502 365.876 123.925 365.756C124.359 365.637 124.75 365.427 125.098 365.126L125.819 366.214C125.383 366.612 124.865 366.892 124.265 367.055C123.675 367.219 123.031 367.258 122.332 367.172ZM113.304 366.064C112.446 365.958 111.701 365.679 111.069 365.225C110.448 364.773 109.986 364.2 109.684 363.508C109.383 362.815 109.283 362.05 109.386 361.214C109.488 360.378 109.77 359.66 110.23 359.061C110.691 358.462 111.277 358.023 111.988 357.745C112.711 357.458 113.501 357.367 114.359 357.472C115.121 357.566 115.78 357.803 116.335 358.182C116.902 358.553 117.313 359.055 117.569 359.688L116.318 360.292C116.093 359.845 115.791 359.502 115.412 359.262C115.045 359.013 114.634 358.86 114.179 358.804C113.629 358.737 113.121 358.798 112.657 358.988C112.193 359.178 111.807 359.48 111.498 359.894C111.191 360.297 111 360.8 110.926 361.403C110.852 362.007 110.915 362.546 111.114 363.022C111.314 363.498 111.615 363.884 112.02 364.181C112.424 364.478 112.901 364.66 113.452 364.728C113.907 364.784 114.342 364.74 114.757 364.598C115.184 364.446 115.561 364.181 115.887 363.802L116.956 364.674C116.557 365.216 116.036 365.609 115.393 365.853C114.763 366.087 114.066 366.157 113.304 366.064ZM99.892 364.32L100.926 355.903L104.832 356.383C105.817 356.504 106.567 356.789 107.081 357.24C107.607 357.68 107.828 358.245 107.743 358.933C107.659 359.621 107.323 360.123 106.737 360.437C106.162 360.743 105.435 360.842 104.556 360.734L104.845 360.35C105.851 360.474 106.574 360.751 107.016 361.181C107.458 361.611 107.634 362.186 107.546 362.906C107.456 363.637 107.111 364.175 106.509 364.52C105.92 364.856 105.064 364.955 103.942 364.817L99.892 364.32ZM101.529 363.328L103.975 363.629C104.61 363.707 105.098 363.67 105.439 363.518C105.782 363.356 105.98 363.058 106.033 362.624C106.087 362.179 105.979 361.838 105.707 361.601C105.447 361.354 105.005 361.192 104.38 361.115L101.839 360.803L101.529 363.328ZM101.974 359.708L104.261 359.988C104.843 360.06 105.295 360.008 105.618 359.833C105.952 359.648 106.143 359.36 106.192 358.968C106.241 358.566 106.124 358.245 105.842 358.006C105.57 357.769 105.143 357.614 104.561 357.543L102.274 357.262L101.974 359.708ZM89.047 363.085C88.2 362.981 87.471 362.704 86.86 362.253C86.249 361.802 85.793 361.23 85.491 360.537C85.19 359.834 85.091 359.069 85.192 358.244C85.295 357.407 85.577 356.689 86.037 356.09C86.497 355.491 87.078 355.052 87.779 354.773C88.48 354.483 89.255 354.39 90.102 354.494C90.938 354.597 91.662 354.873 92.273 355.325C92.896 355.767 93.353 356.333 93.644 357.024C93.947 357.706 94.047 358.471 93.943 359.318C93.84 360.154 93.558 360.872 93.098 361.471C92.648 362.071 92.067 362.516 91.354 362.804C90.652 363.094 89.883 363.188 89.047 363.085ZM89.211 361.751C89.751 361.818 90.247 361.755 90.701 361.564C91.165 361.373 91.546 361.071 91.844 360.656C92.143 360.231 92.329 359.722 92.402 359.129C92.476 358.525 92.418 357.992 92.228 357.528C92.039 357.053 91.743 356.667 91.338 356.371C90.945 356.075 90.478 355.894 89.938 355.828C89.398 355.762 88.901 355.824 88.448 356.016C87.995 356.207 87.614 356.51 87.305 356.923C86.998 357.326 86.807 357.829 86.733 358.433C86.66 359.026 86.723 359.565 86.921 360.052C87.12 360.527 87.417 360.913 87.81 361.209C88.204 361.504 88.671 361.685 89.211 361.751ZM74.707 361.228L75.74 352.811L83.538 353.768L82.504 362.185L80.98 361.998L81.896 354.534L82.215 354.96L76.736 354.287L77.148 353.951L76.231 361.415L74.707 361.228ZM221.023 358.035L222.057 349.619L223.629 349.812L226.485 356.481L225.85 356.403L230.331 350.635L231.76 350.81L230.726 359.227L229.345 359.057L230.168 352.355L230.404 352.53L226.317 357.718L225.65 357.636L222.938 351.5L223.247 351.474L222.421 358.207L221.023 358.035ZM214.788 357.366C213.888 357.256 213.116 356.973 212.474 356.518C211.842 356.064 211.375 355.491 211.073 354.799C210.782 354.107 210.687 353.343 210.79 352.507C210.893 351.671 211.164 350.952 211.603 350.35C212.053 349.75 212.617 349.309 213.297 349.027C213.988 348.735 214.736 348.639 215.541 348.738C216.356 348.838 217.054 349.106 217.634 349.543C218.215 349.98 218.639 350.548 218.908 351.247C219.189 351.937 219.276 352.716 219.169 353.584C219.161 353.648 219.147 353.721 219.126 353.805C219.116 353.889 219.1 353.968 219.081 354.041L211.919 353.161L212.053 352.066L218.421 352.848L217.755 353.153C217.832 352.614 217.78 352.119 217.599 351.667C217.418 351.215 217.136 350.847 216.751 350.563C216.379 350.27 215.923 350.091 215.383 350.024C214.853 349.959 214.367 350.023 213.925 350.216C213.483 350.398 213.119 350.692 212.833 351.098C212.548 351.492 212.372 351.965 212.304 352.516L212.273 352.77C212.204 353.331 212.269 353.849 212.469 354.325C212.68 354.792 213.004 355.175 213.44 355.476C213.876 355.777 214.395 355.964 214.999 356.038C215.497 356.099 215.957 356.07 216.38 355.95C216.814 355.831 217.205 355.621 217.553 355.32L218.274 356.408C217.839 356.806 217.321 357.086 216.72 357.249C216.131 357.413 215.486 357.452 214.788 357.366ZM202.25 358.954C201.849 358.905 201.46 358.787 201.1 358.604C200.735 358.43 200.43 358.199 200.186 357.911L200.977 356.848C201.164 357.075 201.378 357.257 201.619 357.394C201.861 357.531 202.124 357.617 202.41 357.652C202.78 357.698 203.099 357.64 203.366 357.479C203.633 357.319 203.902 357.008 204.174 356.547L204.84 355.452L205.022 355.281L209.263 348.048L210.756 348.231L205.538 356.988C205.222 357.551 204.889 357.983 204.541 358.285C204.203 358.587 203.845 358.785 203.468 358.878C203.09 358.982 202.684 359.008 202.25 358.954ZM204.608 356.294L201.831 347.135L203.419 347.33L205.77 355.228L204.608 356.294ZM195.96 355.055C195.262 354.969 194.641 354.732 194.097 354.343C193.566 353.944 193.164 353.406 192.893 352.728C192.632 352.051 192.56 351.236 192.677 350.283C192.794 349.33 193.056 348.557 193.462 347.962C193.879 347.368 194.393 346.947 195.003 346.7C195.625 346.454 196.295 346.375 197.015 346.463C197.841 346.565 198.549 346.834 199.14 347.272C199.731 347.71 200.173 348.275 200.464 348.966C200.756 349.647 200.85 350.416 200.745 351.274C200.639 352.131 200.362 352.86 199.912 353.461C199.462 354.061 198.898 354.502 198.218 354.784C197.539 355.066 196.786 355.156 195.96 355.055ZM191.131 357.493L192.543 345.995L194.004 346.174L193.725 348.445L193.39 350.387L193.309 352.36L192.656 357.68L191.131 357.493ZM195.997 353.705C196.537 353.772 197.034 353.709 197.487 353.517C197.951 353.327 198.332 353.025 198.63 352.61C198.94 352.186 199.132 351.678 199.204 351.085C199.278 350.481 199.215 349.947 199.014 349.482C198.825 349.007 198.529 348.621 198.125 348.324C197.731 348.029 197.264 347.848 196.724 347.782C196.195 347.717 195.698 347.779 195.234 347.97C194.781 348.161 194.4 348.464 194.091 348.877C193.794 349.281 193.609 349.785 193.535 350.389C193.462 350.981 193.52 351.52 193.707 352.006C193.907 352.481 194.203 352.867 194.597 353.163C195.001 353.459 195.468 353.64 195.997 353.705ZM180.482 353.058L181.516 344.641L183.04 344.828L182.288 350.958L188.201 345.462L189.583 345.632L188.55 354.048L187.025 353.861L187.778 347.731L181.88 353.229L180.482 353.058ZM174.319 352.301L175.237 344.821L175.57 345.265L172.108 344.84L172.271 343.506L179.958 344.45L179.794 345.784L176.348 345.36L176.762 345.008L175.843 352.488L174.319 352.301ZM168.913 345.995C169.981 346.137 170.766 346.48 171.269 347.026C171.771 347.571 171.969 348.278 171.863 349.146C171.751 350.056 171.358 350.723 170.682 351.145C170.009 351.557 169.111 351.688 167.99 351.54L164.34 351.076L165.373 342.659L166.898 342.846L166.549 345.689L168.913 345.995ZM168.006 350.365C168.692 350.46 169.228 350.386 169.613 350.143C170.008 349.902 170.24 349.5 170.308 348.939C170.376 348.388 170.251 347.965 169.933 347.668C169.614 347.371 169.107 347.174 168.409 347.078L166.412 346.8L166.006 350.103L168.006 350.365ZM152.769 349.639L153.023 348.364C153.095 348.384 153.163 348.403 153.225 348.421C153.287 348.44 153.345 348.452 153.398 348.459C153.737 348.5 154.016 348.416 154.235 348.207C154.464 347.999 154.65 347.71 154.792 347.34C154.936 346.96 155.059 346.529 155.161 346.048C155.263 345.566 155.354 345.083 155.435 344.598L155.961 341.503L162.424 342.297L161.391 350.714L159.866 350.526L160.79 342.999L161.101 343.488L156.781 342.958L157.187 342.54L156.789 344.861C156.667 345.598 156.523 346.285 156.359 346.92C156.195 347.556 155.993 348.106 155.754 348.571C155.525 349.037 155.24 349.389 154.899 349.626C154.568 349.865 154.165 349.955 153.689 349.897C153.551 349.88 153.405 349.846 153.25 349.795C153.104 349.755 152.944 349.703 152.769 349.639ZM145.566 351.995C145.164 351.945 144.781 351.828 144.417 351.644C144.051 351.47 143.746 351.239 143.502 350.951L144.294 349.888C144.481 350.115 144.695 350.297 144.936 350.434C145.177 350.571 145.44 350.657 145.726 350.692C146.097 350.738 146.416 350.68 146.682 350.52C146.949 350.359 147.219 350.048 147.49 349.587L148.157 348.492L148.339 348.321L152.58 341.088L154.073 341.271L148.855 350.029C148.538 350.592 148.206 351.024 147.857 351.325C147.519 351.627 147.162 351.825 146.785 351.918C146.407 352.022 146 352.048 145.566 351.995ZM147.924 349.334L145.148 340.175L146.736 340.37L149.087 348.268L147.924 349.334ZM140.22 348.211C139.362 348.106 138.617 347.826 137.985 347.372C137.364 346.92 136.902 346.347 136.6 345.655C136.299 344.962 136.199 344.198 136.302 343.361C136.404 342.525 136.686 341.807 137.146 341.208C137.607 340.609 138.193 340.17 138.904 339.892C139.627 339.605 140.417 339.514 141.275 339.619C142.037 339.713 142.696 339.95 143.251 340.329C143.818 340.7 144.229 341.202 144.485 341.835L143.234 342.439C143.009 341.992 142.707 341.649 142.328 341.409C141.961 341.16 141.55 341.007 141.095 340.951C140.545 340.884 140.037 340.945 139.573 341.135C139.109 341.325 138.723 341.627 138.414 342.041C138.107 342.444 137.916 342.947 137.842 343.55C137.768 344.154 137.831 344.693 138.03 345.169C138.23 345.645 138.532 346.031 138.936 346.328C139.34 346.625 139.817 346.807 140.368 346.875C140.823 346.931 141.258 346.887 141.673 346.745C142.1 346.593 142.477 346.328 142.803 345.949L143.872 346.822C143.473 347.364 142.952 347.756 142.309 348C141.679 348.234 140.982 348.304 140.22 348.211ZM125.754 346.338L126.787 337.921L128.312 338.108L127.873 341.681L132.669 342.27L133.108 338.697L134.632 338.884L133.599 347.301L132.074 347.114L132.507 343.588L127.711 343L127.278 346.525L125.754 346.338ZM119.174 345.627C118.327 345.523 117.598 345.245 116.987 344.794C116.376 344.343 115.92 343.771 115.618 343.078C115.317 342.375 115.218 341.611 115.319 340.785C115.422 339.948 115.703 339.231 116.164 338.632C116.624 338.033 117.205 337.593 117.905 337.314C118.607 337.024 119.382 336.931 120.229 337.035C121.065 337.138 121.789 337.415 122.4 337.866C123.023 338.308 123.48 338.874 123.771 339.566C124.074 340.248 124.174 341.012 124.07 341.859C123.967 342.696 123.685 343.413 123.225 344.012C122.775 344.613 122.194 345.057 121.481 345.346C120.779 345.636 120.01 345.729 119.174 345.627ZM119.338 344.293C119.878 344.359 120.374 344.296 120.828 344.105C121.292 343.915 121.673 343.612 121.971 343.197C122.27 342.772 122.456 342.263 122.529 341.67C122.603 341.067 122.545 340.533 122.355 340.069C122.166 339.594 121.869 339.209 121.465 338.912C121.072 338.616 120.605 338.435 120.065 338.369C119.525 338.303 119.028 338.365 118.575 338.557C118.122 338.748 117.741 339.051 117.432 339.464C117.124 339.867 116.934 340.37 116.86 340.974C116.787 341.567 116.85 342.106 117.048 342.593C117.247 343.069 117.544 343.454 117.937 343.75C118.331 344.045 118.798 344.226 119.338 344.293ZM112.465 344.706L109.713 340.209L111.061 339.601L114.26 344.927L112.465 344.706ZM106.367 343.958L107.4 335.541L108.925 335.728L107.891 344.145L106.367 343.958ZM107.868 340.531L108.028 339.229L110.807 339.57L110.647 340.872L107.868 340.531ZM111.086 340.443L109.697 340.078L113.435 336.282L115.071 336.483L111.086 340.443ZM99.787 343.246C98.94 343.142 98.211 342.865 97.6 342.414C96.989 341.962 96.533 341.391 96.231 340.698C95.931 339.995 95.831 339.23 95.933 338.404C96.035 337.568 96.317 336.85 96.777 336.251C97.238 335.652 97.818 335.213 98.519 334.934C99.221 334.644 99.995 334.551 100.842 334.655C101.678 334.758 102.402 335.034 103.013 335.486C103.636 335.927 104.093 336.494 104.384 337.185C104.687 337.867 104.787 338.632 104.683 339.479C104.58 340.315 104.299 341.033 103.838 341.632C103.388 342.232 102.807 342.677 102.095 342.965C101.393 343.255 100.624 343.349 99.787 343.246ZM99.951 341.912C100.491 341.979 100.988 341.916 101.441 341.725C101.905 341.534 102.286 341.232 102.584 340.817C102.883 340.392 103.07 339.883 103.142 339.29C103.216 338.686 103.158 338.153 102.968 337.689C102.779 337.214 102.483 336.828 102.079 336.532C101.685 336.236 101.218 336.055 100.678 335.989C100.138 335.923 99.642 335.985 99.188 336.177C98.735 336.368 98.354 336.671 98.045 337.084C97.738 337.487 97.547 337.99 97.473 338.594C97.4 339.187 97.463 339.726 97.661 340.213C97.861 340.688 98.157 341.074 98.551 341.37C98.944 341.665 99.411 341.846 99.951 341.912ZM89.712 342.009C89.014 341.923 88.392 341.686 87.849 341.297C87.318 340.898 86.916 340.36 86.645 339.682C86.384 339.005 86.312 338.19 86.429 337.238C86.546 336.285 86.808 335.511 87.214 334.916C87.631 334.322 88.145 333.902 88.755 333.654C89.377 333.408 90.047 333.329 90.767 333.418C91.593 333.519 92.301 333.789 92.892 334.227C93.483 334.665 93.925 335.229 94.216 335.921C94.508 336.601 94.602 337.371 94.497 338.228C94.391 339.086 94.114 339.815 93.664 340.415C93.214 341.015 92.65 341.456 91.97 341.738C91.291 342.02 90.538 342.111 89.712 342.009ZM84.883 344.447L86.295 332.949L87.756 333.129L87.477 335.4L87.142 337.341L87.061 339.314L86.408 344.634L84.883 344.447ZM89.749 340.66C90.289 340.726 90.786 340.663 91.239 340.472C91.703 340.282 92.084 339.979 92.382 339.564C92.692 339.14 92.884 338.632 92.956 338.039C93.03 337.435 92.967 336.901 92.766 336.436C92.577 335.961 92.281 335.576 91.877 335.279C91.483 334.983 91.016 334.802 90.476 334.736C89.947 334.671 89.45 334.734 88.986 334.924C88.533 335.115 88.152 335.418 87.843 335.831C87.546 336.236 87.361 336.739 87.287 337.343C87.214 337.936 87.271 338.475 87.459 338.96C87.659 339.436 87.955 339.821 88.349 340.117C88.753 340.414 89.22 340.595 89.749 340.66ZM74.513 340.046L75.547 331.63L83.344 332.587L82.311 341.004L80.786 340.817L81.703 333.353L82.021 333.779L76.542 333.106L76.954 332.77L76.038 340.234L74.513 340.046ZM216.252 338.678L217.44 335.567L217.533 336.514C217.226 336.476 216.979 336.349 216.79 336.132C216.613 335.917 216.544 335.645 216.584 335.317C216.623 335 216.756 334.753 216.981 334.576C217.218 334.401 217.484 334.332 217.781 334.368C218.088 334.406 218.324 334.542 218.488 334.777C218.654 335.002 218.718 335.268 218.68 335.575C218.667 335.681 218.644 335.785 218.61 335.888C218.587 335.982 218.547 336.096 218.487 336.228C218.44 336.351 218.368 336.503 218.27 336.685L217.253 338.801L216.252 338.678ZM212.987 335.891L213.205 334.112L213.167 333.769L213.539 330.736C213.619 330.09 213.489 329.569 213.151 329.173C212.825 328.767 212.286 328.519 211.534 328.426C211.036 328.365 210.539 328.39 210.042 328.501C209.546 328.601 209.117 328.769 208.755 329.004L208.26 327.782C208.737 327.486 209.288 327.285 209.914 327.18C210.551 327.064 211.203 327.048 211.87 327.13C213.024 327.271 213.879 327.661 214.435 328.299C214.991 328.937 215.198 329.833 215.056 330.987L214.432 336.068L212.987 335.891ZM210.212 335.647C209.587 335.57 209.05 335.397 208.599 335.127C208.16 334.858 207.835 334.522 207.627 334.121C207.419 333.708 207.345 333.264 207.404 332.787C207.459 332.332 207.616 331.932 207.873 331.588C208.141 331.244 208.532 330.992 209.046 330.829C209.571 330.668 210.252 330.639 211.088 330.741L213.756 331.069L213.622 332.165L211.017 331.845C210.255 331.751 209.726 331.815 209.43 332.037C209.134 332.258 208.964 332.549 208.92 332.909C208.869 333.322 208.992 333.676 209.29 333.97C209.588 334.254 210.028 334.432 210.61 334.503C211.182 334.573 211.695 334.507 212.15 334.305C212.615 334.104 212.973 333.772 213.223 333.309L213.396 334.394C213.134 334.867 212.731 335.22 212.186 335.454C211.643 335.678 210.985 335.742 210.212 335.647ZM202.409 334.689C201.552 334.584 200.807 334.304 200.175 333.85C199.553 333.398 199.092 332.825 198.79 332.133C198.488 331.44 198.388 330.676 198.491 329.839C198.594 329.003 198.875 328.285 199.336 327.686C199.796 327.087 200.382 326.649 201.093 326.371C201.816 326.083 202.607 325.992 203.464 326.098C204.226 326.191 204.885 326.428 205.44 326.808C206.007 327.178 206.419 327.68 206.674 328.313L205.423 328.917C205.199 328.471 204.897 328.127 204.518 327.887C204.151 327.638 203.74 327.485 203.285 327.43C202.734 327.362 202.227 327.423 201.763 327.613C201.299 327.804 200.912 328.106 200.604 328.519C200.296 328.922 200.106 329.425 200.032 330.028C199.957 330.632 200.02 331.172 200.22 331.647C200.419 332.123 200.721 332.51 201.125 332.806C201.529 333.103 202.007 333.285 202.557 333.353C203.012 333.409 203.448 333.366 203.863 333.223C204.29 333.071 204.666 332.806 204.992 332.427L206.062 333.3C205.662 333.842 205.141 334.235 204.499 334.478C203.868 334.712 203.172 334.783 202.409 334.689ZM194.561 333.629L194.78 331.85L194.741 331.507L195.114 328.474C195.193 327.828 195.063 327.307 194.725 326.911C194.399 326.505 193.86 326.256 193.108 326.164C192.61 326.103 192.113 326.128 191.616 326.239C191.12 326.339 190.691 326.507 190.329 326.742L189.834 325.52C190.311 325.224 190.862 325.023 191.488 324.917C192.125 324.802 192.778 324.786 193.445 324.867C194.599 325.009 195.453 325.399 196.009 326.037C196.565 326.674 196.772 327.57 196.63 328.724L196.006 333.806L194.561 333.629ZM191.786 333.385C191.162 333.308 190.624 333.135 190.174 332.864C189.734 332.595 189.41 332.26 189.201 331.858C188.994 331.446 188.919 331.002 188.978 330.525C189.034 330.07 189.19 329.67 189.447 329.326C189.715 328.982 190.106 328.729 190.621 328.567C191.146 328.406 191.826 328.376 192.663 328.479L195.331 328.807L195.196 329.902L192.592 329.583C191.829 329.489 191.3 329.553 191.004 329.775C190.709 329.996 190.538 330.287 190.494 330.647C190.444 331.06 190.567 331.413 190.864 331.708C191.162 331.992 191.602 332.169 192.185 332.241C192.756 332.311 193.27 332.245 193.724 332.043C194.189 331.842 194.547 331.51 194.798 331.046L194.971 332.132C194.708 332.604 194.305 332.958 193.76 333.192C193.217 333.415 192.559 333.48 191.786 333.385ZM185.451 329.012C184.98 329.169 184.499 329.282 184.007 329.351C183.527 329.41 183.038 329.409 182.54 329.348C181.524 329.223 180.749 328.886 180.214 328.337C179.69 327.789 179.49 327.017 179.612 326.022L179.947 323.291L181.472 323.478L181.148 326.114C181.074 326.717 181.205 327.185 181.54 327.516C181.886 327.849 182.377 328.054 183.012 328.132C183.414 328.182 183.834 328.179 184.27 328.125C184.717 328.073 185.159 327.977 185.595 327.837L185.451 329.012ZM184.917 332.444L185.95 324.028L187.475 324.215L186.441 332.632L184.917 332.444ZM169.223 330.614C168.323 330.504 167.552 330.221 166.909 329.766C166.277 329.312 165.81 328.739 165.508 328.046C165.217 327.355 165.123 326.591 165.225 325.755C165.328 324.918 165.599 324.199 166.038 323.598C166.488 322.998 167.053 322.556 167.732 322.274C168.424 321.983 169.172 321.887 169.976 321.986C170.791 322.086 171.489 322.354 172.07 322.791C172.65 323.228 173.075 323.795 173.344 324.495C173.624 325.185 173.711 325.964 173.605 326.832C173.597 326.896 173.582 326.969 173.561 327.052C173.551 327.137 173.536 327.216 173.516 327.289L166.354 326.409L166.489 325.313L172.857 326.095L172.191 326.4C172.268 325.862 172.216 325.366 172.035 324.914C171.854 324.462 171.571 324.094 171.187 323.811C170.814 323.518 170.358 323.338 169.818 323.272C169.289 323.207 168.803 323.271 168.36 323.464C167.919 323.646 167.555 323.94 167.268 324.345C166.984 324.74 166.807 325.213 166.74 325.763L166.709 326.018C166.64 326.579 166.705 327.097 166.904 327.573C167.116 328.04 167.439 328.423 167.875 328.724C168.311 329.025 168.831 329.212 169.434 329.286C169.932 329.347 170.392 329.318 170.816 329.198C171.249 329.079 171.64 328.869 171.989 328.568L172.71 329.656C172.274 330.054 171.756 330.334 171.156 330.497C170.566 330.661 169.922 330.7 169.223 330.614ZM154.461 328.705L155.494 320.288L157.019 320.475L156.266 326.605L162.18 321.109L163.562 321.279L162.528 329.695L161.004 329.508L161.756 323.378L155.858 328.876L154.461 328.705ZM143.65 327.378L144.684 318.961L146.208 319.148L145.769 322.721L150.565 323.31L151.004 319.737L152.529 319.924L151.495 328.341L149.971 328.154L150.404 324.628L145.608 324.039L145.175 327.565L143.65 327.378ZM137.414 326.709C136.515 326.598 135.743 326.315 135.101 325.86C134.469 325.407 134.002 324.833 133.7 324.141C133.408 323.45 133.314 322.686 133.417 321.849C133.52 321.013 133.791 320.294 134.23 319.692C134.68 319.092 135.244 318.651 135.924 318.369C136.615 318.078 137.363 317.981 138.168 318.08C138.983 318.18 139.681 318.449 140.261 318.885C140.842 319.322 141.266 319.89 141.535 320.589C141.816 321.279 141.903 322.058 141.796 322.927C141.788 322.99 141.774 323.063 141.753 323.147C141.742 323.232 141.727 323.31 141.708 323.383L134.546 322.504L134.68 321.408L141.048 322.19L140.382 322.495C140.459 321.956 140.407 321.461 140.226 321.009C140.045 320.557 139.763 320.189 139.378 319.905C139.006 319.612 138.55 319.433 138.01 319.367C137.48 319.302 136.994 319.365 136.551 319.558C136.11 319.74 135.746 320.034 135.46 320.44C135.175 320.835 134.999 321.307 134.931 321.858L134.9 322.112C134.831 322.673 134.896 323.192 135.096 323.667C135.307 324.134 135.631 324.518 136.067 324.818C136.503 325.119 137.022 325.306 137.626 325.381C138.124 325.442 138.584 325.412 139.007 325.292C139.441 325.174 139.832 324.964 140.18 324.663L140.901 325.751C140.465 326.148 139.947 326.429 139.347 326.591C138.757 326.755 138.113 326.795 137.414 326.709ZM129.728 322.17C129.258 322.327 128.776 322.44 128.284 322.509C127.804 322.568 127.315 322.567 126.818 322.506C125.801 322.381 125.026 322.044 124.492 321.495C123.968 320.947 123.767 320.175 123.889 319.18L124.225 316.449L125.749 316.636L125.425 319.272C125.351 319.876 125.482 320.343 125.818 320.674C126.164 321.007 126.654 321.212 127.289 321.29C127.692 321.34 128.111 321.338 128.548 321.284C128.998 321.231 129.442 321.134 129.873 320.995L129.728 322.17ZM129.194 325.603L130.228 317.186L131.752 317.373L130.719 325.79L129.194 325.603ZM117.766 324.296C116.866 324.186 116.095 323.903 115.452 323.448C114.82 322.994 114.353 322.421 114.051 321.728C113.76 321.037 113.666 320.273 113.768 319.437C113.871 318.6 114.142 317.881 114.581 317.28C115.031 316.679 115.596 316.238 116.275 315.956C116.967 315.665 117.715 315.569 118.519 315.668C119.334 315.768 120.032 316.036 120.613 316.473C121.193 316.909 121.618 317.477 121.887 318.177C122.167 318.867 122.254 319.646 122.148 320.514C122.14 320.577 122.125 320.651 122.104 320.734C122.094 320.819 122.079 320.898 122.059 320.971L114.897 320.091L115.032 318.995L121.4 319.777L120.734 320.082C120.811 319.544 120.759 319.048 120.578 318.596C120.397 318.144 120.114 317.776 119.73 317.493C119.357 317.2 118.901 317.02 118.361 316.954C117.832 316.889 117.346 316.953 116.903 317.146C116.462 317.328 116.098 317.622 115.811 318.027C115.527 318.422 115.35 318.895 115.283 319.445L115.251 319.699C115.183 320.26 115.248 320.779 115.447 321.255C115.659 321.721 115.982 322.105 116.418 322.406C116.854 322.706 117.374 322.894 117.977 322.968C118.475 323.029 118.935 323 119.359 322.88C119.792 322.761 120.183 322.551 120.532 322.25L121.253 323.338C120.817 323.736 120.299 324.016 119.699 324.179C119.109 324.343 118.465 324.382 117.766 324.296ZM108.237 323.029L109.155 315.55L109.488 315.993L106.026 315.568L106.189 314.234L113.876 315.178L113.712 316.512L110.266 316.089L110.68 315.737L109.761 323.217L108.237 323.029ZM92.551 321.103L93.584 312.687L97.491 313.166C98.475 313.287 99.225 313.573 99.739 314.023C100.265 314.463 100.486 315.028 100.402 315.716C100.317 316.404 99.981 316.906 99.395 317.22C98.82 317.526 98.093 317.625 97.214 317.517L97.503 317.133C98.509 317.257 99.233 317.534 99.674 317.964C100.116 318.394 100.292 318.97 100.204 319.689C100.114 320.42 99.769 320.958 99.167 321.303C98.578 321.639 97.722 321.738 96.6 321.601L92.551 321.103ZM94.188 320.111L96.633 320.412C97.268 320.49 97.757 320.453 98.098 320.301C98.44 320.139 98.638 319.841 98.691 319.407C98.746 318.962 98.637 318.621 98.365 318.384C98.105 318.137 97.663 317.975 97.039 317.898L94.498 317.586L94.188 320.111ZM94.632 316.491L96.919 316.771C97.501 316.843 97.954 316.791 98.276 316.616C98.61 316.431 98.802 316.143 98.85 315.751C98.899 315.349 98.783 315.028 98.5 314.789C98.229 314.552 97.802 314.397 97.219 314.326L94.932 314.045L94.632 316.491ZM239.347 317.97L240.381 309.553L241.953 309.746L244.809 316.416L244.174 316.338L248.655 310.569L250.084 310.745L249.051 319.161L247.669 318.992L248.492 312.29L248.728 312.464L244.642 317.653L243.975 317.571L241.262 311.435L241.572 311.408L240.745 318.141L239.347 317.97ZM235.157 317.455L235.375 315.677L235.337 315.334L235.709 312.3C235.789 311.654 235.659 311.133 235.321 310.737C234.994 310.332 234.455 310.083 233.704 309.991C233.206 309.93 232.701 309.955 232.212 310.065C231.716 310.166 231.287 310.333 230.925 310.568L230.43 309.347C230.907 309.051 231.458 308.85 232.084 308.744C232.721 308.629 233.373 308.612 234.04 308.694C235.194 308.836 236.049 309.225 236.605 309.863C237.161 310.501 237.368 311.397 237.226 312.551L236.602 317.633L235.157 317.455ZM232.382 317.211C231.757 317.135 231.22 316.961 230.769 316.691C230.33 316.422 230.005 316.087 229.797 315.685C229.589 315.273 229.515 314.828 229.574 314.352C229.629 313.897 229.786 313.497 230.043 313.152C230.311 312.809 230.702 312.556 231.216 312.393C231.741 312.232 232.422 312.203 233.258 312.306L235.926 312.633L235.792 313.729L233.187 313.409C232.425 313.316 231.896 313.38 231.6 313.601C231.304 313.823 231.134 314.114 231.09 314.474C231.039 314.886 231.162 315.24 231.459 315.534C231.758 315.818 232.198 315.996 232.78 316.067C233.352 316.138 233.865 316.072 234.32 315.87C234.785 315.669 235.143 315.337 235.393 314.873L235.566 315.958C235.304 316.431 234.901 316.785 234.356 317.019C233.813 317.242 233.155 317.306 232.382 317.211ZM220.24 315.624L221.273 307.207L225.18 307.687C226.165 307.808 226.914 308.093 227.428 308.543C227.955 308.984 228.176 309.548 228.091 310.237C228.007 310.925 227.671 311.426 227.084 311.741C226.509 312.047 225.783 312.145 224.904 312.038L225.193 311.654C226.198 311.777 226.922 312.054 227.364 312.485C227.805 312.915 227.982 313.49 227.893 314.21C227.804 314.941 227.458 315.479 226.857 315.824C226.268 316.16 225.412 316.259 224.29 316.121L220.24 315.624ZM221.877 314.632L224.323 314.932C224.958 315.01 225.446 314.974 225.787 314.822C226.129 314.66 226.327 314.362 226.38 313.928C226.435 313.483 226.326 313.142 226.055 312.904C225.795 312.657 225.353 312.496 224.728 312.419L222.187 312.107L221.877 314.632ZM222.322 311.011L224.608 311.292C225.191 311.364 225.643 311.312 225.966 311.136C226.3 310.952 226.491 310.663 226.539 310.272C226.589 309.869 226.472 309.549 226.19 309.31C225.918 309.072 225.491 308.918 224.909 308.846L222.622 308.566L222.322 311.011ZM203.304 313.545L204.338 305.128L205.91 305.321L208.767 311.991L208.131 311.913L212.612 306.144L214.041 306.319L213.008 314.736L211.626 314.566L212.449 307.865L212.685 308.039L208.599 313.227L207.932 313.145L205.219 307.009L205.529 306.983L204.702 313.716L203.304 313.545ZM192.277 312.191L193.311 303.774L194.835 303.961L194.082 310.091L199.996 304.595L201.378 304.764L200.345 313.181L198.82 312.994L199.573 306.864L193.675 312.362L192.277 312.191ZM181.469 310.863L182.502 302.447L184.027 302.634L183.588 306.207L188.384 306.796L188.822 303.223L190.347 303.41L189.314 311.827L187.789 311.639L188.222 308.114L183.426 307.525L182.993 311.051L181.469 310.863ZM174.889 310.152C174.042 310.048 173.313 309.771 172.702 309.319C172.091 308.868 171.635 308.296 171.333 307.604C171.032 306.901 170.933 306.136 171.034 305.31C171.137 304.474 171.418 303.756 171.879 303.157C172.339 302.558 172.92 302.119 173.62 301.84C174.322 301.55 175.097 301.457 175.944 301.561C176.78 301.663 177.504 301.94 178.115 302.391C178.737 302.833 179.194 303.4 179.486 304.091C179.789 304.773 179.888 305.538 179.784 306.385C179.682 307.221 179.4 307.939 178.94 308.538C178.49 309.138 177.909 309.583 177.196 309.871C176.494 310.161 175.725 310.255 174.889 310.152ZM175.053 308.818C175.592 308.884 176.089 308.822 176.543 308.63C177.006 308.44 177.388 308.138 177.686 307.723C177.985 307.298 178.171 306.788 178.244 306.196C178.318 305.592 178.26 305.058 178.07 304.594C177.881 304.12 177.584 303.734 177.18 303.437C176.787 303.142 176.32 302.961 175.78 302.895C175.24 302.828 174.743 302.891 174.29 303.082C173.836 303.274 173.455 303.576 173.147 303.99C172.839 304.393 172.649 304.896 172.574 305.499C172.502 306.092 172.564 306.632 172.763 307.118C172.962 307.594 173.259 307.98 173.652 308.275C174.046 308.571 174.513 308.752 175.053 308.818ZM161.541 308.416L162.574 300L166.481 300.479C167.465 300.6 168.215 300.886 168.729 301.336C169.255 301.777 169.476 302.341 169.392 303.029C169.307 303.717 168.972 304.219 168.385 304.534C167.81 304.839 167.083 304.938 166.205 304.83L166.494 304.446C167.499 304.57 168.223 304.847 168.664 305.277C169.106 305.708 169.283 306.283 169.194 307.003C169.104 307.733 168.759 308.271 168.158 308.616C167.568 308.952 166.713 309.052 165.59 308.914L161.541 308.416ZM163.178 307.425L165.623 307.725C166.259 307.803 166.747 307.766 167.088 307.615C167.43 307.452 167.628 307.154 167.681 306.72C167.736 306.276 167.627 305.934 167.356 305.697C167.096 305.45 166.653 305.288 166.029 305.212L163.488 304.9L163.178 307.425ZM163.622 303.804L165.909 304.085C166.492 304.156 166.944 304.104 167.266 303.929C167.601 303.744 167.792 303.456 167.84 303.064C167.889 302.662 167.773 302.341 167.491 302.103C167.219 301.865 166.792 301.71 166.21 301.639L163.923 301.358L163.622 303.804ZM155.351 307.769C154.719 307.692 154.099 307.535 153.506 307.301C152.923 307.057 152.413 306.753 151.974 306.387L152.577 305.285C152.948 305.588 153.384 305.846 153.884 306.058C154.386 306.259 154.902 306.392 155.431 306.457C155.918 306.517 156.343 306.51 156.707 306.437C157.081 306.364 157.376 306.239 157.591 306.062C157.808 305.873 157.933 305.641 157.967 305.366C158.015 304.974 157.877 304.651 157.554 304.397C157.231 304.142 156.757 303.976 156.132 303.9L154.607 303.712L154.742 302.617L156.171 302.792C156.542 302.838 156.87 302.835 157.156 302.784C157.441 302.733 157.669 302.632 157.838 302.481C158.019 302.32 158.123 302.124 158.152 301.891C158.183 301.637 158.12 301.409 157.962 301.207C157.804 301.004 157.567 300.836 157.25 300.7C156.944 300.566 156.574 300.472 156.14 300.419C155.716 300.377 155.274 300.382 154.817 300.433C154.37 300.486 153.905 300.596 153.422 300.762L153.156 299.52C153.694 299.339 154.214 299.215 154.717 299.148C155.231 299.071 155.732 299.058 156.221 299.107C156.954 299.175 157.595 299.34 158.143 299.601C158.693 299.851 159.11 300.171 159.395 300.56C159.691 300.951 159.81 301.385 159.751 301.862C159.702 302.264 159.531 302.608 159.238 302.895C158.946 303.17 158.577 303.372 158.132 303.5C157.686 303.628 157.188 303.659 156.637 303.591L156.746 303.233C157.688 303.349 158.406 303.625 158.901 304.062C159.395 304.499 159.603 305.035 159.525 305.67C159.463 306.179 159.238 306.608 158.852 306.958C158.466 307.297 157.968 307.543 157.359 307.693C156.761 307.835 156.092 307.86 155.351 307.769ZM146.852 306.71C145.952 306.599 145.181 306.316 144.538 305.861C143.906 305.408 143.439 304.835 143.137 304.142C142.846 303.451 142.752 302.687 142.854 301.85C142.957 301.014 143.228 300.295 143.667 299.693C144.117 299.093 144.682 298.652 145.361 298.37C146.053 298.079 146.801 297.982 147.605 298.081C148.42 298.181 149.118 298.45 149.699 298.886C150.279 299.323 150.704 299.891 150.972 300.59C151.253 301.28 151.34 302.059 151.234 302.928C151.226 302.991 151.211 303.065 151.19 303.148C151.18 303.233 151.165 303.311 151.145 303.384L143.983 302.505L144.118 301.409L150.486 302.191L149.82 302.496C149.896 301.957 149.844 301.462 149.664 301.01C149.483 300.558 149.2 300.19 148.816 299.906C148.443 299.613 147.987 299.434 147.447 299.368C146.918 299.303 146.432 299.366 145.989 299.559C145.547 299.742 145.184 300.035 144.897 300.441C144.612 300.836 144.436 301.308 144.369 301.859L144.337 302.113C144.269 302.674 144.334 303.193 144.533 303.669C144.745 304.135 145.068 304.519 145.504 304.819C145.94 305.12 146.46 305.308 147.063 305.382C147.561 305.443 148.021 305.413 148.444 305.293C148.878 305.175 149.269 304.965 149.618 304.664L150.339 305.752C149.903 306.149 149.385 306.43 148.785 306.592C148.195 306.756 147.551 306.796 146.852 306.71ZM136.634 305.455C135.935 305.369 135.314 305.132 134.771 304.743C134.24 304.344 133.838 303.806 133.567 303.128C133.306 302.451 133.234 301.636 133.351 300.683C133.468 299.731 133.73 298.957 134.136 298.362C134.553 297.768 135.067 297.348 135.677 297.1C136.299 296.854 136.969 296.775 137.689 296.864C138.515 296.965 139.223 297.235 139.814 297.673C140.405 298.111 140.846 298.675 141.138 299.366C141.43 300.047 141.524 300.816 141.419 301.674C141.313 302.531 141.036 303.26 140.586 303.861C140.136 304.461 139.571 304.902 138.892 305.184C138.213 305.466 137.46 305.556 136.634 305.455ZM131.805 307.893L133.217 296.395L134.678 296.574L134.399 298.845L134.064 300.787L133.983 302.76L133.33 308.08L131.805 307.893ZM136.671 304.105C137.211 304.172 137.708 304.109 138.161 303.918C138.625 303.727 139.006 303.425 139.304 303.01C139.614 302.586 139.805 302.078 139.878 301.485C139.952 300.881 139.889 300.347 139.688 299.882C139.499 299.407 139.203 299.021 138.799 298.725C138.405 298.429 137.938 298.248 137.398 298.182C136.869 298.117 136.372 298.18 135.908 298.37C135.455 298.561 135.074 298.864 134.765 299.277C134.468 299.681 134.283 300.185 134.209 300.789C134.136 301.382 134.193 301.921 134.381 302.406C134.58 302.882 134.877 303.267 135.271 303.563C135.675 303.86 136.142 304.04 136.671 304.105ZM125.946 304.143C125.046 304.032 124.275 303.75 123.632 303.295C123 302.841 122.533 302.268 122.231 301.575C121.94 300.884 121.845 300.12 121.948 299.283C122.051 298.447 122.322 297.728 122.761 297.126C123.211 296.526 123.776 296.085 124.455 295.803C125.146 295.512 125.894 295.416 126.699 295.514C127.514 295.614 128.212 295.883 128.792 296.319C129.373 296.756 129.797 297.324 130.066 298.023C130.347 298.713 130.434 299.493 130.327 300.361C130.32 300.424 130.305 300.498 130.284 300.581C130.274 300.666 130.259 300.745 130.239 300.817L123.077 299.938L123.211 298.842L129.58 299.624L128.913 299.929C128.99 299.39 128.938 298.895 128.757 298.443C128.576 297.991 128.294 297.623 127.909 297.339C127.537 297.047 127.081 296.867 126.541 296.801C126.012 296.736 125.526 296.8 125.083 296.992C124.641 297.175 124.277 297.468 123.991 297.874C123.706 298.269 123.53 298.742 123.462 299.292L123.431 299.546C123.362 300.107 123.428 300.626 123.627 301.102C123.838 301.568 124.162 301.952 124.598 302.253C125.034 302.553 125.554 302.741 126.157 302.815C126.655 302.876 127.115 302.846 127.538 302.726C127.972 302.608 128.363 302.398 128.712 302.097L129.432 303.185C128.997 303.583 128.479 303.863 127.878 304.026C127.289 304.19 126.644 304.229 125.946 304.143ZM111.463 302.268L112.496 293.851L120.294 294.808L119.26 303.225L117.736 303.038L118.652 295.574L118.97 296L113.492 295.327L113.904 294.991L112.987 302.455L111.463 302.268ZM102.71 301.193L103.743 292.776L105.268 292.963L104.234 301.38L102.71 301.193ZM98.866 295.079C99.934 295.221 100.714 295.564 101.206 296.108C101.709 296.653 101.907 297.36 101.8 298.228C101.689 299.139 101.295 299.805 100.62 300.227C99.957 300.64 99.059 300.772 97.928 300.622L94.388 300.171L95.422 291.754L96.946 291.942L96.597 294.784L98.866 295.079ZM97.959 299.449C98.635 299.543 99.171 299.469 99.566 299.227C99.961 298.986 100.193 298.584 100.262 298.023C100.33 297.473 100.199 297.048 99.87 296.75C99.552 296.453 99.05 296.257 98.363 296.162L96.461 295.896L96.055 299.199L97.959 299.449ZM81.719 298.616L82.752 290.199L84.324 290.392L87.181 297.062L86.545 296.984L91.026 291.215L92.455 291.39L91.422 299.807L90.04 299.637L90.863 292.936L91.099 293.11L87.013 298.298L86.346 298.216L83.633 292.08L83.943 292.054L83.116 298.787L81.719 298.616ZM66.426 296.738L67.459 288.321L68.984 288.508L68.231 294.638L74.145 289.142L75.526 289.312L74.493 297.729L72.968 297.541L73.721 291.411L67.823 296.91L66.426 296.738ZM220.209 297.686C219.808 297.637 219.419 297.519 219.059 297.336C218.694 297.162 218.389 296.931 218.145 296.643L218.936 295.58C219.123 295.807 219.337 295.989 219.578 296.126C219.82 296.263 220.083 296.349 220.369 296.384C220.739 296.43 221.058 296.372 221.325 296.212C221.592 296.051 221.861 295.74 222.133 295.279L222.799 294.184L222.981 294.013L227.222 286.78L228.715 286.963L223.497 295.721C223.181 296.284 222.848 296.716 222.5 297.017C222.162 297.319 221.804 297.517 221.427 297.61C221.049 297.714 220.643 297.74 220.209 297.686ZM222.567 295.026L219.79 285.867L221.378 286.062L223.729 293.96L222.567 295.026Z" fill="white"/>
<path d="M217.258 294.1L214.506 289.603L215.854 288.995L219.053 294.32L217.258 294.1ZM211.16 293.351L212.193 284.935L213.718 285.122L212.684 293.539L211.16 293.351ZM212.661 289.925L212.821 288.622L215.6 288.964L215.44 290.266L212.661 289.925ZM215.879 289.836L214.489 289.472L218.228 285.676L219.864 285.876L215.879 289.836ZM201.406 292.154L202.439 283.737L206.346 284.216C207.331 284.337 208.08 284.623 208.594 285.073C209.121 285.514 209.342 286.078 209.257 286.766C209.173 287.454 208.837 287.956 208.25 288.271C207.675 288.576 206.949 288.675 206.07 288.567L206.359 288.184C207.365 288.307 208.088 288.584 208.53 289.014C208.971 289.445 209.148 290.02 209.059 290.74C208.97 291.47 208.624 292.008 208.023 292.353C207.434 292.69 206.578 292.789 205.456 292.651L201.406 292.154ZM203.043 291.162L205.489 291.462C206.124 291.54 206.612 291.503 206.953 291.352C207.295 291.189 207.493 290.891 207.546 290.457C207.601 290.013 207.493 289.672 207.221 289.434C206.961 289.187 206.519 289.025 205.894 288.949L203.353 288.637L203.043 291.162ZM203.488 287.541L205.774 287.822C206.357 287.893 206.809 287.841 207.132 287.666C207.466 287.481 207.657 287.193 207.705 286.801C207.755 286.399 207.638 286.078 207.356 285.84C207.084 285.602 206.657 285.448 206.075 285.376L203.788 285.095L203.488 287.541ZM197.065 291.621L197.427 288.667L197.631 288.982L194.947 288.652C193.824 288.515 192.975 288.169 192.398 287.614C191.832 287.061 191.605 286.329 191.717 285.419C191.836 284.445 192.26 283.75 192.988 283.334C193.727 282.92 194.657 282.781 195.78 282.919L199.464 283.372L198.43 291.788L197.065 291.621ZM190.967 290.872L193.649 287.929L195.221 288.122L192.602 291.073L190.967 290.872ZM197.486 288.19L197.987 284.109L198.173 284.567L195.663 284.259C194.965 284.173 194.409 284.239 193.995 284.457C193.583 284.664 193.34 285.065 193.267 285.657C193.132 286.758 193.774 287.396 195.192 287.57L197.765 287.886L197.486 288.19ZM187.491 290.445L187.709 288.667L187.671 288.323L188.043 285.29C188.123 284.644 187.993 284.123 187.655 283.727C187.328 283.322 186.789 283.073 186.038 282.98C185.54 282.919 185.043 282.944 184.546 283.055C184.05 283.155 183.621 283.323 183.259 283.558L182.764 282.337C183.241 282.041 183.792 281.84 184.418 281.734C185.055 281.619 185.707 281.602 186.374 281.684C187.528 281.825 188.383 282.215 188.939 282.853C189.495 283.491 189.702 284.387 189.56 285.541L188.936 290.623L187.491 290.445ZM184.716 290.201C184.091 290.124 183.554 289.951 183.103 289.681C182.663 289.412 182.339 289.076 182.131 288.675C181.923 288.262 181.849 287.818 181.907 287.342C181.963 286.886 182.12 286.486 182.377 286.142C182.645 285.799 183.036 285.546 183.55 285.383C184.075 285.222 184.756 285.193 185.592 285.295L188.26 285.623L188.126 286.719L185.521 286.399C184.759 286.305 184.23 286.369 183.934 286.591C183.638 286.813 183.468 287.103 183.424 287.463C183.373 287.876 183.496 288.23 183.793 288.524C184.092 288.808 184.532 288.986 185.114 289.057C185.686 289.127 186.199 289.061 186.654 288.859C187.119 288.659 187.477 288.326 187.727 287.863L187.9 288.948C187.638 289.421 187.235 289.774 186.69 290.008C186.147 290.232 185.489 290.296 184.716 290.201ZM176.14 289.164C175.508 289.087 174.888 288.929 174.295 288.696C173.712 288.452 173.202 288.148 172.763 287.782L173.366 286.68C173.737 286.983 174.173 287.241 174.673 287.453C175.175 287.654 175.691 287.787 176.22 287.852C176.707 287.912 177.132 287.905 177.496 287.832C177.87 287.759 178.165 287.634 178.38 287.457C178.597 287.268 178.722 287.036 178.756 286.761C178.804 286.369 178.666 286.046 178.343 285.792C178.02 285.537 177.546 285.371 176.921 285.295L175.397 285.107L175.531 284.012L176.96 284.187C177.331 284.233 177.659 284.23 177.945 284.179C178.23 284.128 178.458 284.027 178.627 283.876C178.808 283.715 178.912 283.519 178.941 283.286C178.972 283.032 178.909 282.804 178.751 282.601C178.593 282.399 178.356 282.231 178.039 282.095C177.733 281.961 177.363 281.867 176.929 281.814C176.505 281.772 176.063 281.777 175.606 281.828C175.159 281.881 174.694 281.99 174.211 282.157L173.945 280.915C174.483 280.734 175.003 280.61 175.506 280.543C176.02 280.466 176.522 280.452 177.01 280.502C177.743 280.57 178.384 280.735 178.932 280.996C179.482 281.246 179.899 281.566 180.184 281.955C180.48 282.346 180.599 282.78 180.54 283.256C180.491 283.659 180.32 284.003 180.027 284.29C179.735 284.565 179.366 284.767 178.921 284.895C178.475 285.023 177.977 285.053 177.426 284.986L177.535 284.628C178.477 284.744 179.195 285.02 179.69 285.457C180.184 285.894 180.393 286.43 180.315 287.065C180.252 287.574 180.028 288.003 179.641 288.353C179.255 288.692 178.757 288.938 178.148 289.088C177.55 289.23 176.881 289.255 176.14 289.164ZM163.19 287.558C162.29 287.448 161.519 287.165 160.876 286.71C160.244 286.256 159.777 285.683 159.475 284.99C159.184 284.299 159.09 283.535 159.192 282.699C159.295 281.862 159.566 281.143 160.005 280.542C160.455 279.941 161.02 279.5 161.699 279.218C162.39 278.927 163.138 278.831 163.943 278.93C164.758 279.03 165.456 279.298 166.037 279.735C166.617 280.171 167.042 280.739 167.31 281.439C167.591 282.129 167.678 282.908 167.571 283.776C167.564 283.839 167.549 283.913 167.528 283.996C167.518 284.081 167.503 284.16 167.483 284.233L160.321 283.353L160.455 282.257L166.824 283.039L166.158 283.344C166.234 282.806 166.182 282.31 166.001 281.858C165.821 281.406 165.538 281.038 165.154 280.755C164.781 280.462 164.325 280.282 163.785 280.216C163.256 280.151 162.77 280.215 162.327 280.408C161.885 280.59 161.521 280.884 161.235 281.289C160.95 281.684 160.774 282.157 160.707 282.707L160.675 282.961C160.606 283.523 160.672 284.041 160.871 284.517C161.083 284.983 161.406 285.367 161.842 285.668C162.278 285.969 162.798 286.156 163.401 286.23C163.899 286.291 164.359 286.262 164.782 286.142C165.216 286.023 165.607 285.813 165.956 285.512L166.677 286.6C166.241 286.998 165.723 287.278 165.123 287.441C164.533 287.605 163.889 287.644 163.19 287.558ZM153.663 286.292L154.581 278.812L154.913 279.256L151.451 278.83L151.615 277.496L159.302 278.44L159.138 279.774L155.692 279.351L156.106 278.999L155.187 286.479L153.663 286.292ZM148.257 279.986C149.325 280.127 150.11 280.471 150.613 281.016C151.115 281.562 151.313 282.268 151.207 283.137C151.095 284.047 150.701 284.713 150.026 285.136C149.352 285.547 148.455 285.679 147.334 285.53L143.683 285.066L144.717 276.649L146.241 276.837L145.892 279.679L148.257 279.986ZM147.349 284.356C148.036 284.451 148.572 284.377 148.956 284.134C149.351 283.892 149.583 283.491 149.652 282.93C149.72 282.379 149.595 281.955 149.276 281.658C148.958 281.361 148.45 281.165 147.753 281.068L145.756 280.791L145.35 284.094L147.349 284.356ZM133.927 283.868L134.961 275.452L138.868 275.931C139.852 276.052 140.602 276.338 141.116 276.788C141.642 277.228 141.863 277.793 141.779 278.481C141.694 279.169 141.358 279.671 140.772 279.986C140.197 280.291 139.47 280.39 138.591 280.282L138.88 279.898C139.886 280.022 140.61 280.299 141.051 280.729C141.493 281.159 141.669 281.735 141.581 282.455C141.491 283.185 141.146 283.723 140.544 284.068C139.955 284.404 139.099 284.503 137.977 284.366L133.927 283.868ZM135.565 282.876L138.01 283.177C138.645 283.255 139.134 283.218 139.475 283.066C139.817 282.904 140.015 282.606 140.068 282.172C140.123 281.727 140.014 281.386 139.742 281.149C139.482 280.902 139.04 280.74 138.416 280.663L135.875 280.351L135.565 282.876ZM136.009 279.256L138.296 279.536C138.878 279.608 139.331 279.556 139.653 279.381C139.987 279.196 140.179 278.908 140.227 278.516C140.276 278.114 140.16 277.793 139.877 277.554C139.606 277.317 139.179 277.162 138.596 277.091L136.309 276.81L136.009 279.256ZM129.737 283.354L129.955 281.575L129.917 281.232L130.289 278.199C130.369 277.553 130.239 277.032 129.901 276.636C129.575 276.23 129.036 275.981 128.284 275.889C127.786 275.828 127.289 275.853 126.792 275.964C126.296 276.064 125.867 276.232 125.505 276.467L125.01 275.245C125.487 274.949 126.038 274.748 126.664 274.642C127.301 274.527 127.953 274.511 128.62 274.592C129.774 274.734 130.629 275.124 131.185 275.762C131.741 276.4 131.948 277.295 131.806 278.449L131.182 283.531L129.737 283.354ZM126.962 283.11C126.337 283.033 125.8 282.86 125.349 282.589C124.91 282.321 124.585 281.985 124.377 281.583C124.169 281.171 124.095 280.727 124.154 280.25C124.209 279.795 124.366 279.395 124.623 279.051C124.891 278.707 125.282 278.454 125.796 278.292C126.321 278.131 127.002 278.101 127.838 278.204L130.506 278.532L130.372 279.627L127.767 279.308C127.005 279.214 126.476 279.278 126.18 279.5C125.884 279.721 125.714 280.012 125.67 280.372C125.619 280.785 125.743 281.139 126.04 281.433C126.338 281.717 126.778 281.894 127.36 281.966C127.932 282.036 128.445 281.97 128.9 281.768C129.365 281.567 129.723 281.235 129.973 280.771L130.146 281.857C129.884 282.33 129.481 282.683 128.936 282.917C128.393 283.14 127.735 283.205 126.962 283.11ZM118.411 281.963L119.329 274.483L119.661 274.927L116.199 274.502L116.363 273.168L124.05 274.112L123.886 275.446L120.44 275.023L120.854 274.671L119.935 282.15L118.411 281.963ZM111.437 281.204C110.579 281.098 109.834 280.819 109.202 280.365C108.581 279.913 108.119 279.34 107.817 278.647C107.515 277.955 107.416 277.19 107.518 276.354C107.621 275.518 107.903 274.8 108.363 274.201C108.824 273.602 109.409 273.163 110.121 272.885C110.844 272.598 111.634 272.507 112.492 272.612C113.254 272.706 113.913 272.942 114.468 273.322C115.035 273.693 115.446 274.195 115.701 274.828L114.45 275.432C114.226 274.985 113.924 274.642 113.545 274.402C113.178 274.153 112.767 274 112.312 273.944C111.761 273.877 111.254 273.938 110.79 274.128C110.326 274.318 109.94 274.62 109.631 275.034C109.324 275.436 109.133 275.94 109.059 276.543C108.985 277.147 109.047 277.686 109.247 278.162C109.446 278.638 109.748 279.024 110.152 279.321C110.557 279.618 111.034 279.8 111.585 279.868C112.04 279.924 112.475 279.88 112.89 279.738C113.317 279.586 113.694 279.321 114.02 278.942L115.089 279.814C114.689 280.356 114.168 280.749 113.526 280.993C112.895 281.227 112.199 281.297 111.437 281.204ZM99.561 279.778C98.714 279.674 97.942 279.434 97.247 279.058C96.562 278.684 95.986 278.21 95.519 277.637C95.054 277.053 94.715 276.399 94.503 275.675C94.291 274.95 94.235 274.18 94.335 273.365C94.435 272.55 94.676 271.816 95.057 271.164C95.438 270.513 95.924 269.965 96.516 269.522C97.109 269.068 97.783 268.743 98.538 268.545C99.293 268.348 100.099 268.302 100.957 268.407C101.804 268.511 102.564 268.749 103.239 269.122C103.925 269.486 104.501 269.96 104.966 270.543C105.444 271.118 105.783 271.767 105.985 272.49C106.197 273.215 106.252 273.99 106.15 274.816C106.049 275.641 105.808 276.38 105.427 277.032C105.057 277.685 104.57 278.238 103.966 278.69C103.374 279.133 102.701 279.454 101.946 279.651C101.203 279.839 100.408 279.882 99.561 279.778ZM99.734 278.364C100.348 278.44 100.928 278.403 101.472 278.255C102.028 278.108 102.519 277.868 102.947 277.534C103.387 277.19 103.745 276.772 104.02 276.279C104.306 275.787 104.487 275.235 104.562 274.621C104.638 274.007 104.596 273.427 104.437 272.88C104.289 272.336 104.043 271.849 103.698 271.419C103.365 270.981 102.947 270.623 102.443 270.347C101.951 270.071 101.397 269.896 100.783 269.82C100.159 269.744 99.569 269.779 99.013 269.925C98.468 270.073 97.976 270.319 97.536 270.663C97.098 270.996 96.735 271.408 96.449 271.9C96.174 272.392 95.999 272.946 95.923 273.56C95.848 274.174 95.884 274.753 96.032 275.298C96.191 275.844 96.442 276.337 96.786 276.777C97.131 277.206 97.549 277.559 98.042 277.834C98.545 278.111 99.109 278.287 99.734 278.364Z" fill="white"/>
<path d="M220.384 200.68C217.018 228.088 192.071 247.579 164.663 244.214C137.255 240.848 117.764 215.901 121.129 188.493C124.495 161.084 149.442 141.594 176.85 144.959C204.258 148.324 223.749 173.271 220.384 200.68Z" fill="white" fill-opacity="0.08"/>
<path fill-rule="evenodd" clip-rule="evenodd" d="M199.768 173.089C200.108 173.524 200.031 174.153 199.596 174.493L168.949 198.436C168.514 198.776 167.886 198.699 167.546 198.264C167.206 197.829 167.283 197.2 167.718 196.86L198.364 172.917C198.8 172.577 199.428 172.654 199.768 173.089Z" fill="white"/>
<path fill-rule="evenodd" clip-rule="evenodd" d="M199.768 173.089C199.884 173.237 199.956 173.415 199.975 173.603C199.994 173.79 199.96 173.979 199.877 174.148L176.414 221.642C176.232 222.01 175.845 222.229 175.436 222.196C175.236 222.179 175.046 222.104 174.89 221.978C174.734 221.852 174.619 221.682 174.561 221.491L167.49 198.308L146.706 185.838C146.534 185.735 146.397 185.583 146.313 185.401C146.229 185.219 146.201 185.016 146.234 184.819C146.266 184.621 146.357 184.437 146.495 184.292C146.633 184.147 146.812 184.046 147.008 184.004L198.768 172.728C198.952 172.687 199.143 172.7 199.32 172.764C199.497 172.828 199.652 172.94 199.768 173.089ZM149.898 185.421L168.848 196.791C169.061 196.918 169.218 197.12 169.29 197.357L175.738 218.495L197.164 175.124L149.898 185.421Z" fill="white"/>
<path d="M135.562 75.4572C136.654 75.7822 137.62 76.4686 138.252 77.3871C138.905 78.3338 139.178 79.481 139.027 80.5958C138.68 83.1473 136.242 84.9352 133.616 84.5782L121.676 82.955C120.437 82.7866 119.312 82.1543 118.51 81.1874C117.715 80.171 117.378 78.9394 117.549 77.676L121.34 78.1912C121.302 78.4637 121.428 78.6573 121.513 78.7699C121.684 78.995 121.919 79.1278 122.191 79.1648L134.131 80.788C134.676 80.8621 135.148 80.5478 135.212 80.0771C135.266 79.6808 134.966 79.2868 134.506 79.1485L121.972 75.5777C120.878 75.2775 119.936 74.5944 119.279 73.6726C118.654 72.7045 118.378 71.582 118.533 70.4425C118.88 67.891 121.293 66.0998 123.919 66.4567L135.859 68.0799C137.122 68.2517 138.247 68.884 139.025 69.8475C139.82 70.8639 140.182 72.0989 140.01 73.3623L136.195 72.8437C136.229 72.5959 136.132 72.3809 136.022 72.265C135.872 72.068 135.613 71.9319 135.34 71.8948L123.4 70.2716C122.88 70.2009 122.383 70.5119 122.323 70.9578C122.269 71.3541 122.569 71.7481 123.029 71.8864L135.562 75.4572ZM153.162 83.3752L162.031 84.5808L161.515 88.371L140.063 85.4546L140.578 81.6645L149.372 82.86L150.581 73.9668L141.787 72.7713L142.306 68.9563L163.758 71.8727L163.24 75.6876L154.371 74.482L153.162 83.3752ZM188.283 75.232L186.04 91.7302L181.358 91.0937L170.006 77.1626L168.353 89.3257L164.563 88.8105L166.806 72.3122L171.512 72.9521L182.846 86.8303L184.493 74.7167L184.5 74.6672L188.29 75.1824L188.283 75.232ZM212.345 78.5031L211.83 82.2933L202.986 81.091L201.262 93.7744L197.447 93.2557L199.172 80.5724L190.377 79.3769L190.893 75.5867L212.345 78.5031ZM234.444 85.3675L217.351 83.0438L217.007 85.5705L234.1 87.8942L233.581 91.7091L216.489 89.3855L216.142 91.937L233.235 94.2607L232.719 98.0508L211.836 95.2119L214.079 78.7136L234.962 81.5526L234.444 85.3675ZM260.165 84.9536L250.568 88.9219L257.866 101.495L253.035 100.838L247.011 90.4063L240.996 92.8937L240.154 99.0867L236.364 98.5715L238.61 82.0485L242.4 82.5637L241.595 88.4843L252.61 83.9264L260.165 84.9536ZM115.155 95.188L116.192 87.5582L118.928 87.9301C119.567 88.017 120.102 88.1934 120.532 88.4591C120.962 88.7247 121.275 89.067 121.469 89.4857C121.665 89.8971 121.726 90.3753 121.652 90.9203C121.58 91.4508 121.394 91.8918 121.094 92.2433C120.795 92.5948 120.403 92.8412 119.917 92.9824C119.432 93.1237 118.869 93.1508 118.23 93.0639L115.799 92.7335L116.085 92.5059L115.71 95.2636L115.155 95.188ZM116.081 92.5386L115.867 92.2321L118.298 92.5625C119.119 92.6741 119.764 92.5806 120.234 92.2818C120.712 91.9768 120.996 91.4972 121.085 90.8433C121.175 90.182 121.03 89.6442 120.649 89.2299C120.277 88.8093 119.681 88.5431 118.859 88.4315L116.429 88.1011L116.717 87.8627L116.081 92.5386ZM126.048 96.6689L126.224 95.3718L126.229 95.1727L126.519 93.0363C126.592 92.5059 126.501 92.0828 126.248 91.7672C126.002 91.4525 125.603 91.2577 125.051 91.1826C124.658 91.1292 124.282 91.1484 123.922 91.24C123.57 91.3254 123.259 91.4571 122.991 91.6352L122.772 91.2058C123.09 90.99 123.458 90.8402 123.876 90.7565C124.296 90.6655 124.724 90.6497 125.16 90.7089C125.864 90.8047 126.382 91.0564 126.711 91.4638C127.04 91.8712 127.157 92.4274 127.061 93.1322L126.571 96.74L126.048 96.6689ZM123.993 96.4339C123.571 96.3766 123.213 96.2613 122.919 96.0881C122.632 95.9085 122.422 95.6839 122.289 95.4141C122.162 95.1453 122.121 94.851 122.164 94.5313C122.204 94.2406 122.305 93.9879 122.467 93.7732C122.638 93.5522 122.889 93.3902 123.222 93.2874C123.555 93.1772 123.983 93.1577 124.506 93.2289L126.599 93.5134L126.541 93.9385L124.459 93.6554C123.871 93.5754 123.442 93.6281 123.172 93.8135C122.91 93.9999 122.757 94.2566 122.712 94.5836C122.663 94.9469 122.761 95.2563 123.008 95.5119C123.254 95.7674 123.628 95.9292 124.13 95.9974C124.609 96.0626 125.028 96.0084 125.384 95.8349C125.748 95.6623 126.038 95.3798 126.254 94.9874L126.356 95.3787C126.148 95.7722 125.841 96.0672 125.437 96.2639C125.041 96.4543 124.56 96.511 123.993 96.4339ZM130.046 97.2679C129.653 97.2145 129.266 97.0989 128.883 96.9211C128.5 96.7432 128.173 96.5064 127.902 96.2106L128.164 95.8354C128.409 96.1055 128.705 96.3233 129.052 96.489C129.401 96.6474 129.757 96.7476 130.122 96.7898C130.492 96.8402 130.823 96.8296 131.114 96.7582C131.412 96.6877 131.65 96.5684 131.829 96.4002C132.007 96.232 132.112 96.0316 132.144 95.7991C132.19 95.4576 132.073 95.1716 131.794 94.9412C131.514 94.7108 131.109 94.5595 130.579 94.4874L129.663 94.3629L129.72 93.9487L130.613 94.0702C130.919 94.1117 131.193 94.1083 131.436 94.06C131.687 94.0127 131.888 93.9216 132.04 93.7868C132.199 93.6457 132.294 93.4698 132.322 93.259C132.354 93.0265 132.301 92.8194 132.163 92.6378C132.033 92.45 131.839 92.2978 131.581 92.1813C131.33 92.0658 131.041 91.9858 130.714 91.9414C130.43 91.9101 130.13 91.9137 129.814 91.9522C129.505 91.9916 129.194 92.0715 128.882 92.1918L128.767 91.7321C129.11 91.6012 129.451 91.5144 129.79 91.4716C130.129 91.4289 130.466 91.4266 130.801 91.4648C131.224 91.5148 131.601 91.6253 131.933 91.7962C132.266 91.9599 132.519 92.1682 132.692 92.4211C132.865 92.6668 132.931 92.9458 132.889 93.2583C132.85 93.5417 132.729 93.7769 132.526 93.9639C132.331 94.1447 132.077 94.2729 131.763 94.3487C131.457 94.4254 131.122 94.4391 130.759 94.3897L130.826 94.2212C131.48 94.3102 131.968 94.506 132.289 94.8087C132.618 95.1124 132.753 95.4786 132.695 95.9074C132.649 96.2489 132.499 96.532 132.246 96.7567C131.994 96.9814 131.673 97.1376 131.284 97.2253C130.902 97.3139 130.489 97.3281 130.046 97.2679ZM137.245 98.2355C136.743 98.1673 136.305 97.9893 135.93 97.7015C135.562 97.4146 135.287 97.0405 135.105 96.5792C134.932 96.1116 134.886 95.5799 134.967 94.984C135.048 94.3882 135.234 93.8917 135.525 93.4946C135.824 93.0912 136.189 92.8004 136.62 92.6222C137.059 92.445 137.529 92.3905 138.03 92.4586C138.568 92.5317 139.031 92.7205 139.419 93.0248C139.815 93.3229 140.103 93.7062 140.284 94.1748C140.471 94.6444 140.527 95.1626 140.45 95.7294C140.373 96.2961 140.181 96.7807 139.875 97.1831C139.576 97.5865 139.195 97.8826 138.733 98.0714C138.278 98.2539 137.783 98.3086 137.245 98.2355ZM134.108 99.9182L135.169 92.114L135.692 92.1851L135.438 94.049L135.216 95.029L135.19 96.0357L134.653 99.9923L134.108 99.9182ZM137.279 97.7406C137.715 97.7998 138.121 97.7551 138.496 97.6063C138.872 97.4502 139.184 97.2039 139.429 96.8672C139.682 96.5316 139.84 96.1276 139.905 95.6553C139.97 95.1757 139.925 94.744 139.77 94.3603C139.623 93.9703 139.389 93.6535 139.067 93.4099C138.745 93.159 138.367 93.0039 137.931 92.9447C137.495 92.8854 137.089 92.9338 136.712 93.0898C136.344 93.2396 136.033 93.4823 135.781 93.818C135.536 94.1474 135.381 94.5519 135.316 95.0314C135.252 95.5038 135.293 95.9349 135.44 96.3249C135.594 96.7159 135.828 97.0363 136.142 97.2862C136.464 97.5298 136.843 97.6813 137.279 97.7406ZM145.367 99.2953L145.544 97.9982L145.548 97.799L145.839 95.6627C145.911 95.1322 145.82 94.7092 145.567 94.3936C145.321 94.0789 144.922 93.884 144.37 93.809C143.978 93.7556 143.601 93.7748 143.241 93.8664C142.889 93.9518 142.579 94.0835 142.31 94.2616L142.091 93.8322C142.409 93.6164 142.777 93.4666 143.196 93.3829C143.615 93.2919 144.043 93.276 144.479 93.3353C145.184 93.4311 145.701 93.6827 146.03 94.0902C146.36 94.4976 146.477 95.0537 146.381 95.7586L145.89 99.3664L145.367 99.2953ZM143.312 99.0603C142.891 99.003 142.533 98.8877 142.238 98.7144C141.951 98.5349 141.742 98.3102 141.608 98.0404C141.482 97.7717 141.44 97.4774 141.484 97.1577C141.523 96.867 141.624 96.6143 141.787 96.3996C141.957 96.1785 142.209 96.0166 142.541 95.9137C142.874 95.8036 143.302 95.7841 143.826 95.8552L145.918 96.1397L145.861 96.5648L143.779 96.2818C143.19 96.2018 142.761 96.2545 142.492 96.4399C142.229 96.6263 142.076 96.883 142.032 97.21C141.982 97.5733 142.081 97.8827 142.327 98.1382C142.574 98.3938 142.948 98.5556 143.449 98.6238C143.929 98.689 144.347 98.6348 144.703 98.4613C145.067 98.2887 145.357 98.0062 145.574 97.6138L145.676 98.0051C145.467 98.3985 145.16 98.6936 144.756 98.8903C144.36 99.0807 143.879 99.1374 143.312 99.0603ZM150.582 100.06C150.125 99.9975 149.729 99.8623 149.394 99.654C149.067 99.4467 148.801 99.1701 148.597 98.824C148.399 98.479 148.266 98.0686 148.198 97.5931C148.13 97.1102 148.138 96.5673 148.22 95.9641C148.3 95.3756 148.426 94.8784 148.6 94.4728C148.774 94.0599 148.976 93.7209 149.204 93.4559C149.441 93.1847 149.696 92.9714 149.969 92.8161C150.241 92.6607 150.516 92.5463 150.792 92.4729C151.077 92.3932 151.354 92.342 151.624 92.3195L154.223 92.0623L154.24 92.5864L151.767 92.8163C151.594 92.8372 151.39 92.8686 151.155 92.9107C150.928 92.9464 150.688 93.0212 150.436 93.1349C150.192 93.2423 149.954 93.4099 149.724 93.6376C149.501 93.8589 149.301 94.1574 149.125 94.533C148.955 94.9096 148.831 95.3885 148.752 95.9699C148.737 96.0789 148.729 96.1666 148.727 96.2329C148.725 96.2993 148.723 96.373 148.719 96.4539C148.724 96.5285 148.724 96.6395 148.718 96.7868L148.485 96.6219C148.594 96.1483 148.793 95.7461 149.082 95.4154C149.372 95.0846 149.723 94.8437 150.135 94.6926C150.548 94.5415 150.998 94.499 151.485 94.5652C152.015 94.6373 152.468 94.8173 152.843 95.1052C153.227 95.3867 153.507 95.7504 153.683 96.1962C153.86 96.6348 153.912 97.1229 153.839 97.6606C153.766 98.1983 153.581 98.6616 153.284 99.0505C152.994 99.4403 152.615 99.7255 152.146 99.906C151.685 100.088 151.164 100.139 150.582 100.06ZM150.733 99.6029C151.169 99.6622 151.568 99.6165 151.929 99.4657C152.298 99.3087 152.601 99.0686 152.837 98.7455C153.073 98.4224 153.222 98.0392 153.282 97.5959C153.342 97.1527 153.301 96.7511 153.157 96.3911C153.014 96.0312 152.784 95.7336 152.468 95.4982C152.16 95.2566 151.785 95.1056 151.342 95.0454C150.906 94.9861 150.504 95.0277 150.137 95.1702C149.777 95.3137 149.48 95.5397 149.246 95.8483C149.011 96.1569 148.864 96.5328 148.804 96.976C148.743 97.4193 148.784 97.8282 148.925 98.2026C149.074 98.5781 149.302 98.8903 149.609 99.1392C149.922 99.3891 150.297 99.5437 150.733 99.6029ZM157.519 100.992C156.974 100.918 156.504 100.728 156.109 100.422C155.721 100.118 155.429 99.7307 155.234 99.2601C155.046 98.7905 154.991 98.276 155.067 97.7165C155.144 97.1497 155.335 96.6687 155.64 96.2736C155.954 95.8722 156.338 95.5766 156.793 95.3868C157.256 95.198 157.759 95.1407 158.304 95.2148C158.849 95.2889 159.319 95.4786 159.714 95.7839C160.109 96.0893 160.401 96.4767 160.589 96.9463C160.778 97.4086 160.833 97.9232 160.756 98.4899C160.68 99.0495 160.489 99.5304 160.183 99.9328C159.876 100.335 159.492 100.631 159.03 100.82C158.567 101.008 158.064 101.066 157.519 100.992ZM157.586 100.501C158.021 100.56 158.427 100.516 158.803 100.367C159.179 100.211 159.49 99.9645 159.736 99.6278C159.981 99.2912 160.136 98.8867 160.2 98.4144C160.266 97.9348 160.224 97.5036 160.077 97.1209C159.93 96.7309 159.695 96.4141 159.373 96.1705C159.052 95.9196 158.673 95.7645 158.237 95.7053C157.801 95.646 157.395 95.6944 157.019 95.8504C156.651 96.0002 156.34 96.2429 156.087 96.5786C155.843 96.908 155.688 97.3124 155.623 97.792C155.558 98.2644 155.6 98.6955 155.746 99.0855C155.901 99.4765 156.134 99.7969 156.448 100.047C156.77 100.29 157.15 100.442 157.586 100.501ZM162.967 101.688L163.696 96.3252L163.826 96.5095L161.45 96.1864L161.517 95.6959L166.509 96.3746L166.442 96.8651L164.066 96.5421L164.241 96.3993L163.512 101.762L162.967 101.688ZM171.099 102.793L169.044 99.6166L169.537 99.4173L171.753 102.882L171.099 102.793ZM166.902 102.223L167.676 96.5332L168.221 96.6073L167.447 102.297L166.902 102.223ZM167.632 99.6355L167.695 99.1668L169.483 99.4099L169.419 99.8785L167.632 99.6355ZM169.527 99.7378L169.038 99.5824L171.752 97.0874L172.352 97.1689L169.527 99.7378ZM176.544 103.534L176.721 102.237L176.725 102.037L177.016 99.9011C177.088 99.3706 176.998 98.9476 176.744 98.6319C176.499 98.3173 176.099 98.1224 175.547 98.0473C175.155 97.994 174.779 98.0131 174.418 98.1048C174.066 98.1901 173.756 98.3219 173.487 98.5L173.268 98.0706C173.586 97.8548 173.955 97.705 174.373 97.6213C174.792 97.5303 175.22 97.5144 175.656 97.5737C176.361 97.6695 176.878 97.9211 177.207 98.3285C177.537 98.736 177.654 99.2921 177.558 99.997L177.067 103.605L176.544 103.534ZM174.489 103.299C174.068 103.241 173.71 103.126 173.415 102.953C173.129 102.773 172.919 102.549 172.785 102.279C172.659 102.01 172.617 101.716 172.661 101.396C172.7 101.105 172.801 100.853 172.964 100.638C173.134 100.417 173.386 100.255 173.718 100.152C174.051 100.042 174.479 100.023 175.003 100.094L177.095 100.378L177.038 100.803L174.956 100.52C174.367 100.44 173.938 100.493 173.669 100.678C173.407 100.865 173.253 101.121 173.209 101.448C173.159 101.812 173.258 102.121 173.504 102.377C173.751 102.632 174.125 102.794 174.626 102.862C175.106 102.927 175.524 102.873 175.881 102.7C176.244 102.527 176.535 102.245 176.751 101.852L176.853 102.243C176.644 102.637 176.337 102.932 175.933 103.129C175.537 103.319 175.056 103.376 174.489 103.299ZM182.081 104.286L182.855 98.5967L187.825 99.2724L187.051 104.962L186.506 104.888L187.236 99.5253L187.366 99.7095L183.18 99.1405L183.355 98.9978L182.626 104.36L182.081 104.286ZM192.265 105.715C191.764 105.647 191.325 105.469 190.95 105.181C190.582 104.894 190.307 104.52 190.126 104.059C189.953 103.591 189.906 103.06 189.987 102.464C190.068 101.868 190.254 101.371 190.545 100.974C190.844 100.571 191.209 100.28 191.641 100.102C192.079 99.9247 192.549 99.8702 193.05 99.9384C193.588 100.011 194.051 100.2 194.439 100.505C194.835 100.803 195.123 101.186 195.304 101.655C195.492 102.124 195.547 102.642 195.47 103.209C195.393 103.776 195.201 104.26 194.895 104.663C194.596 105.066 194.215 105.362 193.753 105.551C193.299 105.734 192.803 105.788 192.265 105.715ZM189.128 107.398L190.189 99.5937L190.712 99.6649L190.459 101.529L190.237 102.509L190.211 103.515L189.673 107.472L189.128 107.398ZM192.299 105.22C192.735 105.28 193.141 105.235 193.516 105.086C193.893 104.93 194.204 104.684 194.449 104.347C194.702 104.011 194.861 103.607 194.925 103.135C194.99 102.655 194.945 102.224 194.79 101.84C194.643 101.45 194.409 101.133 194.087 100.89C193.766 100.639 193.387 100.484 192.951 100.424C192.515 100.365 192.109 100.414 191.732 100.57C191.364 100.719 191.054 100.962 190.801 101.298C190.556 101.627 190.401 102.032 190.336 102.511C190.272 102.984 190.313 103.415 190.46 103.805C190.614 104.196 190.848 104.516 191.162 104.766C191.484 105.01 191.863 105.161 192.299 105.22ZM196.855 106.295L197.629 100.605L198.174 100.679L197.515 105.53L202.229 101.23L202.708 101.296L201.935 106.985L201.39 106.911L202.049 102.061L197.335 106.36L196.855 106.295ZM203.165 107.13L203.284 106.669C203.326 106.682 203.368 106.699 203.41 106.72C203.46 106.734 203.503 106.743 203.539 106.748C203.786 106.782 203.995 106.718 204.165 106.556C204.336 106.387 204.479 106.151 204.594 105.848C204.717 105.547 204.819 105.202 204.901 104.813C204.991 104.426 205.074 104.03 205.152 103.626L205.516 101.677L209.506 102.22L208.732 107.909L208.187 107.835L208.918 102.462L209.047 102.657L205.799 102.215L205.965 102.049L205.647 103.738C205.551 104.228 205.447 104.695 205.335 105.139C205.222 105.582 205.092 105.971 204.943 106.306C204.794 106.641 204.611 106.898 204.394 107.075C204.178 107.246 203.922 107.311 203.624 107.27C203.551 107.261 203.476 107.243 203.398 107.218C203.327 107.193 203.25 107.164 203.165 107.13ZM213.348 108.581C212.803 108.507 212.333 108.318 211.938 108.012C211.55 107.708 211.259 107.32 211.063 106.85C210.876 106.38 210.82 105.866 210.896 105.306C210.973 104.739 211.164 104.258 211.469 103.863C211.783 103.462 212.167 103.166 212.622 102.977C213.085 102.788 213.588 102.73 214.133 102.804C214.678 102.879 215.148 103.068 215.544 103.374C215.939 103.679 216.23 104.066 216.418 104.536C216.607 104.998 216.663 105.513 216.586 106.08C216.51 106.639 216.318 107.12 216.012 107.523C215.706 107.925 215.321 108.221 214.859 108.409C214.397 108.598 213.893 108.655 213.348 108.581ZM213.415 108.091C213.851 108.15 214.256 108.105 214.632 107.957C215.008 107.801 215.319 107.554 215.565 107.218C215.811 106.881 215.965 106.476 216.03 106.004C216.095 105.525 216.054 105.093 215.906 104.711C215.759 104.321 215.525 104.004 215.202 103.76C214.881 103.509 214.503 103.354 214.067 103.295C213.631 103.236 213.225 103.284 212.848 103.44C212.48 103.59 212.169 103.833 211.916 104.168C211.672 104.498 211.517 104.902 211.452 105.382C211.388 105.854 211.429 106.285 211.576 106.675C211.73 107.066 211.964 107.387 212.278 107.637C212.6 107.88 212.979 108.032 213.415 108.091ZM224.497 110.053L222.834 106.929L223.328 106.73L225.151 110.141L224.497 110.053ZM221.433 106.95L221.496 106.481L223.262 106.721L223.198 107.19L221.433 106.95ZM223.328 107.052L222.828 106.895L225.161 104.348L225.761 104.43L223.328 107.052ZM217.488 109.1L216.823 109.009L219.502 106.21L219.924 106.534L217.488 109.1ZM221.259 109.612L220.714 109.538L221.488 103.849L222.033 103.923L221.259 109.612ZM221.247 106.924L219.493 106.686L219.556 106.217L221.311 106.456L221.247 106.924ZM219.415 106.52L217.771 103.343L218.371 103.425L219.939 106.502L219.415 106.52ZM228.71 110.67C228.136 110.592 227.644 110.399 227.234 110.092C226.832 109.785 226.533 109.397 226.338 108.926C226.15 108.457 226.094 107.942 226.17 107.383C226.247 106.816 226.431 106.334 226.722 105.937C227.021 105.533 227.395 105.236 227.843 105.046C228.29 104.855 228.772 104.795 229.288 104.865C229.804 104.935 230.249 105.117 230.623 105.413C231.005 105.709 231.282 106.091 231.456 106.558C231.637 107.019 231.689 107.534 231.612 108.1C231.609 108.122 231.602 108.147 231.591 108.175C231.588 108.197 231.585 108.222 231.581 108.251L226.556 107.568L226.614 107.143L231.344 107.786L231.098 107.964C231.166 107.521 231.125 107.113 230.976 106.737C230.836 106.355 230.615 106.044 230.315 105.804C230.016 105.556 229.652 105.403 229.223 105.344C228.801 105.287 228.41 105.337 228.048 105.495C227.694 105.647 227.399 105.888 227.161 106.219C226.925 106.542 226.776 106.928 226.715 107.379L226.702 107.477C226.638 107.942 226.684 108.37 226.838 108.761C227 109.146 227.249 109.465 227.585 109.717C227.921 109.963 228.322 110.117 228.787 110.181C229.151 110.23 229.497 110.211 229.828 110.122C230.165 110.035 230.461 109.872 230.716 109.632L230.983 110.035C230.694 110.307 230.35 110.497 229.951 110.605C229.559 110.708 229.146 110.729 228.71 110.67ZM233.003 111.209L233.777 105.519L234.322 105.593L233.969 108.188L237.828 108.712L238.18 106.118L238.725 106.192L237.952 111.882L237.407 111.808L237.763 109.192L233.904 108.667L233.548 111.283L233.003 111.209ZM240.305 112.202L241.079 106.512L241.624 106.586L240.964 111.436L245.679 107.137L246.158 107.203L245.385 112.892L244.84 112.818L245.499 107.968L240.785 112.267L240.305 112.202ZM247.735 113.212L248.509 107.522L249.054 107.596L248.394 112.447L253.108 108.147L253.588 108.213L252.814 113.902L252.269 113.828L252.929 108.978L248.215 113.277L247.735 113.212ZM251.145 106.992C250.702 106.932 250.351 106.766 250.092 106.494C249.841 106.216 249.737 105.865 249.779 105.441L250.183 105.496C250.157 105.796 250.237 106.047 250.424 106.251C250.619 106.455 250.876 106.578 251.195 106.622C251.515 106.665 251.792 106.614 252.027 106.468C252.268 106.324 252.413 106.103 252.461 105.806L252.875 105.862C252.81 106.283 252.617 106.593 252.293 106.793C251.978 106.987 251.595 107.054 251.145 106.992Z" fill="white"/>
</svg>
